<svg width="20" height="20" viewBox="0 0 20 20" fill="none" xmlns="http://www.w3.org/2000/svg">
<path fill-rule="evenodd" clip-rule="evenodd" d="M15.5 0C14.9477 0 14.5 0.447715 14.5 1V19C14.5 19.5523 14.9477 20 15.5 20H18.5C19.0523 20 19.5 19.5523 19.5 19V1C19.5 0.447715 19.0523 0 18.5 0L15.5 0ZM7.5 8C7.5 7.44772 7.94772 7 8.5 7H11.5C12.0523 7 12.5 7.44772 12.5 8V19C12.5 19.5523 12.0523 20 11.5 20H8.5C7.94772 20 7.5 19.5523 7.5 19V8ZM0.5 14C0.5 13.4477 0.947715 13 1.5 13H4.5C5.05228 13 5.5 13.4477 5.5 14V19C5.5 19.5523 5.05228 20 4.5 20H1.5C0.947715 20 0.5 19.5523 0.5 19L0.5 14Z" fill="white" fill-opacity="0.08"/>
</svg>
