<svg width="22" height="17" viewBox="0 0 22 17" fill="none" xmlns="http://www.w3.org/2000/svg">
<path fill-rule="evenodd" clip-rule="evenodd" d="M0.687896 7.0006C2.03965 5.0117 5.48165 0.914062 11.0033 0.914062C16.5247 0.914062 19.9604 5.01228 21.3118 7.0006L21.3138 7.00361C21.6175 7.45521 21.7458 8.01902 21.7499 8.53509C21.754 9.05034 21.6352 9.61832 21.3316 10.0754C20.0039 12.0863 16.6202 16.1641 11.0033 16.1641C5.37903 16.1641 1.99568 12.0847 0.667971 10.0742C0.365524 9.61781 0.246352 9.0507 0.250085 8.53566C0.253824 8.01964 0.381603 7.45529 0.68616 7.00317L0.68789 7.0006L0.687896 7.0006ZM1.92953 7.84223C1.83066 7.98965 1.75224 8.24388 1.75005 8.54653C1.74784 8.85029 1.82309 9.10217 1.91865 9.24611L1.91967 9.24764C3.17323 11.1459 6.16493 14.6641 11.0033 14.6641C15.8352 14.6641 18.8275 11.1461 20.0805 9.24778L20.0819 9.24566C20.1773 9.10225 20.2524 8.85091 20.2499 8.5471C20.2475 8.2446 20.169 7.9899 20.0699 7.84194C18.7793 5.94358 15.7355 2.41406 11.0033 2.41406C6.26984 2.41406 3.21966 5.94452 1.92953 7.84223ZM10.9964 5.55719C9.34235 5.55719 8.01012 6.89527 8.01012 8.53344C8.01012 10.1844 9.34453 11.5216 10.9964 11.5216C12.6496 11.5216 13.9877 10.1831 13.9877 8.53344C13.9877 6.89657 12.6518 5.55719 10.9964 5.55719ZM6.51012 8.53344C6.51012 6.06536 8.51541 4.05719 10.9964 4.05719C13.4761 4.05719 15.4877 6.06405 15.4877 8.53344C15.4877 11.0125 13.477 13.0216 10.9964 13.0216C8.51448 13.0216 6.51012 11.0112 6.51012 8.53344Z" fill="#FCFCFC"/>
</svg>
