<svg width="20" height="18" viewBox="0 0 20 18" fill="none" xmlns="http://www.w3.org/2000/svg">
<path fill-rule="evenodd" clip-rule="evenodd" d="M8.12403 8.12306C10.3672 8.12306 12.1856 6.30465 12.1856 4.06153C12.1856 1.81841 10.3672 0 8.12403 0C5.88091 0 4.0625 1.81841 4.0625 4.06153C4.0625 6.30465 5.88091 8.12306 8.12403 8.12306ZM8.80337 9.159L8.80331 9.159C8.57994 9.14884 8.35658 9.13869 8.12306 9.13869C5.66583 9.13869 3.37107 9.819 1.41138 10.9867C0.517845 11.5147 0 12.5098 0 13.5556L0 15.231C0 15.7894 0.456922 16.2464 1.01538 16.2464H9.40244C8.68526 15.2233 8.252 14.0285 8.14677 12.7835C8.04154 11.5385 8.26809 10.2879 8.80337 9.159ZM18.9797 11.5709C19.0088 11.7745 19.0368 11.9699 19.0368 12.1839C19.0368 12.398 19.0088 12.5934 18.9797 12.797L18.9758 12.8236L19.8288 13.5649C20.0115 13.7273 20.0521 13.9913 19.9303 14.2046L19.3312 15.2402C19.2094 15.4433 18.9657 15.5449 18.7321 15.4636L17.6558 15.0981C17.3309 15.3722 16.9654 15.5855 16.5592 15.7378L16.3358 16.8446C16.2851 17.0781 16.082 17.2507 15.8383 17.2507H14.6402C14.3965 17.2507 14.1934 17.0781 14.1426 16.8446L13.9192 15.7378C13.5131 15.5855 13.1475 15.3722 12.8226 15.0981L11.7463 15.4636C11.5229 15.5449 11.2691 15.4535 11.1472 15.2402L10.5482 14.2046C10.4263 13.9913 10.4669 13.7273 10.6497 13.5649L11.5026 12.8236C11.5014 12.8147 11.5001 12.8059 11.4988 12.797C11.4697 12.5934 11.4417 12.398 11.4417 12.1839C11.4417 11.9699 11.4697 11.7745 11.4988 11.5709C11.5001 11.562 11.5014 11.5532 11.5026 11.5443L10.6497 10.803C10.4669 10.6406 10.4263 10.3766 10.5482 10.1633L11.1472 9.12764C11.2058 9.02682 11.2975 8.94943 11.4068 8.9087C11.516 8.86796 11.636 8.86639 11.7463 8.90426L12.8226 9.2698C13.1475 8.99565 13.5131 8.78241 13.9192 8.63011L14.1426 7.52334C14.1934 7.2898 14.3965 7.11719 14.6402 7.11719H15.8383C15.9552 7.11773 16.0684 7.15835 16.1589 7.23227C16.2495 7.30619 16.3119 7.40893 16.3358 7.52334L16.5592 8.63011C16.9654 8.78241 17.3309 8.99565 17.6558 9.2698L18.7321 8.90426C18.8423 8.86476 18.9629 8.86552 19.0725 8.9064C19.1822 8.94729 19.2738 9.02566 19.3312 9.12764L19.9303 10.1633C20.0521 10.3766 20.0115 10.6406 19.8288 10.803L18.9758 11.5443L18.9797 11.5709ZM13.1983 12.1839C13.1983 13.3009 14.1122 14.2147 15.2291 14.2147C16.346 14.2147 17.2598 13.3009 17.2598 12.1839C17.2598 11.067 16.346 10.1532 15.2291 10.1532C14.1122 10.1532 13.1983 11.067 13.1983 12.1839Z" fill="white" fill-opacity="0.08"/>
</svg>
