<svg width="20" height="20" viewBox="0 0 20 20" fill="none" xmlns="http://www.w3.org/2000/svg">
<path fill-rule="evenodd" clip-rule="evenodd" d="M20 10C20 15.523 15.523 20 10 20C4.477 20 0 15.523 0 10C0 4.477 4.477 0 10 0C15.523 0 20 4.477 20 10ZM9.47761 16.7502C9.53731 16.8213 9.62189 16.8569 9.73134 16.8569H10.2985C10.398 16.8569 10.4776 16.8213 10.5373 16.7502C10.607 16.6892 10.6418 16.608 10.6418 16.5064V15.455C11.3284 15.394 11.9204 15.2365 12.4179 14.9826C12.9254 14.7286 13.3134 14.3883 13.5821 13.9616C13.8607 13.535 14 13.0321 14 12.4531C14 11.874 13.8756 11.4016 13.6269 11.0359C13.3881 10.66 13.0149 10.3502 12.5075 10.1064C12 9.85242 11.3483 9.61369 10.5522 9.3902C9.89552 9.19718 9.36318 9.01432 8.95522 8.84162C8.54726 8.66893 8.24876 8.47083 8.0597 8.24734C7.87065 8.01369 7.77612 7.72416 7.77612 7.37877C7.77612 6.84035 7.97512 6.44416 8.37313 6.1902C8.78109 5.93623 9.30846 5.80924 9.95522 5.80924C10.592 5.80924 11.1095 5.95147 11.5075 6.23591C11.9055 6.52036 12.1343 6.87083 12.194 7.28734C12.2338 7.39909 12.2886 7.47528 12.3582 7.51591C12.4378 7.55655 12.5124 7.57686 12.5821 7.57686H13.3731C13.4826 7.57686 13.5622 7.54639 13.6119 7.48543C13.6617 7.41432 13.6866 7.34321 13.6866 7.2721C13.6766 6.90639 13.5572 6.53051 13.3284 6.14448C13.0995 5.75845 12.7612 5.41813 12.3134 5.12353C11.8657 4.82893 11.3085 4.64099 10.6418 4.55972V3.49305C10.6418 3.39147 10.607 3.3102 10.5373 3.24924C10.4776 3.17813 10.398 3.14258 10.2985 3.14258H9.73134C9.62189 3.14258 9.53731 3.17813 9.47761 3.24924C9.41791 3.3102 9.38806 3.39147 9.38806 3.49305V4.54448C8.40298 4.63591 7.64179 4.95083 7.10448 5.48924C6.56716 6.0175 6.29851 6.65242 6.29851 7.39401C6.29851 7.97305 6.41294 8.45051 6.64179 8.82639C6.8806 9.20226 7.23881 9.51718 7.71642 9.77115C8.19403 10.0251 8.79602 10.2588 9.52239 10.4721C10.2189 10.6753 10.7861 10.8632 11.2239 11.0359C11.6617 11.2086 11.9851 11.4067 12.194 11.6302C12.4129 11.8435 12.5224 12.128 12.5224 12.4835C12.5224 13.0016 12.3184 13.4181 11.9104 13.7331C11.5124 14.0378 10.8856 14.1902 10.0299 14.1902C9.47264 14.1902 9.01493 14.114 8.65672 13.9616C8.30846 13.7991 8.0398 13.601 7.85075 13.3673C7.66169 13.1235 7.53731 12.8797 7.47761 12.6359C7.45771 12.5546 7.41791 12.4835 7.35821 12.4226C7.29851 12.3616 7.20895 12.3311 7.08955 12.3311H6.32836C6.23881 12.3311 6.1592 12.3667 6.08955 12.4378C6.02985 12.4988 6 12.5699 6 12.6511C6.0199 13.0981 6.1592 13.5197 6.41791 13.9159C6.67662 14.3121 7.05473 14.6524 7.55224 14.9369C8.04975 15.2111 8.66169 15.3788 9.38806 15.4397V16.5064C9.38806 16.608 9.41791 16.6892 9.47761 16.7502Z" fill="white" fill-opacity="0.08"/>
</svg>
