<svg width="24" height="36" viewBox="0 0 24 36" fill="none" xmlns="http://www.w3.org/2000/svg">
<path d="M13.5 2C13.5 1.17157 12.8284 0.5 12 0.5C11.1716 0.5 10.5 1.17157 10.5 2L13.5 2ZM10.9393 35.0607C11.5251 35.6464 12.4749 35.6464 13.0607 35.0607L22.6066 25.5147C23.1924 24.9289 23.1924 23.9792 22.6066 23.3934C22.0208 22.8076 21.0711 22.8076 20.4853 23.3934L12 31.8787L3.51472 23.3934C2.92893 22.8076 1.97918 22.8076 1.3934 23.3934C0.807611 23.9792 0.80761 24.9289 1.3934 25.5147L10.9393 35.0607ZM10.5 2L10.5 34L13.5 34L13.5 2L10.5 2Z" fill="#C4C4C4"/>
</svg>
