<svg width="34" height="16" viewBox="0 0 34 16" fill="none" xmlns="http://www.w3.org/2000/svg">
<path d="M1 7C0.447715 7 -4.82823e-08 7.44772 0 8C4.82823e-08 8.55228 0.447715 9 1 9L1 7ZM33.7071 8.7071C34.0976 8.31658 34.0976 7.68341 33.7071 7.29289L27.3431 0.92893C26.9526 0.538406 26.3195 0.538406 25.9289 0.92893C25.5384 1.31945 25.5384 1.95262 25.9289 2.34314L31.5858 8L25.9289 13.6569C25.5384 14.0474 25.5384 14.6805 25.9289 15.0711C26.3195 15.4616 26.9526 15.4616 27.3431 15.0711L33.7071 8.7071ZM1 9L33 9L33 7L1 7L1 9Z" fill="#C4C4C4"/>
</svg>
