<svg width="15" height="15" viewBox="0 0 15 15" fill="none" xmlns="http://www.w3.org/2000/svg">
<path fill-rule="evenodd" clip-rule="evenodd" d="M1.15385 7.5C1.15385 3.99512 3.99512 1.15385 7.5 1.15385C11.0049 1.15385 13.8462 3.99512 13.8462 7.5C13.8462 11.0049 11.0049 13.8462 7.5 13.8462C3.99512 13.8462 1.15385 11.0049 1.15385 7.5ZM7.5 0C3.35786 0 0 3.35786 0 7.5C0 11.6421 3.35786 15 7.5 15C11.6421 15 15 11.6421 15 7.5C15 3.35786 11.6421 0 7.5 0ZM5.37508 4.64258C5.1793 4.44784 4.86272 4.44867 4.66797 4.64445C4.47323 4.84023 4.47407 5.15681 4.66984 5.35156L6.82672 7.49707L4.66984 9.64258C4.47407 9.83733 4.47323 10.1539 4.66797 10.3497C4.86272 10.5455 5.1793 10.5463 5.37508 10.3516L7.5357 8.20232L9.69633 10.3516C9.8921 10.5463 10.2087 10.5455 10.4034 10.3497C10.5982 10.1539 10.5973 9.83733 10.4016 9.64258L8.24468 7.49707L10.4016 5.35156C10.5973 5.15681 10.5982 4.84023 10.4034 4.64445C10.2087 4.44867 9.8921 4.44784 9.69633 4.64258L7.5357 6.79182L5.37508 4.64258Z" fill="#C4C4C4"/>
</svg>
