<svg xmlns="http://www.w3.org/2000/svg" width="17" height="16" viewBox="0 0 17 16" fill="none">
  <path d="M7.16645 15.3333C7.16645 15.5101 7.09621 15.6797 6.97119 15.8047C6.84617 15.9298 6.67661 16 6.4998 16H1.83329C1.47968 16 1.14055 15.8595 0.890511 15.6095C0.640471 15.3594 0.5 15.0203 0.5 14.6667V1.33333C0.5 0.979711 0.640471 0.640573 0.890511 0.390524C1.14055 0.140476 1.47968 0 1.83329 0H6.4998C6.67661 0 6.84617 0.070238 6.97119 0.195262C7.09621 0.320287 7.16645 0.489856 7.16645 0.666667C7.16645 0.843478 7.09621 1.01305 6.97119 1.13807C6.84617 1.2631 6.67661 1.33333 6.4998 1.33333H1.83329V14.6667H6.4998C6.67661 14.6667 6.84617 14.7369 6.97119 14.8619C7.09621 14.987 7.16645 15.1565 7.16645 15.3333ZM16.3045 7.52833L12.9713 4.195C12.878 4.10166 12.7592 4.03808 12.6298 4.01231C12.5004 3.98655 12.3663 3.99975 12.2444 4.05025C12.1225 4.10075 12.0184 4.18628 11.9451 4.29601C11.8719 4.40574 11.8329 4.53474 11.833 4.66667V7.33333H6.4998C6.323 7.33333 6.15343 7.40357 6.02841 7.5286C5.90339 7.65362 5.83316 7.82319 5.83316 8C5.83316 8.17681 5.90339 8.34638 6.02841 8.47141C6.15343 8.59643 6.323 8.66667 6.4998 8.66667H11.833V11.3333C11.8329 11.4653 11.8719 11.5943 11.9451 11.704C12.0184 11.8137 12.1225 11.8992 12.2444 11.9497C12.3663 12.0002 12.5004 12.0135 12.6298 11.9877C12.7592 11.9619 12.878 11.8983 12.9713 11.805L16.3045 8.47167C16.3665 8.40975 16.4156 8.33623 16.4492 8.25529C16.4827 8.17436 16.5 8.08761 16.5 8C16.5 7.91239 16.4827 7.82564 16.4492 7.74471C16.4156 7.66377 16.3665 7.59025 16.3045 7.52833Z" fill="#FCFCFC"/>
</svg>