<svg width="23" height="22" viewBox="0 0 23 22" fill="none" xmlns="http://www.w3.org/2000/svg">
<path d="M7.78113 17.8495C7.54219 18.077 7.55226 18.4612 7.80278 18.6759C8.01906 18.8613 8.34034 18.8537 8.5476 18.6583L16.668 11.002L8.5476 3.3456C8.34034 3.15019 8.01906 3.14258 7.80278 3.32796C7.55226 3.5427 7.54219 3.92689 7.78113 4.15445L14.971 11.002L7.78113 17.8495Z" fill="#FCFCFC"/>
<path d="M1.76941 17.8495C1.53047 18.077 1.54054 18.4612 1.79106 18.6759C2.00734 18.8613 2.32862 18.8537 2.53588 18.6583L10.6562 11.002L2.53588 3.3456C2.32862 3.15019 2.00734 3.14258 1.79106 3.32796C1.54054 3.5427 1.53047 3.92689 1.76941 4.15445L8.95928 11.002L1.76941 17.8495Z" fill="#FCFCFC"/>
</svg>
