<svg width="21" height="12" viewBox="0 0 21 12" fill="none" xmlns="http://www.w3.org/2000/svg">
<path d="M2.39895 7.26331C2.30943 7.50773 2.12812 7.70761 1.89357 7.82047C1.65902 7.93334 1.3897 7.9503 1.14283 7.86775C0.895973 7.78521 0.691027 7.60966 0.571542 7.3784C0.452057 7.14715 0.427452 6.87842 0.502953 6.62931C0.482953 6.68931 0.502953 6.62731 0.502953 6.62731C0.538517 6.51719 0.579909 6.40904 0.626953 6.30331C0.706953 6.11331 0.824953 5.85131 0.986953 5.54131C1.31695 4.92131 1.83095 4.09531 2.58895 3.26931C4.11895 1.59931 6.62495 -0.0546875 10.451 -0.0546875C14.277 -0.0546875 16.783 1.59931 18.313 3.26931C19.1296 4.16526 19.7919 5.19052 20.273 6.30331L20.365 6.52931C20.371 6.54531 20.391 6.64931 20.411 6.74931L20.451 6.94531C20.451 6.94531 20.619 7.61131 19.767 7.89331C19.516 7.9771 19.2422 7.95806 19.0053 7.84036C18.7684 7.72266 18.5877 7.51589 18.503 7.26531V7.25931L18.491 7.22731C18.3905 6.97039 18.2756 6.71933 18.147 6.47531C17.7913 5.80435 17.3518 5.18135 16.839 4.62131C15.619 3.29131 13.625 1.94531 10.451 1.94531C7.27695 1.94531 5.28295 3.29131 4.06295 4.62131C3.40243 5.34545 2.86529 6.17313 2.47295 7.07131C2.45197 7.12293 2.43197 7.17494 2.41295 7.22731L2.39895 7.26331ZM6.45095 7.94531C6.45095 6.88445 6.87238 5.86703 7.62253 5.11689C8.37267 4.36674 9.39009 3.94531 10.451 3.94531C11.5118 3.94531 12.5292 4.36674 13.2794 5.11689C14.0295 5.86703 14.451 6.88445 14.451 7.94531C14.451 9.00618 14.0295 10.0236 13.2794 10.7737C12.5292 11.5239 11.5118 11.9453 10.451 11.9453C9.39009 11.9453 8.37267 11.5239 7.62253 10.7737C6.87238 10.0236 6.45095 9.00618 6.45095 7.94531Z" fill="#FCFCFC"/>
</svg>
