<svg width="12" height="12" viewBox="0 0 12 12" fill="none" xmlns="http://www.w3.org/2000/svg">
<path d="M5.59851 12C5.44981 12 5.32342 11.9551 5.21933 11.8652C5.13011 11.7603 5.0855 11.633 5.0855 11.4831V6.80899H0.513011C0.364312 6.80899 0.237918 6.76405 0.133829 6.67416C0.0446096 6.56929 0 6.44195 0 6.29214V5.57303C0 5.42322 0.0446096 5.30337 0.133829 5.21348C0.237918 5.10861 0.364312 5.05618 0.513011 5.05618H5.0855V0.516854C5.0855 0.367041 5.13011 0.247191 5.21933 0.157304C5.32342 0.0524347 5.44981 0 5.59851 0H6.37918C6.52788 0 6.64684 0.0524347 6.73606 0.157304C6.84015 0.247191 6.89219 0.367041 6.89219 0.516854V5.05618H11.487C11.6357 5.05618 11.7546 5.10861 11.8439 5.21348C11.948 5.30337 12 5.42322 12 5.57303V6.29214C12 6.44195 11.948 6.56929 11.8439 6.67416C11.7546 6.76405 11.6357 6.80899 11.487 6.80899H6.89219V11.4831C6.89219 11.633 6.84015 11.7603 6.73606 11.8652C6.64684 11.9551 6.52788 12 6.37918 12H5.59851Z" fill="#FCFCFC"/>
</svg>
