<svg width="17" height="20" viewBox="0 0 17 20" fill="none" xmlns="http://www.w3.org/2000/svg">
<path fill-rule="evenodd" clip-rule="evenodd" d="M16.6661 3.99987C16.6661 6.62578 12.4746 7.99974 8.33306 7.99974C4.19153 7.99974 0 6.62578 0 3.99987C0 1.37396 4.19153 0 8.33306 0C12.4746 0 16.6661 1.37396 16.6661 3.99987ZM8.33306 11.9988C4.19153 11.9988 0 10.6249 0 7.99896L0 5.99902C0 8.62494 4.19153 9.99889 8.33306 9.99889C12.4746 9.99889 16.6661 8.62494 16.6661 5.99902V7.99896C16.6661 10.6249 12.4746 11.9988 8.33306 11.9988ZM0 11.9999C0 14.6258 4.19153 15.9998 8.33306 15.9998C12.4746 15.9998 16.6661 14.6258 16.6661 11.9999V10C16.6661 12.6259 12.4746 13.9999 8.33306 13.9999C4.19153 13.9999 0 12.6259 0 10L0 11.9999ZM8.33306 19.9998C4.19153 19.9998 0 18.6258 0 15.9999L0 14C0 16.6259 4.19153 17.9999 8.33306 17.9999C12.4746 17.9999 16.6661 16.6259 16.6661 14V15.9999C16.6661 18.6258 12.4746 19.9998 8.33306 19.9998Z" fill="#FCFCFC"/>
</svg>
