<svg xmlns="http://www.w3.org/2000/svg" width="17" height="16" viewBox="0 0 17 16" fill="none">
  <path d="M12.9247 14.6667C13.4057 14.6667 13.8496 14.4079 14.0866 13.9893V13.9893C14.3393 13.543 14.3115 12.9908 13.9379 12.6395C13.135 11.8844 11.4501 10.7083 8.74475 10.7083C6.04455 10.7083 4.4423 11.8799 3.68998 12.6351C3.33465 12.9918 3.32111 13.5321 3.56917 13.9702V13.9702" stroke="#FCFCFC" stroke-width="1.5" stroke-linecap="round" stroke-linejoin="round"/>
  <path d="M8.83329 7.62963C10.3981 7.62963 11.6666 6.36939 11.6666 4.81482C11.6666 3.26024 10.3981 2 8.83329 2C7.26849 2 5.99996 3.26024 5.99996 4.81482C5.99996 6.36939 7.26849 7.62963 8.83329 7.62963Z" stroke="#FCFCFC" stroke-width="1.5" stroke-linecap="round" stroke-linejoin="round"/>
</svg>