<svg width="18" height="14" viewBox="0 0 18 14" fill="none" xmlns="http://www.w3.org/2000/svg">
<path d="M13.9346 0.333252C16.8087 0.333252 17.3346 1.82813 17.3346 4.33932H13.8087V4.36494C12.1723 4.36494 10.8457 5.51218 10.8457 6.92738C10.8457 8.34257 12.1723 9.48981 13.8087 9.48981H17.3346V9.72043C17.3346 12.1996 16.8087 13.6666 13.9346 13.6666H3.97908C1.10501 13.6666 0.667969 12.1996 0.667969 9.72043V3.78199C0.667969 1.30283 1.10501 0.361135 3.97908 0.361135L13.9346 0.333252ZM16.7124 5.44116C17.0561 5.44116 17.3346 5.68209 17.3346 5.97928V7.84985C17.3306 8.1456 17.0544 8.38451 16.7124 8.38797H13.8754C13.047 8.39761 12.3225 7.90708 12.1346 7.20924C12.0405 6.77606 12.1726 6.32905 12.4955 5.98802C12.8184 5.647 13.2991 5.44683 13.8087 5.44116H16.7124ZM14.2087 6.30599H13.9346C13.7664 6.30427 13.6043 6.36089 13.4846 6.46319C13.3649 6.56549 13.2976 6.70497 13.2976 6.8505C13.2976 7.15582 13.5816 7.40432 13.9346 7.40783H14.2087C14.5605 7.40783 14.8457 7.16118 14.8457 6.85691C14.8457 6.55264 14.5605 6.30599 14.2087 6.30599ZM9.31982 3.23747H4.61612C4.26716 3.23745 3.98314 3.48022 3.97908 3.78199C3.97908 4.08731 4.2631 4.33581 4.61612 4.33932H9.31982C9.67165 4.33932 9.95686 4.09266 9.95686 3.78839C9.95686 3.48413 9.67165 3.23747 9.31982 3.23747Z" fill="#FCFCFC"/>
</svg>
