<svg width="10" height="8" viewBox="0 0 10 8" fill="none" xmlns="http://www.w3.org/2000/svg">
<path d="M7.96 0C9.68444 0 10 0.896926 10 2.40364H7.88444V2.41901C6.9026 2.41901 6.10667 3.10736 6.10667 3.95648C6.10667 4.80559 6.9026 5.49394 7.88444 5.49394H10V5.63231C10 7.1198 9.68444 8 7.96 8H1.98667C0.262222 8 0 7.1198 0 5.63231V2.06924C0 0.581747 0.262222 0.0167297 1.98667 0.0167297L7.96 0ZM9.62667 3.06475C9.83285 3.06475 10 3.2093 10 3.38761V4.50996C9.9976 4.68741 9.83185 4.83075 9.62667 4.83283H7.92444C7.42739 4.83861 6.99274 4.5443 6.88 4.1256C6.82354 3.86568 6.9028 3.59748 7.09653 3.39286C7.29027 3.18825 7.57867 3.06815 7.88444 3.06475H9.62667ZM8.12444 3.58364H7.96C7.85904 3.58261 7.7618 3.61658 7.68999 3.67796C7.61818 3.73934 7.57778 3.82303 7.57778 3.91035C7.57776 4.09354 7.74819 4.24264 7.96 4.24475H8.12444C8.33554 4.24475 8.50667 4.09676 8.50667 3.9142C8.50667 3.73164 8.33554 3.58364 8.12444 3.58364ZM5.19111 1.74253H2.36889C2.15952 1.74252 1.9891 1.88818 1.98667 2.06924C1.98667 2.25243 2.15708 2.40153 2.36889 2.40364H5.19111C5.40221 2.40364 5.57333 2.25564 5.57333 2.07308C5.57333 1.89052 5.40221 1.74253 5.19111 1.74253Z" fill="#FCFCFC"/>
</svg>
