<svg width="49" height="51" viewBox="0 0 49 51" fill="none" xmlns="http://www.w3.org/2000/svg">
<path fill-rule="evenodd" clip-rule="evenodd" d="M46.2 25.5001C46.2 37.4879 36.4846 47.2059 24.5 47.2059C12.5154 47.2059 2.8 37.4879 2.8 25.5001C2.8 13.5122 12.5154 3.79417 24.5 3.79417C36.4846 3.79417 46.2 13.5122 46.2 25.5001ZM49 25.5001C49 39.0347 38.031 50.0067 24.5 50.0067C10.969 50.0067 0 39.0347 0 25.5001C0 11.9654 10.969 0.993408 24.5 0.993408C38.031 0.993408 49 11.9654 49 25.5001ZM22.6784 39.1892C22.9213 39.399 23.2162 39.5039 23.5632 39.5039H25.3848C25.7317 39.5039 26.0093 39.399 26.2175 39.1892C26.4603 38.9445 26.5818 38.6473 26.5818 38.2976V27.3883H37.303C37.6499 27.3883 37.9275 27.2834 38.1357 27.0736C38.3786 26.8288 38.5 26.5316 38.5 26.182V24.5036C38.5 24.154 38.3786 23.8742 38.1357 23.6644C37.9275 23.4197 37.6499 23.2973 37.303 23.2973H26.5818V12.7027C26.5818 12.353 26.4603 12.0733 26.2175 11.8635C26.0093 11.6187 25.7317 11.4963 25.3848 11.4963H23.5632C23.2162 11.4963 22.9213 11.6187 22.6784 11.8635C22.4703 12.0733 22.3662 12.353 22.3662 12.7027V23.2973H11.697C11.3501 23.2973 11.0551 23.4197 10.8123 23.6644C10.6041 23.8742 10.5 24.154 10.5 24.5036V26.182C10.5 26.5316 10.6041 26.8288 10.8123 27.0736C11.0551 27.2834 11.3501 27.3883 11.697 27.3883H22.3662V38.2976C22.3662 38.6473 22.4703 38.9445 22.6784 39.1892Z" fill="url(#paint0_linear_10061_31716)"/>
<defs>
<linearGradient id="paint0_linear_10061_31716" x1="24.494" y1="50.0167" x2="24.494" y2="0.998393" gradientUnits="userSpaceOnUse">
<stop stop-color="#FFBF00"/>
<stop offset="1" stop-color="#E843C4"/>
</linearGradient>
</defs>
</svg>
