<svg width="32" height="33" viewBox="0 0 32 33" fill="none" xmlns="http://www.w3.org/2000/svg">
<path fill-rule="evenodd" clip-rule="evenodd" d="M28.5068 26.6315L26.1314 29.007C25.5723 29.5655 24.6645 29.6356 24.0348 29.1463L21.6593 27.3995C21.2048 27.5742 20.9252 27.6966 20.6454 27.819C20.3663 27.9411 20.087 28.0633 19.6334 28.2378L19.2142 31.1723C19.1446 31.941 18.4457 32.5 17.6771 32.5H14.3235C13.5549 32.5 12.9262 31.9409 12.7863 31.1723L12.3672 28.2378C11.9126 28.0631 11.6331 27.9408 11.3532 27.8184C11.0742 27.6963 10.7948 27.574 10.3412 27.3995L7.96576 29.1463C7.33705 29.6351 6.42856 29.5654 5.86954 29.0064L3.49409 26.6309C2.93507 26.0719 2.86489 25.1634 3.35421 24.5347L5.10096 22.1593C4.92624 21.7047 4.80394 21.4252 4.6815 21.1453C4.55939 20.8663 4.43716 20.5869 4.26267 20.1333L1.32814 19.7142C0.559509 19.6445 0.000489277 18.9456 0.000489277 18.177L0 14.7533C0 13.9847 0.559059 13.356 1.32765 13.2161L4.26306 12.8667C4.43778 12.4121 4.56008 12.1326 4.68252 11.8528C4.80462 11.5737 4.92686 11.2943 5.10134 10.8407L3.3546 8.46527C2.86576 7.83657 2.93546 6.92807 3.49448 6.36905L5.86993 3.9936C6.42901 3.43458 7.33743 3.3644 7.96615 3.85373L10.3416 5.60047C10.7962 5.42575 11.0757 5.30345 11.3555 5.18101C11.6346 5.05891 11.914 4.93667 12.3676 4.76218L12.7867 1.82765C12.8563 1.05902 13.5553 0.5 14.3238 0.5H17.6775C18.446 0.5 19.0747 1.05906 19.2146 1.82765L19.6338 4.76218C20.0883 4.9369 20.3679 5.05921 20.6477 5.18164C20.9268 5.30375 21.2061 5.42598 21.6597 5.60047L24.0352 3.85472C24.6639 3.36589 25.5724 3.43558 26.1314 3.9946L28.5068 6.37005C29.0659 6.92913 29.136 7.83755 28.6467 8.46627L26.9 10.8417C27.0747 11.2963 27.197 11.5758 27.3194 11.8557C27.4415 12.1347 27.5638 12.4141 27.7383 12.8677L30.6728 13.2868C31.4414 13.3565 32.0004 14.0554 32.0004 14.824V18.1776C32.0004 18.9461 31.4414 19.5749 30.6728 19.7147L27.7383 20.1339C27.5635 20.5885 27.4412 20.868 27.3188 21.1478C27.1967 21.4269 27.0745 21.7062 26.9 22.1599L28.6467 24.5353C29.1356 25.164 29.0659 26.0725 28.5068 26.6315ZM15.2689 25.9507C15.3525 26.0502 15.4709 26.1 15.6241 26.1H16.4182C16.5575 26.1 16.6689 26.0502 16.7525 25.9507C16.85 25.8653 16.8988 25.7516 16.8988 25.6093V24.1373C17.86 24.052 18.6888 23.8316 19.3853 23.476C20.0958 23.1204 20.6391 22.644 21.0152 22.0467C21.4052 21.4493 21.6003 20.7453 21.6003 19.9347C21.6003 19.124 21.4261 18.4627 21.0779 17.9507C20.7435 17.4244 20.2212 16.9907 19.5107 16.6493C18.8003 16.2938 17.8878 15.9596 16.7734 15.6467C15.854 15.3764 15.1087 15.1204 14.5376 14.8787C13.9664 14.6369 13.5485 14.3596 13.2838 14.0467C13.0192 13.7196 12.8868 13.3142 12.8868 12.8307C12.8868 12.0769 13.1654 11.5222 13.7226 11.1667C14.2938 10.8111 15.0321 10.6333 15.9376 10.6333C16.8291 10.6333 17.5535 10.8324 18.1107 11.2307C18.6679 11.6289 18.9883 12.1196 19.0719 12.7027C19.1276 12.8591 19.2042 12.9658 19.3017 13.0227C19.4132 13.0796 19.5177 13.108 19.6152 13.108H20.7226C20.8759 13.108 20.9873 13.0653 21.057 12.98C21.1266 12.8804 21.1614 12.7809 21.1614 12.6813C21.1475 12.1693 20.9804 11.6431 20.66 11.1027C20.3396 10.5622 19.8659 10.0858 19.2391 9.67333C18.6122 9.26089 17.8321 8.99778 16.8988 8.884V7.39067C16.8988 7.24844 16.85 7.13467 16.7525 7.04933C16.6689 6.94978 16.5575 6.9 16.4182 6.9H15.6241C15.4709 6.9 15.3525 6.94978 15.2689 7.04933C15.1853 7.13467 15.1435 7.24844 15.1435 7.39067V8.86267C13.7644 8.99067 12.6988 9.43155 11.9465 10.1853C11.1943 10.9249 10.8182 11.8138 10.8182 12.852C10.8182 13.6627 10.9784 14.3311 11.2988 14.8573C11.6331 15.3836 12.1346 15.8244 12.8032 16.18C13.4719 16.5356 14.3147 16.8627 15.3316 17.1613C16.3067 17.4458 17.1008 17.7089 17.7137 17.9507C18.3266 18.1924 18.7794 18.4698 19.0719 18.7827C19.3784 19.0813 19.5316 19.4796 19.5316 19.9773C19.5316 20.7027 19.246 21.2858 18.6749 21.7267C18.1177 22.1533 17.2401 22.3667 16.042 22.3667C15.2619 22.3667 14.6212 22.26 14.1197 22.0467C13.6321 21.8191 13.256 21.5418 12.9913 21.2147C12.7266 20.8733 12.5525 20.532 12.4689 20.1907C12.4411 20.0769 12.3853 19.9773 12.3017 19.892C12.2182 19.8067 12.0928 19.764 11.9256 19.764H10.86C10.7346 19.764 10.6231 19.8138 10.5256 19.9133C10.442 19.9987 10.4003 20.0982 10.4003 20.212C10.4281 20.8378 10.6231 21.428 10.9853 21.9827C11.3475 22.5373 11.8769 23.0138 12.5734 23.412C13.2699 23.796 14.1266 24.0307 15.1435 24.116V25.6093C15.1435 25.7516 15.1853 25.8653 15.2689 25.9507Z" fill="url(#paint0_linear_7334_93855)"/>
<defs>
<linearGradient id="paint0_linear_7334_93855" x1="15.9963" y1="32.5065" x2="15.9963" y2="0.503254" gradientUnits="userSpaceOnUse">
<stop stop-color="#FFBF00"/>
<stop offset="1" stop-color="#E843C4"/>
</linearGradient>
</defs>
</svg>
