<svg width="21" height="22" viewBox="0 0 21 22" fill="none" xmlns="http://www.w3.org/2000/svg">
<path d="M18.7248 11C18.7248 10.5371 18.6616 10.1162 18.5985 9.67435L20.3661 8.13828C20.7448 7.8016 20.829 7.25451 20.5765 6.81263L19.335 4.66633C19.216 4.45499 19.0261 4.29257 18.7989 4.20784C18.5717 4.12311 18.3218 4.12154 18.0935 4.20341L15.863 4.96092C15.1897 4.39279 14.4322 3.9509 13.5905 3.63527L13.1276 1.34168C13.078 1.10458 12.9486 0.891671 12.7609 0.73849C12.5733 0.585308 12.3387 0.501128 12.0965 0.5H9.61355C9.10854 0.5 8.6877 0.857715 8.58249 1.34168L8.11956 3.63527C7.27788 3.9509 6.52037 4.39279 5.84702 4.96092L3.61656 4.20341C3.38802 4.12493 3.13934 4.12818 2.91294 4.2126C2.68653 4.29702 2.49643 4.45738 2.37507 4.66633L1.13359 6.81263C0.881088 7.25451 0.965256 7.8016 1.34401 8.13828L3.11155 9.67435C3.04842 10.1162 2.9853 10.5371 2.9853 11C2.9853 11.4629 3.04842 11.8838 3.11155 12.3257L1.34401 13.8617C0.965256 14.1984 0.881088 14.7455 1.13359 15.1874L2.37507 17.3337C2.62758 17.7756 3.15363 17.9649 3.61656 17.7966L5.84702 17.0391C6.52037 17.6072 7.27788 18.0491 8.11956 18.3647L8.58249 20.6583C8.6877 21.1423 9.10854 21.5 9.61355 21.5H12.0965C12.6015 21.5 13.0224 21.1423 13.1276 20.6583L13.5905 18.3647C14.4322 18.0491 15.1897 17.6072 15.863 17.0391L18.0935 17.7966C18.5775 17.9649 19.0825 17.7545 19.335 17.3337L20.5765 15.1874C20.829 14.7455 20.7448 14.1984 20.3661 13.8617L18.5985 12.3257C18.6616 11.8838 18.7248 11.4629 18.7248 11ZM10.834 15.2084C8.51936 15.2084 6.62558 13.3146 6.62558 11C6.62558 8.68537 8.51936 6.79158 10.834 6.79158C13.1486 6.79158 15.0424 8.68537 15.0424 11C15.0424 13.3146 13.1486 15.2084 10.834 15.2084Z" fill="url(#paint0_linear_10061_31690)"/>
<defs>
<linearGradient id="paint0_linear_10061_31690" x1="10.8526" y1="21.5043" x2="10.8526" y2="0.502136" gradientUnits="userSpaceOnUse">
<stop stop-color="#FFBF00"/>
<stop offset="1" stop-color="#E843C4"/>
</linearGradient>
</defs>
</svg>
