<svg width="24" height="24" viewBox="0 0 24 24" fill="none" xmlns="http://www.w3.org/2000/svg">
<path fill-rule="evenodd" clip-rule="evenodd" d="M12 0C5.37258 0 0 5.37258 0 12C0 18.6274 5.37258 24 12 24C18.6274 24 24 18.6274 24 12C24 5.37258 18.6274 0 12 0ZM12.0024 5.9668C11.4926 5.9668 11.0793 6.38007 11.0793 6.88987C11.0793 7.39968 11.4926 7.81295 12.0024 7.81295H12.0135C12.5233 7.81295 12.9366 7.39968 12.9366 6.88987C12.9366 6.38007 12.5233 5.9668 12.0135 5.9668H12.0024ZM8.85938 10.8918C8.85938 10.382 9.27265 9.96875 9.78245 9.96875H11.9978C12.5076 9.96875 12.9209 10.382 12.9209 10.8918V15.5088H14.2132C14.723 15.5088 15.1363 15.9221 15.1363 16.4319C15.1363 16.9417 14.723 17.3549 14.2132 17.3549H9.78245C9.27265 17.3549 8.85938 16.9417 8.85938 16.4319C8.85938 15.9221 9.27265 15.5088 9.78245 15.5088H11.0748V11.8149H9.78245C9.27265 11.8149 8.85938 11.4016 8.85938 10.8918Z" fill="url(#paint0_linear_7644_98383)"/>
<defs>
<linearGradient id="paint0_linear_7644_98383" x1="11.9971" y1="24.0049" x2="11.9971" y2="0.0024407" gradientUnits="userSpaceOnUse">
<stop stop-color="#FFBF00"/>
<stop offset="1" stop-color="#E843C4"/>
</linearGradient>
</defs>
</svg>
