<svg xmlns="http://www.w3.org/2000/svg" width="16" height="19" viewBox="0 0 16 19" fill="none">
  <path fill-rule="evenodd" clip-rule="evenodd" d="M12.1014 1.35191C12.2106 1.07419 12.1043 0.760165 11.8467 0.599549C11.5891 0.438934 11.2508 0.47575 11.0362 0.687756L1.0727 10.5306C0.890075 10.7111 0.836783 10.9803 0.937515 11.2136C1.03825 11.4469 1.27333 11.5987 1.53385 11.5987H6.17091L3.51658 17.6252C3.39594 17.8991 3.49011 18.2176 3.742 18.3876C3.99389 18.5577 4.33416 18.5325 4.55655 18.3273L14.9118 8.77163C15.1036 8.59468 15.165 8.32214 15.0669 8.08359C14.9688 7.84503 14.7309 7.68856 14.4664 7.68856H9.60965L12.1014 1.35191Z" fill="url(#paint0_linear_1062_1193)"/>
  <defs>
    <linearGradient id="paint0_linear_1062_1193" x1="0.887207" y1="10.4863" x2="15.113" y2="10.4863" gradientUnits="userSpaceOnUse">
      <stop stop-color="#E843C4"/>
      <stop offset="1" stop-color="#FFBF00"/>
    </linearGradient>
  </defs>
</svg>