<svg width="22" height="22" viewBox="0 0 22 22" fill="none" xmlns="http://www.w3.org/2000/svg">
<path d="M21.0898 11.0977C21.0898 13.0755 20.5033 15.0089 19.4045 16.6534C18.3057 18.2979 16.7439 19.5796 14.9167 20.3364C13.0894 21.0933 11.0787 21.2914 9.13893 20.9055C7.19913 20.5197 5.4173 19.5672 4.01878 18.1687C2.62025 16.7702 1.66785 14.9884 1.282 13.0486C0.896144 11.1088 1.09418 9.0981 1.85105 7.27084C2.60793 5.44358 3.88965 3.8818 5.53414 2.78298C7.17863 1.68417 9.11202 1.09768 11.0898 1.09768C12.4039 1.09461 13.7057 1.35117 14.9203 1.85263C16.1349 2.35409 17.2385 3.09056 18.1677 4.01976C19.0969 4.94896 19.8334 6.05257 20.3349 7.26721C20.8363 8.48185 21.0929 9.78359 21.0898 11.0977Z" fill="url(#paint0_linear_11822_72823)" stroke="url(#paint1_linear_11822_72823)"/>
<path d="M12.7784 14.8451H9.37839C8.25493 14.8325 7.15137 15.142 6.19825 15.7369C5.24512 16.3317 4.4823 17.1871 4 18.2019C5.90342 20.0203 8.44138 21.0241 11.0737 20.9996C13.706 20.975 16.2248 19.9241 18.094 18.0705C17.5977 17.09 16.8367 16.2681 15.8972 15.6981C14.9577 15.128 13.8772 14.8325 12.7784 14.8451ZM11.0784 6C9.01761 6 7.35291 7.58823 7.35291 9.52939C7.35291 11.4706 9.01957 13.0588 11.0784 13.0588C13.1372 13.0588 14.8038 11.4706 14.8038 9.52939C14.8038 7.58823 13.1372 6 11.0784 6Z" fill="#1E1322"/>
<path d="M21.0898 11.0977C21.0898 13.0755 20.5033 15.0089 19.4045 16.6534C18.3057 18.2979 16.7439 19.5796 14.9167 20.3364C13.0894 21.0933 11.0787 21.2914 9.13893 20.9055C7.19913 20.5197 5.4173 19.5672 4.01878 18.1687C2.62025 16.7702 1.66785 14.9884 1.282 13.0486C0.896144 11.1088 1.09418 9.0981 1.85105 7.27084C2.60793 5.44358 3.88965 3.8818 5.53414 2.78298C7.17863 1.68417 9.11202 1.09768 11.0898 1.09768C12.4039 1.09461 13.7057 1.35117 14.9203 1.85263C16.1349 2.35409 17.2385 3.09056 18.1677 4.01976C19.0969 4.94896 19.8334 6.05257 20.3349 7.26721C20.8363 8.48185 21.0929 9.78359 21.0898 11.0977V11.0977Z" stroke="url(#paint2_linear_11822_72823)"/>
<defs>
<linearGradient id="paint0_linear_11822_72823" x1="11.0874" y1="21.1017" x2="11.0874" y2="1.09969" gradientUnits="userSpaceOnUse">
<stop stop-color="#FFBF00"/>
<stop offset="1" stop-color="#E843C4"/>
</linearGradient>
<linearGradient id="paint1_linear_11822_72823" x1="11.0874" y1="21.1017" x2="11.0874" y2="1.09969" gradientUnits="userSpaceOnUse">
<stop stop-color="#FFBF00"/>
<stop offset="1" stop-color="#E843C4"/>
</linearGradient>
<linearGradient id="paint2_linear_11822_72823" x1="11.0874" y1="21.1017" x2="11.0874" y2="1.09969" gradientUnits="userSpaceOnUse">
<stop stop-color="#FFBF00"/>
<stop offset="1" stop-color="#E843C4"/>
</linearGradient>
</defs>
</svg>
