<svg width="56" height="39" viewBox="0 0 56 39" fill="none" xmlns="http://www.w3.org/2000/svg">
<path fill-rule="evenodd" clip-rule="evenodd" d="M45.5269 24.4557C46.1874 24.9515 47.1248 24.818 47.6206 24.1574L55.7003 13.3933C56.1961 12.7328 56.0626 11.7954 55.4021 11.2995C54.7415 10.8037 53.8041 10.9373 53.3083 11.5978L47.3074 19.5925C45.9285 12.8974 43.5848 8.28849 40.653 5.23547C37.2132 1.65354 33.1052 0.359993 29.232 0.22335C25.3958 0.0880086 21.774 1.08255 19.1525 2.07818C17.8331 2.57926 16.7458 3.08882 15.9845 3.47527C15.6034 3.66871 15.3027 3.83194 15.0942 3.94871C14.9899 4.00712 14.9086 4.05396 14.8516 4.08722L14.7846 4.12669L14.7651 4.13833L14.759 4.14204L14.7568 4.14336C14.7559 4.14387 14.7552 4.14432 15.5306 5.42304L14.7552 4.14432C14.049 4.57257 13.8236 5.49224 14.2519 6.19846C14.6799 6.90435 15.5989 7.12981 16.305 6.70237L16.3056 6.70203L16.306 6.70177L16.3145 6.69671L16.3596 6.67012C16.4017 6.64555 16.4675 6.60764 16.5555 6.55834C16.7316 6.45973 16.9964 6.31582 17.3383 6.14227C18.023 5.79473 19.0121 5.33088 20.2144 4.87424C22.6362 3.95446 25.8388 3.09642 29.1266 3.21241C32.3775 3.3271 35.6932 4.38881 38.4957 7.30712C40.8767 9.78658 42.9851 13.7082 44.2926 19.7895L36.5582 13.984C35.8977 13.4882 34.9603 13.6217 34.4644 14.2822C33.9686 14.9428 34.1022 15.8802 34.7627 16.376L45.5269 24.4557ZM10.473 14.5445C9.81247 14.0487 8.87506 14.1822 8.37925 14.8428L0.299532 25.6069C-0.196279 26.2675 -0.0627413 27.2049 0.597802 27.7007C1.25834 28.1965 2.19575 28.0629 2.69156 27.4024L8.69246 19.4078C10.0713 26.1028 12.4151 30.7117 15.3469 33.7648C18.7866 37.3467 22.8947 38.6402 26.7678 38.7769C30.6041 38.9122 34.2259 37.9177 36.8474 36.922C38.1667 36.421 39.254 35.9114 40.0154 35.525C40.3965 35.3315 40.6971 35.1683 40.9057 35.0515C41.01 34.9931 41.0913 34.9463 41.1483 34.913L41.2153 34.8735L41.2347 34.8619L41.2409 34.8582L41.2431 34.8569C41.2439 34.8563 41.2447 34.8559 40.4693 33.5772L41.2447 34.8559C41.9509 34.4277 42.1762 33.508 41.748 32.8018C41.3199 32.0959 40.4009 31.8704 39.6948 32.2979L39.6943 32.2982L39.6939 32.2985L39.6854 32.3035L39.6402 32.3301C39.5981 32.3547 39.5324 32.3926 39.4443 32.4419C39.2682 32.5405 39.0035 32.6844 38.6616 32.858C37.9769 33.2055 36.9878 33.6693 35.7855 34.126C33.3637 35.0458 30.1611 35.9038 26.8733 35.7878C23.6224 35.6731 20.3066 34.6114 17.5042 31.6931C15.1231 29.2136 13.0148 25.292 11.7073 19.2107L19.4417 25.0163C20.1022 25.5121 21.0396 25.3785 21.5354 24.718C22.0312 24.0574 21.8977 23.12 21.2371 22.6242L10.473 14.5445Z" fill="url(#paint0_linear_10061_31706)"/>
<defs>
<linearGradient id="paint0_linear_10061_31706" x1="27.9931" y1="38.7971" x2="27.9931" y2="0.214861" gradientUnits="userSpaceOnUse">
<stop stop-color="#FFBF00"/>
<stop offset="1" stop-color="#E843C4"/>
</linearGradient>
</defs>
</svg>
