<svg width="49" height="49" viewBox="0 0 49 49" fill="none" xmlns="http://www.w3.org/2000/svg">
<path fill-rule="evenodd" clip-rule="evenodd" d="M46.2 24.5C46.2 36.4846 36.4846 46.2 24.5 46.2C12.5154 46.2 2.8 36.4846 2.8 24.5C2.8 12.5154 12.5154 2.8 24.5 2.8C36.4846 2.8 46.2 12.5154 46.2 24.5ZM49 24.5C49 38.031 38.031 49 24.5 49C10.969 49 0 38.031 0 24.5C0 10.969 10.969 0 24.5 0C38.031 0 49 10.969 49 24.5ZM22.6784 26.25H23.5632H25.3848H26.2175H26.5818H37.303C37.6499 26.25 37.9275 26.1603 38.1357 25.9808C38.3786 25.7714 38.5 25.5171 38.5 25.2179V23.7821C38.5 23.4829 38.3786 23.2436 38.1357 23.0641C37.9275 22.8547 37.6499 22.75 37.303 22.75H26.5818H26.2175H25.3848H23.502H22.6784H22.3662H11.697C11.3501 22.75 11.0551 22.8547 10.8123 23.0641C10.6041 23.2436 10.5 23.4829 10.5 23.7821V25.2179C10.5 25.5171 10.6041 25.7714 10.8123 25.9808C11.0551 26.1603 11.3501 26.25 11.697 26.25H22.3662H22.6784Z" fill="url(#paint0_linear_10061_31730)"/>
<defs>
<linearGradient id="paint0_linear_10061_31730" x1="24.494" y1="49.0099" x2="24.494" y2="0.0049831" gradientUnits="userSpaceOnUse">
<stop stop-color="#FFBF00"/>
<stop offset="1" stop-color="#E843C4"/>
</linearGradient>
</defs>
</svg>
