<svg width="34" height="34" viewBox="0 0 34 34" fill="none" xmlns="http://www.w3.org/2000/svg">
<path fill-rule="evenodd" clip-rule="evenodd" d="M6.28571 0.5H26.8571C28.1195 0.5 29.1429 1.52335 29.1429 2.78571V19.0729C28.1644 18.7025 27.1055 18.5 26 18.5C21.0293 18.5 17 22.5933 17 27.6429C17 29.4275 17.5033 31.0927 18.3736 32.5H6.28571C5.02335 32.5 4 31.4767 4 30.2143V2.78571C4 1.52335 5.02335 0.5 6.28571 0.5ZM7.57143 6.5C7.57143 5.94772 8.01914 5.5 8.57143 5.5H8.59514H8.61887H8.6426H8.66635H8.6901H8.71387H8.73764H8.76142H8.78522H8.80902H8.83283H8.85665H8.88048H8.90432H8.92817H8.95203H8.9759H8.99978H9.02367H9.04756H9.07147H9.09538H9.1193H9.14323H9.16718H9.19113H9.21508H9.23905H9.26303H9.28701H9.31101H9.33501H9.35902H9.38304H9.40707H9.43111H9.45515H9.4792H9.50327H9.52734H9.55142H9.5755H9.5996H9.6237H9.64781H9.67193H9.69606H9.7202H9.74434H9.7685H9.79266H9.81682H9.841H9.86518H9.88937H9.91357H9.93778H9.962H9.98622H10.0104H10.0347H10.0589H10.0832H10.1074H10.1317H10.156H10.1803H10.2046H10.2289H10.2532H10.2775H10.3018H10.3261H10.3504H10.3748H10.3991H10.4235H10.4478H10.4722H10.4966H10.521H10.5454H10.5697H10.5941H10.6186H10.643H10.6674H10.6918H10.7163H10.7407H10.7651H10.7896H10.8141H10.8385H10.863H10.8875H10.912H10.9364H10.9609H10.9854H11.0099H11.0345H11.059H11.0835H11.108H11.1326H11.1571H11.1817H11.2062H11.2308H11.2554H11.2799H11.3045H11.3291H11.3537H11.3783H11.4029H11.4275H11.4521H11.4767H11.5013H11.5259H11.5506H11.5752H11.5999H11.6245H11.6492H11.6738H11.6985H11.7231H11.7478H11.7725H11.7972H11.8219H11.8465H11.8712H11.8959H11.9206H11.9454H11.9701H11.9948H12.0195H12.0442H12.069H12.0937H12.1184H12.1432H12.1679H12.1927H12.2174H12.2422H12.267H12.2917H12.3165H12.3413H12.3661H12.3908H12.4156H12.4404H12.4652H12.49H12.5148H12.5396H12.5644H12.5893H12.6141H12.6389H12.6637H12.6885H12.7134H12.7382H12.763H12.7879H12.8127H12.8376H12.8624H12.8873H12.9121H12.937H12.9619H12.9867H13.0116H13.0365H13.0613H13.0862H13.1111H13.136H13.1609H13.1857H13.2106H13.2355H13.2604H13.2853H13.3102H13.3351H13.36H13.3849H13.4098H13.4347H13.4597H13.4846H13.5095H13.5344H13.5593H13.5843H13.6092H13.6341H13.659H13.684H13.7089H13.7338H13.7588H13.7837H13.8087H13.8336H13.8585H13.8835H13.9084H13.9334H13.9583H13.9833H14.0082H14.0332H14.0581H14.0831H14.1081H14.133H14.158H14.1829H14.2079H14.2329H14.2578H14.2828H14.3078H14.3327H14.3577H14.3827H14.4076H14.4326H14.4576H14.4825H14.5075H14.5325H14.5575H14.5824H14.6074H14.6324H14.6573H14.6823H14.7073H14.7323H14.7572H14.7822H14.8072H14.8322H14.8571H14.8821H14.9071H14.9321H14.957H14.982H15.007H15.032H15.0569H15.0819H15.1069H15.1319H15.1568H15.1818H15.2068H15.2317H15.2567H15.2817H15.3067H15.3316H15.3566H15.3816H15.4065H15.4315H15.4565H15.4814H15.5064H15.5313H15.5563H15.5813H15.6062H15.6312H15.6561H15.6811H15.706H15.731H15.7559H15.7809H15.8058H15.8308H15.8557H15.8807H15.9056H15.9306H15.9555H15.9804H16.0054H16.0303H16.0552H16.0802H16.1051H16.13H16.1549H16.1799H16.2048H16.2297H16.2546H16.2795H16.3044H16.3294H16.3543H16.3792H16.4041H16.429H16.4539H16.4788H16.5037H16.5285H16.5534H16.5783H16.6032H16.6281H16.653H16.6778H16.7027H16.7276H16.7524H16.7773H16.8022H16.827H16.8519H16.8767H16.9016H16.9264H16.9512H16.9761H17.0009H17.0257H17.0506H17.0754H17.1002H17.125H17.1498H17.1747H17.1995H17.2243H17.2491H17.2739H17.2987H17.3234H17.3482H17.373H17.3978H17.4226H17.4473H17.4721H17.4968H17.5216H17.5464H17.5711H17.5958H17.6206H17.6453H17.6701H17.6948H17.7195H17.7442H17.7689H17.7936H17.8183H17.843H17.8677H17.8924H17.9171H17.9418H17.9665H17.9911H18.0158H18.0405H18.0651H18.0898H18.1144H18.1391H18.1637H18.1883H18.213H18.2376H18.2622H18.2868H18.3114H18.336H18.3606H18.3852H18.4098H18.4344H18.4589H18.4835H18.5081H18.5326H18.5572H18.5817H18.6062H18.6308H18.6553H18.6798H18.7043H18.7288H18.7533H18.7778H18.8023H18.8268H18.8513H18.8758H18.9002H18.9247H18.9491H18.9736H18.998H19.0225H19.0469H19.0713H19.0957H19.1201H19.1445H19.1689H19.1933H19.2177H19.2421H19.2664H19.2908H19.3152H19.3395H19.3638H19.3882H19.4125H19.4368H19.4611H19.4854H19.5097H19.534H19.5583H19.5826H19.6068H19.6311H19.6554H19.6796H19.7038H19.7281H19.7523H19.7765H19.8007H19.8249H19.8491H19.8733H19.8975H19.9216H19.9458H19.9699H19.9941H20.0182H20.0424H20.0665H20.0906H20.1147H20.1388H20.1629H20.1869H20.211H20.2351H20.2591H20.2832H20.3072H20.3312H20.3553H20.3793H20.4033H20.4273H20.4513H20.4752H20.4992H20.5232H20.5471H20.5711H20.595H20.6189H20.6428H20.6667H20.6906H20.7145H20.7384H20.7623H20.7861H20.81H20.8338H20.8576H20.8815H20.9053H20.9291H20.9529H20.9766H21.0004H21.0242H21.0479H21.0717H21.0954H21.1191H21.1429C21.6951 5.5 22.1429 5.94772 22.1429 6.5C22.1429 7.05228 21.6951 7.5 21.1429 7.5H21.1191H21.0954H21.0717H21.0479H21.0242H21.0004H20.9766H20.9529H20.9291H20.9053H20.8815H20.8576H20.8338H20.81H20.7861H20.7623H20.7384H20.7145H20.6906H20.6667H20.6428H20.6189H20.595H20.5711H20.5471H20.5232H20.4992H20.4752H20.4513H20.4273H20.4033H20.3793H20.3553H20.3312H20.3072H20.2832H20.2591H20.2351H20.211H20.1869H20.1629H20.1388H20.1147H20.0906H20.0665H20.0424H20.0182H19.9941H19.9699H19.9458H19.9216H19.8975H19.8733H19.8491H19.8249H19.8007H19.7765H19.7523H19.7281H19.7038H19.6796H19.6554H19.6311H19.6068H19.5826H19.5583H19.534H19.5097H19.4854H19.4611H19.4368H19.4125H19.3882H19.3638H19.3395H19.3152H19.2908H19.2664H19.2421H19.2177H19.1933H19.1689H19.1445H19.1201H19.0957H19.0713H19.0469H19.0225H18.998H18.9736H18.9491H18.9247H18.9002H18.8758H18.8513H18.8268H18.8023H18.7778H18.7533H18.7288H18.7043H18.6798H18.6553H18.6308H18.6062H18.5817H18.5572H18.5326H18.5081H18.4835H18.4589H18.4344H18.4098H18.3852H18.3606H18.336H18.3114H18.2868H18.2622H18.2376H18.213H18.1883H18.1637H18.1391H18.1144H18.0898H18.0651H18.0405H18.0158H17.9911H17.9665H17.9418H17.9171H17.8924H17.8677H17.843H17.8183H17.7936H17.7689H17.7442H17.7195H17.6948H17.6701H17.6453H17.6206H17.5958H17.5711H17.5464H17.5216H17.4968H17.4721H17.4473H17.4226H17.3978H17.373H17.3482H17.3234H17.2987H17.2739H17.2491H17.2243H17.1995H17.1747H17.1498H17.125H17.1002H17.0754H17.0506H17.0257H17.0009H16.9761H16.9512H16.9264H16.9016H16.8767H16.8519H16.827H16.8022H16.7773H16.7524H16.7276H16.7027H16.6778H16.653H16.6281H16.6032H16.5783H16.5534H16.5285H16.5037H16.4788H16.4539H16.429H16.4041H16.3792H16.3543H16.3294H16.3044H16.2795H16.2546H16.2297H16.2048H16.1799H16.1549H16.13H16.1051H16.0802H16.0552H16.0303H16.0054H15.9804H15.9555H15.9306H15.9056H15.8807H15.8557H15.8308H15.8058H15.7809H15.7559H15.731H15.706H15.6811H15.6561H15.6312H15.6062H15.5813H15.5563H15.5313H15.5064H15.4814H15.4565H15.4315H15.4065H15.3816H15.3566H15.3316H15.3067H15.2817H15.2567H15.2317H15.2068H15.1818H15.1568H15.1319H15.1069H15.0819H15.0569H15.032H15.007H14.982H14.957H14.9321H14.9071H14.8821H14.8571H14.8322H14.8072H14.7822H14.7572H14.7323H14.7073H14.6823H14.6573H14.6324H14.6074H14.5824H14.5575H14.5325H14.5075H14.4825H14.4576H14.4326H14.4076H14.3827H14.3577H14.3327H14.3078H14.2828H14.2578H14.2329H14.2079H14.1829H14.158H14.133H14.1081H14.0831H14.0581H14.0332H14.0082H13.9833H13.9583H13.9334H13.9084H13.8835H13.8585H13.8336H13.8087H13.7837H13.7588H13.7338H13.7089H13.684H13.659H13.6341H13.6092H13.5843H13.5593H13.5344H13.5095H13.4846H13.4597H13.4347H13.4098H13.3849H13.36H13.3351H13.3102H13.2853H13.2604H13.2355H13.2106H13.1857H13.1609H13.136H13.1111H13.0862H13.0613H13.0365H13.0116H12.9867H12.9619H12.937H12.9121H12.8873H12.8624H12.8376H12.8127H12.7879H12.763H12.7382H12.7134H12.6885H12.6637H12.6389H12.6141H12.5893H12.5644H12.5396H12.5148H12.49H12.4652H12.4404H12.4156H12.3908H12.3661H12.3413H12.3165H12.2917H12.267H12.2422H12.2174H12.1927H12.1679H12.1432H12.1184H12.0937H12.069H12.0442H12.0195H11.9948H11.9701H11.9454H11.9206H11.8959H11.8712H11.8465H11.8219H11.7972H11.7725H11.7478H11.7231H11.6985H11.6738H11.6492H11.6245H11.5999H11.5752H11.5506H11.5259H11.5013H11.4767H11.4521H11.4275H11.4029H11.3783H11.3537H11.3291H11.3045H11.2799H11.2554H11.2308H11.2062H11.1817H11.1571H11.1326H11.108H11.0835H11.059H11.0345H11.0099H10.9854H10.9609H10.9364H10.912H10.8875H10.863H10.8385H10.8141H10.7896H10.7651H10.7407H10.7163H10.6918H10.6674H10.643H10.6186H10.5941H10.5697H10.5454H10.521H10.4966H10.4722H10.4478H10.4235H10.3991H10.3748H10.3504H10.3261H10.3018H10.2775H10.2532H10.2289H10.2046H10.1803H10.156H10.1317H10.1074H10.0832H10.0589H10.0347H10.0104H9.98622H9.962H9.93778H9.91357H9.88937H9.86518H9.841H9.81682H9.79266H9.7685H9.74434H9.7202H9.69606H9.67193H9.64781H9.6237H9.5996H9.5755H9.55142H9.52734H9.50327H9.4792H9.45515H9.43111H9.40707H9.38304H9.35902H9.33501H9.31101H9.28701H9.26303H9.23905H9.21508H9.19113H9.16718H9.14323H9.1193H9.09538H9.07147H9.04756H9.02367H8.99978H8.9759H8.95203H8.92817H8.90432H8.88048H8.85665H8.83283H8.80902H8.78522H8.76142H8.73764H8.71387H8.6901H8.66635H8.6426H8.61887H8.59514H8.57143C8.01914 7.5 7.57143 7.05228 7.57143 6.5ZM7.57143 11.6429C7.57143 11.0906 8.01914 10.6429 8.57143 10.6429H24.2857C24.838 10.6429 25.2857 11.0906 25.2857 11.6429C25.2857 12.1951 24.838 12.6429 24.2857 12.6429H8.57143C8.01914 12.6429 7.57143 12.1951 7.57143 11.6429ZM7.57143 16.7857C7.57143 16.2334 8.01914 15.7857 8.57143 15.7857H17.7143C18.2666 15.7857 18.7143 16.2334 18.7143 16.7857C18.7143 17.338 18.2666 17.7857 17.7143 17.7857H8.57143C8.01914 17.7857 7.57143 17.338 7.57143 16.7857ZM7.57143 21.3571C7.57143 20.8049 8.01914 20.3571 8.57143 20.3571H12.8571C13.4094 20.3571 13.8571 20.8049 13.8571 21.3571C13.8571 21.9094 13.4094 22.3571 12.8571 22.3571H8.57143C8.01914 22.3571 7.57143 21.9094 7.57143 21.3571Z" fill="url(#paint0_linear_7334_93866)"/>
<path fill-rule="evenodd" clip-rule="evenodd" d="M26.5003 20.8516C22.942 20.8516 20.0654 23.7612 20.0654 27.3409C20.0654 30.9206 22.942 33.8302 26.5003 33.8302C30.0586 33.8302 32.9352 30.9206 32.9352 27.3409C32.9352 23.7612 30.0586 20.8516 26.5003 20.8516ZM21.0654 27.3409C21.0654 24.3048 23.5029 21.8516 26.5003 21.8516C29.4977 21.8516 31.9352 24.3048 31.9352 27.3409C31.9352 30.377 29.4977 32.8302 26.5003 32.8302C23.5029 32.8302 21.0654 30.377 21.0654 27.3409ZM30.019 25.6437C30.1825 25.4618 30.1675 25.1818 29.9856 25.0183C29.8037 24.8548 29.5238 24.8697 29.3603 25.0516L25.813 28.9983C25.7453 29.0737 25.6287 29.0782 25.5554 29.0082L23.7002 27.239C23.5232 27.0702 23.2429 27.0768 23.0741 27.2538C22.9053 27.4308 22.9119 27.7111 23.0889 27.8799L24.9441 29.6492C25.3789 30.0638 26.0702 30.0372 26.4718 29.5904L30.019 25.6437Z" fill="url(#paint1_linear_7334_93866)"/>
<defs>
<linearGradient id="paint0_linear_7334_93866" x1="16.5714" y1="-9.5" x2="16.5714" y2="31.6429" gradientUnits="userSpaceOnUse">
<stop stop-color="#E843C4"/>
<stop offset="1" stop-color="#FFBF00"/>
</linearGradient>
<linearGradient id="paint1_linear_7334_93866" x1="27.0924" y1="12.2891" x2="26.4902" y2="53.0346" gradientUnits="userSpaceOnUse">
<stop offset="0.126285" stop-color="#F5855C"/>
<stop offset="0.499141" stop-color="#FFBF01"/>
<stop offset="0.850818" stop-color="#E843C4"/>
</linearGradient>
</defs>
</svg>
