<svg width="24" height="24" viewBox="0 0 24 24" fill="none" xmlns="http://www.w3.org/2000/svg">
<path fill-rule="evenodd" clip-rule="evenodd" d="M21.3798 19.5986L19.5983 21.3802C19.179 21.7991 18.4981 21.8517 18.0258 21.4847L16.2443 20.1746C15.9033 20.3057 15.6937 20.3974 15.4838 20.4892C15.2745 20.5808 15.065 20.6725 14.7248 20.8034L14.4105 23.0043C14.3583 23.5807 13.8341 24 13.2576 24H10.7424C10.166 24 9.69452 23.5807 9.58961 23.0043L9.27526 20.8034C8.93431 20.6723 8.72468 20.5806 8.51481 20.4888C8.30552 20.3972 8.096 20.3055 7.7558 20.1746L5.97423 21.4847C5.50271 21.8513 4.82135 21.7991 4.40209 21.3798L2.62053 19.5982C2.20127 19.1789 2.14864 18.4976 2.51563 18.026L3.82567 16.2445C3.69463 15.9035 3.6029 15.6939 3.51108 15.484C3.4195 15.2747 3.32782 15.0652 3.19696 14.725L0.996091 14.4106C0.419626 14.3584 0.000366953 13.8342 0.000366953 13.2578L0 10.69C0 10.1136 0.419288 9.64201 0.995725 9.53711L3.19725 9.27502C3.32829 8.93408 3.42001 8.72443 3.51184 8.51457C3.60342 8.30527 3.69509 8.09575 3.82595 7.75554L2.51592 5.97395C2.14929 5.50243 2.20156 4.82105 2.62082 4.40179L4.40238 2.6202C4.82169 2.20094 5.503 2.1483 5.97453 2.51529L7.75609 3.82535C8.09703 3.69431 8.30666 3.60259 8.51653 3.51076C8.72582 3.41918 8.93534 3.3275 9.27555 3.19664L9.5899 0.995738C9.64211 0.419266 10.1663 0 10.7427 0H13.2579C13.8343 0 14.3059 0.419294 14.4108 0.995738L14.7251 3.19664C15.066 3.32768 15.2757 3.41941 15.4856 3.51123C15.6948 3.60281 15.9044 3.69449 16.2446 3.82535L18.0261 2.51604C18.4977 2.14941 19.179 2.20168 19.5983 2.62095L21.3798 4.40254C21.7991 4.82185 21.8517 5.50316 21.4847 5.9747L20.1747 7.75629C20.3057 8.09723 20.3975 8.30687 20.4893 8.51674C20.5809 8.72604 20.6725 8.93556 20.8034 9.27577L23.0043 9.59013C23.5807 9.64234 24 10.1665 24 10.743V13.2582C24 13.8346 23.5807 14.3061 23.0043 14.4111L20.8034 14.7254C20.6724 15.0664 20.5806 15.276 20.4888 15.4859C20.3972 15.6952 20.3056 15.9047 20.1747 16.2449L21.4847 18.0265C21.8514 18.498 21.7991 19.1794 21.3798 19.5986ZM11.4145 16.3989C11.4926 16.4663 11.5874 16.5 11.6989 16.5H12.2844C12.3959 16.5 12.4851 16.4663 12.552 16.3989C12.6301 16.3202 12.6691 16.2247 12.6691 16.1124V12.6067H16.1152C16.2268 12.6067 16.316 12.573 16.3829 12.5056C16.461 12.427 16.5 12.3315 16.5 12.2191V11.6798C16.5 11.5674 16.461 11.4775 16.3829 11.4101C16.316 11.3315 16.2268 11.2921 16.1152 11.2921H12.6691V7.88764C12.6691 7.77528 12.6301 7.68539 12.552 7.61798C12.4851 7.53933 12.3959 7.5 12.2844 7.5H11.6989C11.5874 7.5 11.4926 7.53933 11.4145 7.61798C11.3476 7.68539 11.3141 7.77528 11.3141 7.88764V11.2921H7.88476C7.77323 11.2921 7.67844 11.3315 7.60037 11.4101C7.53346 11.4775 7.5 11.5674 7.5 11.6798V12.2191C7.5 12.3315 7.53346 12.427 7.60037 12.5056C7.67844 12.573 7.77323 12.6067 7.88476 12.6067H11.3141V16.1124C11.3141 16.2247 11.3476 16.3202 11.4145 16.3989Z" fill="url(#paint0_linear_7334_93893)"/>
<defs>
<linearGradient id="paint0_linear_7334_93893" x1="11.9971" y1="24.0049" x2="11.9971" y2="0.0024407" gradientUnits="userSpaceOnUse">
<stop stop-color="#FFBF00"/>
<stop offset="1" stop-color="#E843C4"/>
</linearGradient>
</defs>
</svg>
