<svg width="127" height="112" viewBox="0 0 127 112" fill="none" xmlns="http://www.w3.org/2000/svg">
<g filter="url(#filter0_f_6357_66865)">
<path fill-rule="evenodd" clip-rule="evenodd" d="M25.5157 30.709H20.4339C18.9178 33.1087 17.5861 35.6384 16.4587 38.2775H21.0863C22.3419 35.6143 23.827 33.0828 25.5157 30.709ZM109.457 38.2775C108.198 35.6142 106.709 33.0828 105.017 30.709H110.102C111.622 33.1087 112.957 35.6383 114.087 38.2775H109.457Z" fill="white"/>
<path fill-rule="evenodd" clip-rule="evenodd" d="M16.7345 53.4121H14.2615V60.9806H16.3958C16.3804 60.4714 16.3726 59.9603 16.3726 59.4473C16.3726 57.404 16.4956 55.3899 16.7345 53.4121ZM114.173 60.9806C114.187 60.4816 114.195 59.9807 114.195 59.4781C114.195 57.4242 114.07 55.3998 113.829 53.4121H116.306V60.9806H114.173Z" fill="white"/>
<path fill-rule="evenodd" clip-rule="evenodd" d="M19.2315 76.123H14.7722C15.6211 78.7402 16.6645 81.2688 17.8853 83.6916H22.6656C21.3195 81.2866 20.1676 78.7566 19.2315 76.123ZM46.9725 83.6916L53.116 78.4684H32.1491C30.2546 78.4684 28.6047 77.536 27.5909 76.123H62.393L60.2258 77.9656L53.491 83.6916H46.9725ZM115.803 76.123C114.955 78.7404 113.913 81.2691 112.694 83.6916H107.914C109.259 81.2869 110.409 78.7569 111.344 76.123H115.803ZM86.1229 83.6916H79.7482L73.2413 77.9389L71.1874 76.123H102.978C101.955 77.5456 100.291 78.4684 98.4185 78.4684H80.2149L86.1229 83.6916Z" fill="white"/>
<path fill-rule="evenodd" clip-rule="evenodd" d="M15.9957 61.5565C15.9957 34.2892 37.8994 12.2229 64.8904 12.2223C89.1262 12.2493 109.282 30.041 113.149 53.408H113.837V60.9765H113.814C113.817 61.1798 113.818 61.3834 113.818 61.5873C113.818 66.6473 113.063 71.5285 111.661 76.1229H111.967C111.119 78.7402 110.077 81.2689 108.858 83.6914H108.647C106.116 88.7777 102.741 93.3607 98.7085 97.2531L79.838 80.5697H98.0416C101.136 80.5697 103.663 78.0493 103.663 74.9181C103.663 71.8416 101.19 69.2664 98.0416 69.2664H31.7721C28.6781 69.2664 26.1506 71.7868 26.1506 74.9181C26.1506 75.3303 26.1951 75.7336 26.2795 76.1229H31.02C30.6339 75.8711 30.3729 75.4305 30.3729 74.9181C30.3729 74.1086 31.0201 73.4887 31.7721 73.4887H98.0416C98.8003 73.4887 99.4408 74.1154 99.4408 74.9181C99.4408 75.4336 99.1783 75.8723 98.7934 76.1229H99.1423C98.1195 77.5454 96.4548 78.4682 94.5826 78.4682H76.379L82.2869 83.6914H76.9942L97.3453 101.684L98.7519 102.927L100.151 101.675C111.113 91.8693 118.04 77.5425 118.04 61.5873C118.04 54.0543 116.496 46.8836 113.709 40.3789H109.082C107.823 37.7156 106.334 35.1841 104.642 32.8104H109.722C100.285 17.9104 83.7346 8.02059 64.8939 8H64.8916C46.0362 8 29.4895 17.8966 20.0639 32.8104H25.1408C23.452 35.1842 21.9669 37.7156 20.7114 40.3789H16.0872C14.3336 44.4825 13.0741 48.851 12.3843 53.408H14.2658C14.0269 55.3858 13.9039 57.3999 13.9039 59.4432C13.9039 59.9562 13.9117 60.4673 13.9271 60.9765H11.7928V60.0971C11.7799 60.582 11.7734 61.0685 11.7734 61.5565C11.7734 66.605 12.4661 71.4909 13.761 76.1229H15.3955C16.3317 78.7564 17.4835 81.2864 18.8297 83.6914H16.5061C19.7971 90.9967 24.6673 97.4274 30.679 102.541L32.0465 103.705L33.4143 102.542L59.8488 80.067L64.2237 76.3475H58.4814H58.2929L56.3898 77.9654L49.6551 83.6914H49.0674L32.0722 98.1406C22.193 89.1005 15.9957 76.062 15.9957 61.5565ZM46.8082 80.5697L49.28 78.4682H28.3132C27.9777 78.4682 27.6499 78.4389 27.332 78.383C28.3532 79.7067 29.9495 80.5697 31.7721 80.5697H46.8082Z" fill="white"/>
<path fill-rule="evenodd" clip-rule="evenodd" d="M21.7482 30.709H16.6663C15.1502 33.1087 13.8185 35.6384 12.6912 38.2775H17.3188C18.5743 35.6143 20.0594 33.0828 21.7482 30.709ZM105.689 38.2775C104.43 35.6142 102.942 33.0828 101.249 30.709H106.335C107.854 33.1087 109.189 35.6383 110.319 38.2775H105.689Z" fill="white"/>
<path fill-rule="evenodd" clip-rule="evenodd" d="M12.9669 53.4121H10.4939V60.9806H12.6282C12.6128 60.4714 12.605 59.9603 12.605 59.4473C12.605 57.404 12.728 55.3899 12.9669 53.4121ZM110.405 60.9806C110.42 60.4816 110.427 59.9807 110.427 59.4781C110.427 57.4242 110.303 55.3998 110.061 53.4121H112.538V60.9806H110.405Z" fill="white"/>
<path fill-rule="evenodd" clip-rule="evenodd" d="M15.4639 76.123H11.0046C11.8535 78.7402 12.8969 81.2688 14.1177 83.6916H18.898C17.5519 81.2866 16.4001 78.7566 15.4639 76.123ZM43.2049 83.6916L49.3484 78.4684H28.3815C26.487 78.4684 24.8371 77.536 23.8233 76.123H58.6254L56.4582 77.9656L49.7234 83.6916H43.2049ZM112.035 76.123C111.188 78.7404 110.145 81.2691 108.926 83.6916H104.147C105.491 81.2869 106.642 78.7569 107.577 76.123H112.035ZM82.3553 83.6916H75.9806L69.4738 77.9389L67.4199 76.123H99.2107C98.1878 77.5456 96.5231 78.4684 94.6509 78.4684H76.4473L82.3553 83.6916Z" fill="white"/>
<path fill-rule="evenodd" clip-rule="evenodd" d="M12.2223 61.5565C12.2223 34.2892 34.126 12.2229 61.1169 12.2223C85.3528 12.2493 105.508 30.041 109.375 53.408H110.064V60.9765H110.041C110.043 61.1798 110.045 61.3834 110.045 61.5873C110.045 66.6473 109.289 71.5285 107.887 76.1229H109.563C108.715 78.7402 107.673 81.2689 106.453 83.6914H104.873C102.343 88.7777 98.9675 93.3607 94.9351 97.2531L79.5954 83.6914H73.508L67.0011 77.9387L65.2013 76.3475H64.914L69.091 80.0403L93.5719 101.684L94.9785 102.927L96.3777 101.675C107.339 91.8693 114.267 77.5425 114.267 61.5873C114.267 54.0543 112.722 46.8836 109.935 40.3789H105.309C104.05 37.7156 102.561 35.1841 100.868 32.8104H105.949C96.5111 17.9104 79.9612 8.02059 61.1204 8H61.1181C42.2628 8 25.7161 17.8966 16.2905 32.8104H21.3673C19.6786 35.1842 18.1935 37.7156 16.9379 40.3789H12.3138C10.5601 44.4825 9.30068 48.851 8.61083 53.408H10.4924C10.2535 55.3858 10.1305 57.3999 10.1305 59.4432C10.1305 59.9562 10.1382 60.4673 10.1536 60.9765H8.01934V60.0971C8.00647 60.582 8 61.0685 8 61.5565C8 66.605 8.69262 71.4909 9.98755 76.1229H12.9913C13.9274 78.7564 15.0792 81.2864 16.4254 83.6914H12.7326C16.0237 90.9967 20.8939 97.4274 26.9055 102.541L28.273 103.705L29.6409 102.542L56.0754 80.067L60.4503 76.3475H55.8886L53.9855 77.9654L47.2508 83.6914H45.294L28.2988 98.1406C18.4195 89.1005 12.2223 76.062 12.2223 61.5565ZM44.4039 80.5697L46.8757 78.4682H25.9089C24.8884 78.4682 23.9389 78.1977 23.1215 77.7272C24.0842 79.4145 25.89 80.5697 27.9987 80.5697H44.4039ZM22.5061 76.1229H27.2465C26.8604 75.8711 26.5995 75.4305 26.5995 74.9181C26.5995 74.1086 27.2467 73.4887 27.9987 73.4887H94.2681C95.0269 73.4887 95.6674 74.1154 95.6674 74.9181C95.6674 75.4336 95.4049 75.8723 95.02 76.1229H96.738C95.7152 77.5454 94.0505 78.4682 92.1783 78.4682H73.9747L76.3518 80.5697H94.2681C97.3622 80.5697 99.8896 78.0493 99.8896 74.9181C99.8896 71.8416 97.4166 69.2664 94.2681 69.2664H27.9987C24.9046 69.2664 22.3772 71.7868 22.3772 74.9181C22.3772 75.3303 22.4216 75.7336 22.5061 76.1229Z" fill="white"/>
<path fill-rule="evenodd" clip-rule="evenodd" d="M25.5157 30.709H20.4339C18.9178 33.1087 17.5861 35.6384 16.4587 38.2775H21.0863C22.3419 35.6143 23.827 33.0828 25.5157 30.709ZM109.457 38.2775C108.198 35.6142 106.709 33.0828 105.017 30.709H110.102C111.622 33.1087 112.957 35.6383 114.087 38.2775H109.457Z" fill="#E843C4" style="mix-blend-mode:multiply"/>
<path fill-rule="evenodd" clip-rule="evenodd" d="M16.7345 53.4121H14.2615V60.9806H16.3958C16.3804 60.4714 16.3726 59.9603 16.3726 59.4473C16.3726 57.404 16.4956 55.3899 16.7345 53.4121ZM114.173 60.9806C114.187 60.4816 114.195 59.9807 114.195 59.4781C114.195 57.4242 114.07 55.3998 113.829 53.4121H116.306V60.9806H114.173Z" fill="#E843C4" style="mix-blend-mode:multiply"/>
<path fill-rule="evenodd" clip-rule="evenodd" d="M19.2315 76.127H14.7722C15.6211 78.7441 16.6645 81.2727 17.8853 83.6955H22.6656C21.3195 81.2905 20.1676 78.7605 19.2315 76.127ZM46.9725 83.6955L53.116 78.4723H32.1491C30.2546 78.4723 28.6047 77.5399 27.5909 76.127H62.393L60.2258 77.9695L53.491 83.6955H46.9725ZM115.803 76.127C114.955 78.7443 113.913 81.273 112.694 83.6955H107.914C109.259 81.2908 110.409 78.7608 111.344 76.127H115.803ZM86.1229 83.6955H79.7482L73.2413 77.9428L71.1874 76.127H102.978C101.955 77.5495 100.291 78.4723 98.4185 78.4723H80.2149L86.1229 83.6955Z" fill="#E843C4" style="mix-blend-mode:multiply"/>
<path fill-rule="evenodd" clip-rule="evenodd" d="M15.9957 61.5565C15.9957 34.2892 37.8994 12.2229 64.8904 12.2223C89.1262 12.2493 109.282 30.041 113.149 53.408H113.837V60.9765H113.814C113.817 61.1798 113.818 61.3834 113.818 61.5873C113.818 66.6473 113.063 71.5285 111.661 76.1229H111.967C111.119 78.7402 110.077 81.2689 108.858 83.6914H108.647C106.116 88.7777 102.741 93.3607 98.7085 97.2531L79.838 80.5697H98.0416C101.136 80.5697 103.663 78.0493 103.663 74.9181C103.663 71.8416 101.19 69.2664 98.0416 69.2664H31.7721C28.6781 69.2664 26.1506 71.7868 26.1506 74.9181C26.1506 75.3303 26.1951 75.7336 26.2795 76.1229H31.02C30.6339 75.8711 30.3729 75.4305 30.3729 74.9181C30.3729 74.1086 31.0201 73.4887 31.7721 73.4887H98.0416C98.8003 73.4887 99.4408 74.1154 99.4408 74.9181C99.4408 75.4336 99.1783 75.8723 98.7934 76.1229H99.1423C98.1195 77.5454 96.4548 78.4682 94.5826 78.4682H76.379L82.2869 83.6914H76.9942L97.3453 101.684L98.7519 102.927L100.151 101.675C111.113 91.8693 118.04 77.5425 118.04 61.5873C118.04 54.0543 116.496 46.8836 113.709 40.3789H109.082C107.823 37.7156 106.334 35.1841 104.642 32.8104H109.722C100.285 17.9104 83.7346 8.02059 64.8939 8H64.8916C46.0362 8 29.4895 17.8966 20.0639 32.8104H25.1408C23.452 35.1842 21.9669 37.7156 20.7114 40.3789H16.0872C14.3336 44.4825 13.0741 48.851 12.3843 53.408H14.2658C14.0269 55.3858 13.9039 57.3999 13.9039 59.4432C13.9039 59.9562 13.9117 60.4673 13.9271 60.9765H11.7928V60.0971C11.7799 60.582 11.7734 61.0685 11.7734 61.5565C11.7734 66.605 12.4661 71.4909 13.761 76.1229H15.3955C16.3317 78.7564 17.4835 81.2864 18.8297 83.6914H16.5061C19.7971 90.9967 24.6673 97.4274 30.679 102.541L32.0465 103.705L33.4143 102.542L59.8488 80.067L64.2237 76.3475H58.4814H58.2929L56.3898 77.9654L49.6551 83.6914H49.0674L32.0722 98.1406C22.193 89.1005 15.9957 76.062 15.9957 61.5565ZM46.8082 80.5697L49.28 78.4682H28.3132C27.9777 78.4682 27.6499 78.4389 27.332 78.383C28.3532 79.7067 29.9495 80.5697 31.7721 80.5697H46.8082Z" fill="#E843C4" style="mix-blend-mode:multiply"/>
<path fill-rule="evenodd" clip-rule="evenodd" d="M21.7482 30.709H16.6663C15.1502 33.1087 13.8185 35.6384 12.6912 38.2775H17.3188C18.5743 35.6143 20.0594 33.0828 21.7482 30.709ZM105.689 38.2775C104.43 35.6142 102.942 33.0828 101.249 30.709H106.335C107.854 33.1087 109.189 35.6383 110.319 38.2775H105.689Z" fill="#FFBF00" style="mix-blend-mode:multiply"/>
<path fill-rule="evenodd" clip-rule="evenodd" d="M12.9669 53.4121H10.4939V60.9806H12.6282C12.6128 60.4714 12.605 59.9603 12.605 59.4473C12.605 57.404 12.728 55.3899 12.9669 53.4121ZM110.405 60.9806C110.42 60.4816 110.427 59.9807 110.427 59.4781C110.427 57.4242 110.303 55.3998 110.061 53.4121H112.538V60.9806H110.405Z" fill="#FFBF00" style="mix-blend-mode:multiply"/>
<path fill-rule="evenodd" clip-rule="evenodd" d="M15.4639 76.127H11.0046C11.8535 78.7441 12.8969 81.2727 14.1177 83.6955H18.898C17.5519 81.2905 16.4001 78.7605 15.4639 76.127ZM43.2049 83.6955L49.3484 78.4723H28.3815C26.487 78.4723 24.8371 77.5399 23.8233 76.127H58.6254L56.4582 77.9695L49.7234 83.6955H43.2049ZM112.035 76.127C111.188 78.7443 110.145 81.273 108.926 83.6955H104.147C105.491 81.2908 106.642 78.7608 107.577 76.127H112.035ZM82.3553 83.6955H75.9806L69.4738 77.9428L67.4199 76.127H99.2107C98.1878 77.5495 96.5231 78.4723 94.6509 78.4723H76.4473L82.3553 83.6955Z" fill="#FFBF00" style="mix-blend-mode:multiply"/>
<path fill-rule="evenodd" clip-rule="evenodd" d="M12.2223 61.5565C12.2223 34.2892 34.126 12.2229 61.1169 12.2223C85.3528 12.2493 105.508 30.041 109.375 53.408H110.064V60.9765H110.041C110.043 61.1798 110.045 61.3834 110.045 61.5873C110.045 66.6473 109.289 71.5285 107.887 76.1229H109.563C108.715 78.7402 107.673 81.2689 106.453 83.6914H104.873C102.343 88.7777 98.9675 93.3607 94.9351 97.2531L79.5954 83.6914H73.508L67.0011 77.9387L65.2013 76.3475H64.914L69.091 80.0403L93.5719 101.684L94.9785 102.927L96.3777 101.675C107.339 91.8693 114.267 77.5425 114.267 61.5873C114.267 54.0543 112.722 46.8836 109.935 40.3789H105.309C104.05 37.7156 102.561 35.1841 100.868 32.8104H105.949C96.5111 17.9104 79.9612 8.02059 61.1204 8H61.1181C42.2628 8 25.7161 17.8966 16.2905 32.8104H21.3673C19.6786 35.1842 18.1935 37.7156 16.9379 40.3789H12.3138C10.5601 44.4825 9.30068 48.851 8.61083 53.408H10.4924C10.2535 55.3858 10.1305 57.3999 10.1305 59.4432C10.1305 59.9562 10.1382 60.4673 10.1536 60.9765H8.01934V60.0971C8.00647 60.582 8 61.0685 8 61.5565C8 66.605 8.69262 71.4909 9.98755 76.1229H12.9913C13.9274 78.7564 15.0792 81.2864 16.4254 83.6914H12.7326C16.0237 90.9967 20.8939 97.4274 26.9055 102.541L28.273 103.705L29.6409 102.542L56.0754 80.067L60.4503 76.3475H55.8886L53.9855 77.9654L47.2508 83.6914H45.294L28.2988 98.1406C18.4195 89.1005 12.2223 76.062 12.2223 61.5565ZM44.4039 80.5697L46.8757 78.4682H25.9089C24.8884 78.4682 23.9389 78.1977 23.1215 77.7272C24.0842 79.4145 25.89 80.5697 27.9987 80.5697H44.4039ZM22.5061 76.1229H27.2465C26.8604 75.8711 26.5995 75.4305 26.5995 74.9181C26.5995 74.1086 27.2467 73.4887 27.9987 73.4887H94.2681C95.0269 73.4887 95.6674 74.1154 95.6674 74.9181C95.6674 75.4336 95.4049 75.8723 95.02 76.1229H96.738C95.7152 77.5454 94.0505 78.4682 92.1783 78.4682H73.9747L76.3518 80.5697H94.2681C97.3622 80.5697 99.8896 78.0493 99.8896 74.9181C99.8896 71.8416 97.4166 69.2664 94.2681 69.2664H27.9987C24.9046 69.2664 22.3772 71.7868 22.3772 74.9181C22.3772 75.3303 22.4216 75.7336 22.5061 76.1229Z" fill="#FFBF00" style="mix-blend-mode:multiply"/>
</g>
<path fill-rule="evenodd" clip-rule="evenodd" d="M25.5157 30.709H20.4339C18.9178 33.1087 17.5861 35.6384 16.4587 38.2775H21.0863C22.3419 35.6143 23.827 33.0828 25.5157 30.709ZM109.457 38.2775C108.198 35.6142 106.709 33.0828 105.017 30.709H110.102C111.622 33.1087 112.957 35.6383 114.087 38.2775H109.457Z" fill="white"/>
<path fill-rule="evenodd" clip-rule="evenodd" d="M14.7345 53.4102H12.2615V60.9787H14.3958C14.3804 60.4695 14.3726 59.9583 14.3726 59.4453C14.3726 57.402 14.4956 55.3879 14.7345 53.4102ZM112.173 60.9787C112.187 60.4797 112.195 59.9788 112.195 59.4761C112.195 57.4223 112.07 55.3979 111.829 53.4102H114.306V60.9787H112.173Z" fill="white"/>
<path fill-rule="evenodd" clip-rule="evenodd" d="M19.2315 76.123H14.7722C15.6211 78.7402 16.6645 81.2688 17.8853 83.6916H22.6656C21.3195 81.2866 20.1676 78.7566 19.2315 76.123ZM46.9725 83.6916L53.116 78.4684H32.1491C30.2546 78.4684 28.6047 77.536 27.5909 76.123H62.393L60.2258 77.9656L53.491 83.6916H46.9725ZM115.803 76.123C114.955 78.7404 113.913 81.2691 112.694 83.6916H107.914C109.259 81.2869 110.409 78.7569 111.344 76.123H115.803ZM86.1229 83.6916H79.7482L73.2413 77.9389L71.1874 76.123H102.978C101.955 77.5456 100.291 78.4684 98.4185 78.4684H80.2149L86.1229 83.6916Z" fill="white"/>
<path fill-rule="evenodd" clip-rule="evenodd" d="M21.7892 32.8104C30.82 19.6934 45.8629 11.1096 62.8912 11.1094C87.748 11.1368 108.397 29.4288 112.275 53.408H113.837V60.9765H112.926C112.928 61.1792 112.929 61.3822 112.929 61.5855C112.929 66.6399 112.192 71.5201 110.821 76.1229H111.967C111.119 78.7402 110.077 81.2689 108.858 83.6914H107.884C105.12 89.4017 101.32 94.5066 96.734 98.7568L79.6935 83.6914H76.6739L96.0815 100.849L96.7477 101.438L97.4105 100.846C108.146 91.2422 114.929 77.2127 114.929 61.5855C114.929 54.0386 113.347 46.8637 110.498 40.3789H109.082C107.823 37.7156 106.334 35.1841 104.642 32.8104H106.403C97.1004 18.5501 81.0848 9.12925 62.8929 9.10938H62.8918C34.157 9.10938 10.8848 32.594 10.8848 61.5547C10.8848 66.6093 11.5935 71.4972 12.9165 76.1229H15.0002C13.6241 71.5103 12.8848 66.6198 12.8848 61.5547C12.8848 61.3617 12.8858 61.169 12.888 60.9765H11.7928V53.408H13.5331C14.2699 48.8284 15.6176 44.4562 17.4891 40.3789H16.0838C17.2111 37.7397 18.5428 35.2101 20.0589 32.8104H21.7892ZM17.941 83.6914H15.7284C18.9469 90.6564 23.6376 96.7921 29.3991 101.693L30.0469 102.244L30.6948 101.693L57.1293 79.2187L59.2016 77.4568H56.9881L56.3898 77.9654L49.6551 83.6914H48.7809L30.0527 99.6141C25.0324 95.196 20.8953 89.7878 17.941 83.6914ZM48.1172 79.4568L49.28 78.4682H28.3132C27.7462 78.4682 27.2012 78.3847 26.6886 78.2298C27.4909 78.9884 28.5716 79.4568 29.7723 79.4568H48.1172ZM25.4238 76.1229H27.5628C27.3709 75.7637 27.262 75.3527 27.262 74.9163C27.262 73.4958 28.404 72.3758 29.7723 72.3758H96.0418C97.4294 72.3758 98.5521 73.5152 98.5521 74.9163C98.5521 75.3553 98.4431 75.7655 98.252 76.1229H99.1423C98.1195 77.5454 96.4548 78.4682 94.5826 78.4682H76.379L77.4973 79.4568H96.0418C98.5195 79.4568 100.552 77.4366 100.552 74.9163C100.552 72.4382 98.5613 70.3758 96.0418 70.3758H29.7723C27.2946 70.3758 25.262 72.3961 25.262 74.9163C25.262 75.3329 25.3182 75.7376 25.4238 76.1229Z" fill="white"/>
<path fill-rule="evenodd" clip-rule="evenodd" d="M21.7482 30.709H16.6663C15.1502 33.1087 13.8185 35.6384 12.6912 38.2775H17.3188C18.5743 35.6143 20.0594 33.0828 21.7482 30.709ZM105.689 38.2775C104.43 35.6142 102.942 33.0828 101.249 30.709H106.335C107.854 33.1087 109.189 35.6383 110.319 38.2775H105.689Z" fill="white"/>
<path fill-rule="evenodd" clip-rule="evenodd" d="M12.9669 53.4121H10.4939V60.9806H12.6282C12.6128 60.4714 12.605 59.9603 12.605 59.4473C12.605 57.404 12.728 55.3899 12.9669 53.4121ZM110.405 60.9806C110.42 60.4816 110.427 59.9807 110.427 59.4781C110.427 57.4242 110.303 55.3998 110.061 53.4121H112.538V60.9806H110.405Z" fill="white"/>
<path fill-rule="evenodd" clip-rule="evenodd" d="M15.4639 76.123H11.0046C11.8535 78.7402 12.8969 81.2688 14.1177 83.6916H18.898C17.5519 81.2866 16.4001 78.7566 15.4639 76.123ZM43.2049 83.6916L49.3484 78.4684H28.3815C26.487 78.4684 24.8371 77.536 23.8233 76.123H58.6254L56.4582 77.9656L49.7234 83.6916H43.2049ZM112.035 76.123C111.188 78.7404 110.145 81.2691 108.926 83.6916H104.147C105.491 81.2869 106.642 78.7569 107.577 76.123H112.035ZM82.3553 83.6916H75.9806L69.4738 77.9389L67.4199 76.123H99.2107C98.1878 77.5456 96.5231 78.4684 94.6509 78.4684H76.4473L82.3553 83.6916Z" fill="white"/>
<path fill-rule="evenodd" clip-rule="evenodd" d="M20.0168 32.8105C29.0477 19.6946 44.09 11.1115 61.1175 11.1113C78.1336 11.1301 93.1779 19.7081 102.22 32.8105H104.628C95.3254 18.5513 79.3104 9.13121 61.1192 9.11133H61.1181C42.9133 9.11133 26.9011 18.5375 17.6103 32.8105H20.0168ZM15.7162 40.3791H13.5244C11.7304 44.4738 10.4408 48.8436 9.7349 53.4082H10.4923C10.2534 55.386 10.1304 57.4001 10.1304 59.4434C10.1304 59.9564 10.1382 60.4675 10.1536 60.9767H9.1142C9.11212 61.1698 9.11108 61.3631 9.11108 61.5567C9.11108 66.6106 9.81961 71.4979 11.1423 76.123H12.9912C13.4578 77.4357 13.978 78.7225 14.5491 79.9811C12.3294 74.2731 11.1111 68.0588 11.1111 61.5567C11.1111 53.992 12.7605 46.8177 15.7162 40.3791ZM16.1665 83.6916H13.9539C17.1724 90.6573 21.8635 96.7937 27.6254 101.695L28.2732 102.246L28.9211 101.695L55.3556 79.2207L57.4279 77.4588H54.7079H54.5816L53.9855 77.9656L47.2507 83.6916H47.0093L28.279 99.616C23.2582 95.1975 19.1208 89.7887 16.1665 83.6916ZM45.7108 79.4588L46.8757 78.4684H25.9088C25.6403 78.4684 25.3766 78.4496 25.119 78.4135C25.8963 79.0645 26.8969 79.4588 27.9986 79.4588H45.7108ZM23.6496 76.123H25.7882C25.5969 75.7644 25.4883 75.354 25.4883 74.9183C25.4883 73.4978 26.6303 72.3778 27.9986 72.3778H94.2681C95.6557 72.3778 96.7785 73.5172 96.7785 74.9183C96.7785 75.3565 96.6698 75.7661 96.4793 76.123H96.738C95.7151 77.5456 94.0504 78.4684 92.1782 78.4684H73.9746L75.0949 79.4588H94.2681C96.7458 79.4588 98.7785 77.4385 98.7785 74.9183C98.7785 72.4402 96.7876 70.3778 94.2681 70.3778H27.9986C25.5209 70.3778 23.4883 72.398 23.4883 74.9183C23.4883 75.3342 23.5444 75.7384 23.6496 76.123ZM77.9178 83.6916H74.8983L94.3078 100.851L94.9741 101.44L95.6369 100.847C106.372 91.2441 113.156 77.2147 113.156 61.5874C113.156 54.0399 111.573 46.8644 108.724 40.3791H106.531C109.499 46.8262 111.156 54.0111 111.156 61.5874C111.156 66.6412 110.419 71.5208 109.048 76.123H109.563C108.715 78.7404 107.673 81.2691 106.453 83.6916H106.111C103.347 89.4026 99.5468 94.5081 94.9603 98.7587L77.9178 83.6916Z" fill="white"/>
<path fill-rule="evenodd" clip-rule="evenodd" d="M25.5157 30.707H20.4339C18.9178 33.1068 17.5861 35.6364 16.4587 38.2755H21.0863C22.3419 35.6123 23.827 33.0808 25.5157 30.707ZM109.457 38.2755C108.198 35.6123 106.709 33.0808 105.017 30.707H110.102C111.622 33.1067 112.957 35.6363 114.087 38.2755H109.457Z" fill="#E843C4" style="mix-blend-mode:multiply"/>
<path fill-rule="evenodd" clip-rule="evenodd" d="M14.7345 53.4121H12.2615V60.9806H14.3958C14.3804 60.4714 14.3726 59.9603 14.3726 59.4473C14.3726 57.404 14.4956 55.3899 14.7345 53.4121ZM112.173 60.9806C112.187 60.4816 112.195 59.9807 112.195 59.4781C112.195 57.4242 112.07 55.3998 111.829 53.4121H114.306V60.9806H112.173Z" fill="#E843C4" style="mix-blend-mode:multiply"/>
<path fill-rule="evenodd" clip-rule="evenodd" d="M19.2315 76.127H14.7722C15.6211 78.7441 16.6645 81.2727 17.8853 83.6955H22.6656C21.3195 81.2905 20.1676 78.7605 19.2315 76.127ZM46.9725 83.6955L53.116 78.4723H32.1491C30.2546 78.4723 28.6047 77.5399 27.5909 76.127H62.393L60.2258 77.9695L53.491 83.6955H46.9725ZM115.803 76.127C114.955 78.7443 113.913 81.273 112.694 83.6955H107.914C109.259 81.2908 110.409 78.7608 111.344 76.127H115.803ZM86.1229 83.6955H79.7482L73.2413 77.9428L71.1874 76.127H102.978C101.955 77.5495 100.291 78.4723 98.4185 78.4723H80.2149L86.1229 83.6955Z" fill="#E843C4" style="mix-blend-mode:multiply"/>
<path fill-rule="evenodd" clip-rule="evenodd" d="M21.7902 32.8105C30.8211 19.6946 45.8634 11.1115 62.891 11.1113C87.7471 11.1388 108.396 29.4299 112.275 53.4082H113.837V60.9767H112.925C112.928 61.18 112.929 61.3836 112.929 61.5874C112.929 66.6412 112.192 71.5208 110.821 76.123H111.967C111.119 78.7404 110.077 81.2691 108.858 83.6916H107.885C105.121 89.4026 101.32 94.5081 96.7338 98.7587L79.6912 83.6916H76.6717L96.0812 100.851L96.7475 101.44L97.4103 100.847C108.145 91.2441 114.929 77.2147 114.929 61.5874C114.929 54.0399 113.346 46.8644 110.497 40.3791H109.082C107.823 37.7158 106.334 35.1843 104.642 32.8105H106.401C97.0988 18.5513 81.0839 9.13121 62.8926 9.11133H62.8915C34.1568 9.11133 10.8845 32.5959 10.8845 61.5567C10.8845 66.6106 11.5931 71.4979 12.9157 76.123H14.9994C13.6236 71.511 12.8845 66.6211 12.8845 61.5567C12.8845 61.3631 12.8856 61.1698 12.8878 60.9767H11.7927V53.4082H13.5332C14.2701 48.8286 15.618 44.4563 17.4896 40.3791H16.0837C17.2111 37.7399 18.5428 35.2103 20.0589 32.8105H21.7902ZM17.9399 83.6916H15.7273C18.9458 90.6573 23.6369 96.7937 29.3989 101.695L30.0466 102.246L30.6945 101.695L57.1291 79.2207L59.2014 77.4588H56.9859L56.3898 77.9656L49.655 83.6916H48.7827L30.0525 99.616C25.0317 95.1975 20.8942 89.7887 17.9399 83.6916ZM48.115 79.4588L49.28 78.4684H28.3131C27.7451 78.4684 27.199 78.3845 26.6855 78.2291C27.4881 78.9893 28.5699 79.4588 29.7721 79.4588H48.115ZM25.423 76.123H27.5616C27.3703 75.7644 27.2617 75.354 27.2617 74.9183C27.2617 73.4978 28.4037 72.3778 29.7721 72.3778H96.0415C97.4292 72.3778 98.5519 73.5172 98.5519 74.9183C98.5519 75.3565 98.4432 75.7661 98.2527 76.123H99.1423C98.1194 77.5456 96.4547 78.4684 94.5825 78.4684H76.3789L77.4992 79.4588H96.0415C98.5193 79.4588 100.552 77.4385 100.552 74.9183C100.552 72.4402 98.5611 70.3778 96.0415 70.3778H29.7721C27.2943 70.3778 25.2617 72.398 25.2617 74.9183C25.2617 75.3342 25.3178 75.7384 25.423 76.123Z" fill="#E843C4" style="mix-blend-mode:multiply"/>
<path fill-rule="evenodd" clip-rule="evenodd" d="M21.7482 30.707H16.6663C15.1502 33.1068 13.8185 35.6364 12.6912 38.2755H17.3188C18.5743 35.6123 20.0594 33.0808 21.7482 30.707ZM105.689 38.2755C104.43 35.6123 102.942 33.0808 101.249 30.707H106.335C107.854 33.1067 109.189 35.6363 110.319 38.2755H105.689Z" fill="#FFBF00" style="mix-blend-mode:multiply"/>
<path fill-rule="evenodd" clip-rule="evenodd" d="M12.9669 53.4121H10.4939V60.9806H12.6282C12.6128 60.4714 12.605 59.9603 12.605 59.4473C12.605 57.404 12.728 55.3899 12.9669 53.4121ZM110.405 60.9806C110.42 60.4816 110.427 59.9807 110.427 59.4781C110.427 57.4242 110.303 55.3998 110.061 53.4121H112.538V60.9806H110.405Z" fill="#FFBF00" style="mix-blend-mode:multiply"/>
<path fill-rule="evenodd" clip-rule="evenodd" d="M15.4639 76.127H11.0046C11.8535 78.7441 12.8969 81.2727 14.1177 83.6955H18.898C17.5519 81.2905 16.4001 78.7605 15.4639 76.127ZM43.2049 83.6955L49.3484 78.4723H28.3815C26.487 78.4723 24.8371 77.5399 23.8233 76.127H58.6254L56.4582 77.9695L49.7234 83.6955H43.2049ZM112.035 76.127C111.188 78.7443 110.145 81.273 108.926 83.6955H104.147C105.491 81.2908 106.642 78.7608 107.577 76.127H112.035ZM82.3553 83.6955H75.9806L69.4738 77.9428L67.4199 76.127H99.2107C98.1878 77.5495 96.5231 78.4723 94.6509 78.4723H76.4473L82.3553 83.6955Z" fill="#FFBF00" style="mix-blend-mode:multiply"/>
<path fill-rule="evenodd" clip-rule="evenodd" d="M20.0168 32.8105C29.0477 19.6946 44.09 11.1115 61.1175 11.1113C78.1336 11.1301 93.1779 19.7081 102.22 32.8105H104.628C95.3254 18.5513 79.3104 9.13121 61.1192 9.11133H61.1181C42.9133 9.11133 26.9011 18.5375 17.6103 32.8105H20.0168ZM15.7162 40.3791H13.5244C11.7304 44.4738 10.4408 48.8436 9.7349 53.4082H10.4923C10.2534 55.386 10.1304 57.4001 10.1304 59.4434C10.1304 59.9564 10.1382 60.4675 10.1536 60.9767H9.1142C9.11212 61.1698 9.11108 61.3631 9.11108 61.5567C9.11108 66.6106 9.81961 71.4979 11.1423 76.123H12.8135C13.7249 78.7518 14.8459 81.2814 16.1564 83.6916H13.9539C17.1724 90.6573 21.8635 96.7937 27.6254 101.695L28.2732 102.246L28.9211 101.695L55.3556 79.2207L57.4279 77.4588H54.7079H53.8662L51.5138 79.4588H51.9879L28.279 99.616C17.7543 90.3539 11.1111 76.7399 11.1111 61.5567C11.1111 53.992 12.7605 46.8177 15.7162 40.3791ZM48.4262 79.4588L50.7786 77.4588H27.9986C27.7539 77.4588 27.5173 77.4233 27.2937 77.3572H26.9088C25.7043 77.3572 24.6206 76.8859 23.8175 76.123H25.7882C25.5969 75.7644 25.4883 75.354 25.4883 74.9183C25.4883 73.4978 26.6303 72.3778 27.9986 72.3778H94.2681C95.6557 72.3778 96.7785 73.5172 96.7785 74.9183C96.7785 76.3388 95.6365 77.4588 94.2681 77.4588H72.1551L74.4173 79.4588H94.2681C96.7458 79.4588 98.7785 77.4385 98.7785 74.9183C98.7785 72.4402 96.7876 70.3778 94.2681 70.3778H27.9986C25.5209 70.3778 23.4883 72.398 23.4883 74.9183C23.4883 77.3964 25.4791 79.4588 27.9986 79.4588H48.4262ZM77.9178 83.6916H76.1855L69.1356 77.4588H67.8484L69.8269 79.208L94.3078 100.851L94.9741 101.44L95.6369 100.847C106.372 91.2441 113.156 77.2147 113.156 61.5874C113.156 54.0399 111.573 46.8644 108.724 40.3791H106.531C109.499 46.8262 111.156 54.0111 111.156 61.5874C111.156 66.6412 110.419 71.5208 109.048 76.123H109.393C108.524 78.7443 107.456 81.2733 106.206 83.6916H106.111C103.347 89.4026 99.5468 94.5081 94.9603 98.7587L77.9178 83.6916Z" fill="#FFBF00" style="mix-blend-mode:multiply"/>
<defs>
<filter id="filter0_f_6357_66865" x="0" y="0" width="126.04" height="111.705" filterUnits="userSpaceOnUse" color-interpolation-filters="sRGB">
<feFlood flood-opacity="0" result="BackgroundImageFix"/>
<feBlend mode="normal" in="SourceGraphic" in2="BackgroundImageFix" result="shape"/>
<feGaussianBlur stdDeviation="4" result="effect1_foregroundBlur_6357_66865"/>
</filter>
</defs>
</svg>
