<svg width="20" height="20" viewBox="0 0 20 20" fill="none" xmlns="http://www.w3.org/2000/svg">
<circle cx="10" cy="10" r="9.5" stroke="#FCFCFC"/>
<path d="M9.66543 15C9.54151 15 9.43618 14.9625 9.34944 14.8876C9.27509 14.8002 9.23792 14.6941 9.23792 14.5693V10.6742H5.42751C5.30359 10.6742 5.19827 10.6367 5.11152 10.5618C5.03717 10.4744 5 10.3683 5 10.2434V9.64419C5 9.51935 5.03717 9.41948 5.11152 9.34457C5.19827 9.25718 5.30359 9.21348 5.42751 9.21348H9.23792V5.43071C9.23792 5.30587 9.27509 5.20599 9.34944 5.13109C9.43618 5.0437 9.54151 5 9.66543 5H10.316C10.4399 5 10.539 5.0437 10.6134 5.13109C10.7001 5.20599 10.7435 5.30587 10.7435 5.43071V9.21348H14.5725C14.6964 9.21348 14.7955 9.25718 14.8699 9.34457C14.9566 9.41948 15 9.51935 15 9.64419V10.2434C15 10.3683 14.9566 10.4744 14.8699 10.5618C14.7955 10.6367 14.6964 10.6742 14.5725 10.6742H10.7435V14.5693C10.7435 14.6941 10.7001 14.8002 10.6134 14.8876C10.539 14.9625 10.4399 15 10.316 15H9.66543Z" fill="#FCFCFC"/>
</svg>
