<svg width="22" height="21" viewBox="0 0 22 21" fill="none" xmlns="http://www.w3.org/2000/svg">
<path d="M16 8H19C20.1046 8 21 8.89543 21 10V18C21 19.1046 20.1046 20 19 20H3C1.89543 20 1 19.1046 1 18V10C1 8.89543 1.89543 8 3 8H6" stroke="#FCFCFC" stroke-linecap="round"/>
<path d="M11.6 1C11.6 0.668629 11.3314 0.4 11 0.4C10.6686 0.4 10.4 0.668629 10.4 1L11.6 1ZM10.5757 15.4243C10.8101 15.6586 11.19 15.6586 11.4243 15.4243L15.2426 11.6059C15.477 11.3716 15.477 10.9917 15.2426 10.7574C15.0083 10.523 14.6284 10.523 14.3941 10.7574L11 14.1515L7.60589 10.7574C7.37157 10.523 6.99167 10.523 6.75736 10.7574C6.52304 10.9917 6.52304 11.3716 6.75736 11.6059L10.5757 15.4243ZM10.4 1L10.4 15L11.6 15L11.6 1L10.4 1Z" fill="#FCFCFC"/>
</svg>
