<svg width="30" height="30" viewBox="0 0 30 30" fill="none" xmlns="http://www.w3.org/2000/svg">
<path fill-rule="evenodd" clip-rule="evenodd" d="M27.5 15C27.5 21.9037 21.9037 27.5 15 27.5C8.09625 27.5 2.5 21.9037 2.5 15C2.5 8.09625 8.09625 2.5 15 2.5C21.9037 2.5 27.5 8.09625 27.5 15ZM14.347 23.4375C14.4216 23.5264 14.5274 23.5708 14.6642 23.5708H15.3731C15.4975 23.5708 15.597 23.5264 15.6716 23.4375C15.7587 23.3613 15.8022 23.2597 15.8022 23.1327V21.8185C16.6604 21.7423 17.4005 21.5454 18.0224 21.228C18.6567 20.9105 19.1418 20.4851 19.4776 19.9518C19.8259 19.4185 20 18.7899 20 18.0661C20 17.3423 19.8445 16.7518 19.5336 16.2946C19.2351 15.8248 18.7687 15.4375 18.1343 15.1327C17.5 14.8153 16.6853 14.5169 15.6903 14.2375C14.8694 13.9962 14.204 13.7677 13.694 13.5518C13.1841 13.3359 12.8109 13.0883 12.5746 12.8089C12.3383 12.5169 12.2201 12.155 12.2201 11.7232C12.2201 11.0502 12.4689 10.555 12.9664 10.2375C13.4764 9.92004 14.1356 9.76131 14.944 9.76131C15.74 9.76131 16.3868 9.93909 16.8843 10.2946C17.3818 10.6502 17.6679 11.0883 17.7425 11.6089C17.7923 11.7486 17.8607 11.8439 17.9478 11.8946C18.0473 11.9454 18.1405 11.9708 18.2276 11.9708H19.2164C19.3532 11.9708 19.4527 11.9327 19.5149 11.8565C19.5771 11.7677 19.6082 11.6788 19.6082 11.5899C19.5958 11.1327 19.4465 10.6629 19.1604 10.1804C18.8744 9.69782 18.4515 9.27242 17.8918 8.90417C17.3321 8.53591 16.6356 8.30099 15.8022 8.19941V6.86607C15.8022 6.73909 15.7587 6.6375 15.6716 6.56131C15.597 6.47242 15.4975 6.42798 15.3731 6.42798H14.6642C14.5274 6.42798 14.4216 6.47242 14.347 6.56131C14.2724 6.6375 14.2351 6.73909 14.2351 6.86607V8.18036C13.0037 8.29464 12.0522 8.68829 11.3806 9.36131C10.709 10.0216 10.3731 10.8153 10.3731 11.7423C10.3731 12.4661 10.5162 13.0629 10.8022 13.5327C11.1007 14.0026 11.5485 14.3962 12.1455 14.7137C12.7425 15.0312 13.495 15.3232 14.403 15.5899C15.2736 15.8438 15.9826 16.0788 16.5298 16.2946C17.0771 16.5105 17.4813 16.7581 17.7425 17.0375C18.0162 17.3042 18.153 17.6597 18.153 18.1042C18.153 18.7518 17.898 19.2724 17.3881 19.6661C16.8905 20.047 16.107 20.2375 15.0373 20.2375C14.3408 20.2375 13.7687 20.1423 13.3209 19.9518C12.8856 19.7486 12.5498 19.501 12.3134 19.2089C12.0771 18.9042 11.9216 18.5994 11.847 18.2946C11.8221 18.1931 11.7724 18.1042 11.6978 18.028C11.6231 17.9518 11.5112 17.9137 11.3619 17.9137H10.4104C10.2985 17.9137 10.199 17.9581 10.1119 18.047C10.0373 18.1232 10 18.2121 10 18.3137C10.0249 18.8724 10.199 19.3994 10.5224 19.8946C10.8458 20.3899 11.3184 20.8153 11.9403 21.1708C12.5622 21.5137 13.3271 21.7232 14.2351 21.7994V23.1327C14.2351 23.2597 14.2724 23.3613 14.347 23.4375Z" fill="url(#paint0_linear_3221_8266)"/>
<defs>
<linearGradient id="paint0_linear_3221_8266" x1="14.997" y1="27.5051" x2="14.997" y2="2.50254" gradientUnits="userSpaceOnUse">
<stop stop-color="#FFBF00"/>
<stop offset="1" stop-color="#E843C4"/>
</linearGradient>
</defs>
</svg>
