<svg xmlns="http://www.w3.org/2000/svg" width="24" height="24" viewBox="0 0 24 24" fill="none">
  <path d="M23.8377 1.19104C23.6956 0.835427 23.4601 0.532908 23.1606 0.321107C22.861 0.109305 22.5106 -0.00243362 22.1529 -0.000211635H1.84274C1.48539 0.000551064 1.13592 0.113626 0.836723 0.325296C0.537531 0.536967 0.301475 0.838136 0.157191 1.19227C0.0129063 1.5464 -0.0334053 1.93828 0.0238739 2.32036C0.0811531 2.70244 0.239562 3.05831 0.479882 3.34479L0.489114 3.35604L8.30505 12.396V21.9998C8.30497 22.3618 8.39558 22.717 8.56723 23.0275C8.73887 23.3381 8.98511 23.5924 9.27969 23.7633C9.57427 23.9342 9.90614 24.0153 10.2399 23.998C10.5737 23.9806 10.8969 23.8655 11.175 23.6648L14.8678 20.9973C15.1209 20.8146 15.3285 20.5671 15.472 20.2766C15.6155 19.9861 15.6906 19.6618 15.6905 19.3323V12.396L23.5076 3.35604L23.5169 3.34479C23.7597 3.05961 23.9197 2.70327 23.9767 2.32025C24.0338 1.93722 23.9854 1.54448 23.8377 1.19104ZM14.345 11.0348C14.0243 11.403 13.8452 11.8898 13.8442 12.396V19.3323L10.1514 21.9998V12.396C10.1525 11.888 9.97414 11.3987 9.6529 11.0285L1.84274 1.99979H22.1529L14.345 11.0348Z" fill="#BDBDBD"/>
</svg>