<svg width="23" height="28" viewBox="0 0 23 28" fill="none" xmlns="http://www.w3.org/2000/svg">
<path d="M13.339 0.606048C13.2157 0.503557 13.0696 0.432206 12.913 0.398012C12.7564 0.363818 12.5938 0.367781 12.439 0.409569C12.2843 0.451357 12.1418 0.529744 12.0237 0.638121C11.9055 0.746499 11.8152 0.88169 11.7603 1.0323L9.01025 8.58355L5.99025 5.6573C5.88883 5.55893 5.76772 5.48317 5.63489 5.43501C5.50206 5.38685 5.36053 5.36738 5.21964 5.37789C5.07874 5.38841 4.94166 5.42865 4.81745 5.49599C4.69324 5.56333 4.58471 5.65622 4.499 5.76855C1.7915 9.31605 0.416504 12.8848 0.416504 16.3748C0.416504 19.2922 1.57543 22.0901 3.63833 24.153C5.70123 26.2159 8.49912 27.3748 11.4165 27.3748C14.3339 27.3748 17.1318 26.2159 19.1947 24.153C21.2576 22.0901 22.4165 19.2922 22.4165 16.3748C22.4165 8.94355 16.0678 2.8748 13.339 0.606048ZM18.4028 17.5423C18.1435 18.9907 17.4466 20.3248 16.4061 21.3652C15.3655 22.4055 14.0312 23.1021 12.5828 23.361C12.5278 23.3705 12.4722 23.3751 12.4165 23.3748C12.1657 23.3747 11.924 23.2804 11.7395 23.1105C11.5549 22.9406 11.441 22.7076 11.4202 22.4576C11.3994 22.2076 11.4734 21.959 11.6274 21.7609C11.7813 21.5629 12.0041 21.43 12.2515 21.3885C14.3228 21.0398 16.0803 19.2823 16.4315 17.2073C16.4759 16.9457 16.6224 16.7125 16.8388 16.559C17.0552 16.4054 17.3237 16.3441 17.5853 16.3885C17.8468 16.433 18.08 16.5795 18.2336 16.7959C18.3871 17.0122 18.4484 17.2807 18.404 17.5423H18.4028Z" fill="url(#paint0_linear_3221_8466)"/>
<defs>
<linearGradient id="paint0_linear_3221_8466" x1="3.6665" y1="31.9998" x2="33.6665" y2="5.9998" gradientUnits="userSpaceOnUse">
<stop stop-color="#E843C4"/>
<stop offset="1" stop-color="#FFBF00"/>
</linearGradient>
</defs>
</svg>
