<svg width="16" height="16" viewBox="0 0 16 16" fill="none" xmlns="http://www.w3.org/2000/svg">
<path d="M13.3081 8C13.3081 7.69138 13.266 7.41082 13.2239 7.11623L14.4022 6.09219C14.6547 5.86774 14.7109 5.50301 14.5425 5.20842L13.7149 3.77755C13.6356 3.63666 13.509 3.52838 13.3575 3.4719C13.206 3.41541 13.0394 3.41436 12.8872 3.46894L11.4002 3.97395C10.9513 3.59519 10.4463 3.3006 9.88521 3.09018L9.57659 1.56112C9.54352 1.40306 9.45724 1.26111 9.33214 1.15899C9.20704 1.05687 9.0507 1.00075 8.88922 1H7.2339C6.89723 1 6.61667 1.23848 6.54653 1.56112L6.23791 3.09018C5.67679 3.3006 5.17178 3.59519 4.72288 3.97395L3.23591 3.46894C3.08355 3.41662 2.91776 3.41878 2.76683 3.47507C2.61589 3.53135 2.48916 3.63826 2.40825 3.77755L1.5806 5.20842C1.41226 5.50301 1.46837 5.86774 1.72088 6.09219L2.89924 7.11623C2.85715 7.41082 2.81507 7.69138 2.81507 8C2.81507 8.30862 2.85715 8.58918 2.89924 8.88377L1.72088 9.90782C1.46837 10.1323 1.41226 10.497 1.5806 10.7916L2.40825 12.2224C2.57659 12.517 2.92729 12.6433 3.23591 12.5311L4.72288 12.0261C5.17178 12.4048 5.67679 12.6994 6.23791 12.9098L6.54653 14.4389C6.61667 14.7615 6.89723 15 7.2339 15H8.88922C9.22589 15 9.50645 14.7615 9.57659 14.4389L9.88521 12.9098C10.4463 12.6994 10.9513 12.4048 11.4002 12.0261L12.8872 12.5311C13.2099 12.6433 13.5465 12.503 13.7149 12.2224L14.5425 10.7916C14.7109 10.497 14.6547 10.1323 14.4022 9.90782L13.2239 8.88377C13.266 8.58918 13.3081 8.30862 13.3081 8ZM8.04753 10.8056C6.50445 10.8056 5.24192 9.54309 5.24192 8C5.24192 6.45691 6.50445 5.19439 8.04753 5.19439C9.59062 5.19439 10.8531 6.45691 10.8531 8C10.8531 9.54309 9.59062 10.8056 8.04753 10.8056Z" fill="#FCFCFC"/>
</svg>
