<svg width="33" height="32" viewBox="0 0 33 32" fill="none" xmlns="http://www.w3.org/2000/svg">
<path opacity="0.1" fill-rule="evenodd" clip-rule="evenodd" d="M0.777344 16C0.777344 7.16344 7.94079 0 16.7773 0C25.6139 0 32.7773 7.16344 32.7773 16C32.7773 24.8366 25.6139 32 16.7773 32C7.94079 32 0.777344 24.8366 0.777344 16Z" fill="white"/>
<path fill-rule="evenodd" clip-rule="evenodd" d="M12.8574 13.5588C12.7089 13.5588 12.5665 13.6134 12.4615 13.7104C12.3565 13.8075 12.2975 13.9392 12.2975 14.0765V19.7711C12.2975 19.9084 12.3565 20.0401 12.4615 20.1372C12.5665 20.2343 12.7089 20.2888 12.8574 20.2888H19.0161C19.1646 20.2888 19.307 20.2343 19.412 20.1372C19.517 20.0401 19.576 19.9084 19.576 19.7711V16.665C19.576 16.3791 19.8266 16.1473 20.1359 16.1473C20.4451 16.1473 20.6957 16.3791 20.6957 16.665V19.7711C20.6957 20.183 20.5188 20.578 20.2038 20.8693C19.8888 21.1606 19.4616 21.3242 19.0161 21.3242H12.8574C12.4119 21.3242 11.9847 21.1606 11.6697 20.8693C11.3547 20.578 11.1777 20.183 11.1777 19.7711V14.0765C11.1777 13.6646 11.3547 13.2696 11.6697 12.9783C11.9847 12.6871 12.4119 12.5234 12.8574 12.5234H16.2167C16.5259 12.5234 16.7766 12.7552 16.7766 13.0411C16.7766 13.327 16.5259 13.5588 16.2167 13.5588H12.8574Z" fill="#FCFCFC"/>
<path fill-rule="evenodd" clip-rule="evenodd" d="M17.8984 11.1778C17.8984 10.8919 18.1491 10.6602 18.4583 10.6602H21.8176C22.1268 10.6602 22.3775 10.8919 22.3775 11.1778V14.284C22.3775 14.5699 22.1268 14.8017 21.8176 14.8017C21.5084 14.8017 21.2577 14.5699 21.2577 14.284V11.6955H18.4583C18.1491 11.6955 17.8984 11.4638 17.8984 11.1778Z" fill="#FCFCFC"/>
<path fill-rule="evenodd" clip-rule="evenodd" d="M21.6516 11.4329C21.8702 11.635 21.8702 11.9628 21.6516 12.165L15.4929 17.8596C15.2742 18.0618 14.9197 18.0618 14.7011 17.8596C14.4824 17.6574 14.4824 17.3297 14.7011 17.1275L20.8598 11.4329C21.0785 11.2307 21.433 11.2307 21.6516 11.4329Z" fill="#FCFCFC"/>
</svg>
