<svg width="20" height="16" viewBox="0 0 20 16" fill="none" xmlns="http://www.w3.org/2000/svg">
<path d="M5.76923 0.4V4.4H0.384615C0.282609 4.4 0.184781 4.35786 0.112651 4.28284C0.0405219 4.20783 0 4.10609 0 4V1.6C0 1.17565 0.162087 0.768687 0.450605 0.468629C0.739122 0.168571 1.13044 0 1.53846 0H5.38462C5.48662 0 5.58445 0.0421428 5.65658 0.117157C5.72871 0.192172 5.76923 0.293913 5.76923 0.4ZM7.30769 15.6C7.30769 15.7061 7.34821 15.8078 7.42034 15.8828C7.49247 15.9579 7.5903 16 7.69231 16H12.3077C12.4097 16 12.5075 15.9579 12.5797 15.8828C12.6518 15.8078 12.6923 15.7061 12.6923 15.6V11.6H7.30769V15.6ZM0 12V14.4C0 14.8243 0.162087 15.2313 0.450605 15.5314C0.739122 15.8314 1.13044 16 1.53846 16H5.38462C5.48662 16 5.58445 15.9579 5.65658 15.8828C5.72871 15.8078 5.76923 15.7061 5.76923 15.6V11.6H0.384615C0.282609 11.6 0.184781 11.6421 0.112651 11.7172C0.0405219 11.7922 0 11.8939 0 12ZM0 6.4V9.6C0 9.70609 0.0405219 9.80783 0.112651 9.88284C0.184781 9.95786 0.282609 10 0.384615 10H5.76923V6H0.384615C0.282609 6 0.184781 6.04214 0.112651 6.11716C0.0405219 6.19217 0 6.29391 0 6.4ZM12.3077 0H7.69231C7.5903 0 7.49247 0.0421428 7.42034 0.117157C7.34821 0.192172 7.30769 0.293913 7.30769 0.4V4.4H12.6923V0.4C12.6923 0.293913 12.6518 0.192172 12.5797 0.117157C12.5075 0.0421428 12.4097 0 12.3077 0ZM19.6154 6H14.2308V10H19.6154C19.7174 10 19.8152 9.95786 19.8874 9.88284C19.9595 9.80783 20 9.70609 20 9.6V6.4C20 6.29391 19.9595 6.19217 19.8874 6.11716C19.8152 6.04214 19.7174 6 19.6154 6ZM7.30769 10H12.6923V6H7.30769V10ZM18.4615 0H14.6154C14.5134 0 14.4156 0.0421428 14.3434 0.117157C14.2713 0.192172 14.2308 0.293913 14.2308 0.4V4.4H19.6154C19.7174 4.4 19.8152 4.35786 19.8874 4.28284C19.9595 4.20783 20 4.10609 20 4V1.6C20 1.17565 19.8379 0.768687 19.5494 0.468629C19.2609 0.168571 18.8696 0 18.4615 0ZM19.6154 11.6H14.2308V15.6C14.2308 15.7061 14.2713 15.8078 14.3434 15.8828C14.4156 15.9579 14.5134 16 14.6154 16H18.4615C18.8696 16 19.2609 15.8314 19.5494 15.5314C19.8379 15.2313 20 14.8243 20 14.4V12C20 11.8939 19.9595 11.7922 19.8874 11.7172C19.8152 11.6421 19.7174 11.6 19.6154 11.6Z" fill="#FCFCFC" fill-opacity="0.08"/>
</svg>
