<svg width="40" height="24" viewBox="0 0 40 24" fill="none" xmlns="http://www.w3.org/2000/svg">
    <path d="M20.2125 1.59192L14.1625 6.36942C13.1562 7.16161 12.9625 8.58755 13.725 9.6052C14.5312 10.6899 16.1 10.9032 17.1812 10.0805L23.3875 5.37614C23.825 5.04708 24.45 5.12021 24.7938 5.54677C25.1375 5.97333 25.0562 6.58271 24.6187 6.91786L23.3125 7.90505L34.3875 17.85H37C38.6562 17.85 40 16.5399 40 14.925V7.12505C40 5.5102 38.6562 4.20005 37 4.20005H31.9562L31.7125 4.0477L27.175 1.21411C26.2188 0.616924 25.1 0.300049 23.9625 0.300049C22.6 0.300049 21.275 0.75708 20.2125 1.59192ZM21.6375 9.17255L18.4062 11.6222C16.4375 13.1213 13.5813 12.7313 12.1062 10.7569C10.7188 8.89833 11.0687 6.30239 12.9 4.85817L18.1 0.75708C17.375 0.458486 16.5938 0.306142 15.8 0.306142C14.625 0.300049 13.4812 0.641299 12.5 1.27505L8 4.20005H3C1.34375 4.20005 0 5.5102 0 7.12505V14.925C0 16.5399 1.34375 17.85 3 17.85H9.7625L15.475 22.9322C16.7 24.023 18.5938 23.9377 19.7125 22.7433C20.0562 22.3716 20.2875 21.939 20.4062 21.488L21.4688 22.4386C22.6875 23.5294 24.5875 23.4502 25.7062 22.2619C25.9875 21.9633 26.1938 21.616 26.325 21.2565C27.5375 22.0486 29.1875 21.8841 30.2062 20.7994C31.325 19.6111 31.2437 17.7586 30.025 16.6679L21.6375 9.17255Z" fill="url(#paint0_linear_3204_7427)"/>
    <defs>
        <linearGradient id="paint0_linear_3204_7427" x1="0" y1="13.281" x2="40" y2="13.281" gradientUnits="userSpaceOnUse">
        <stop stop-color="#E843C4"/>
        <stop offset="1" stop-color="#FFBF00"/>
        </linearGradient>
    </defs>
</svg>
