<svg width="19" height="16" viewBox="0 0 19 16" fill="none" xmlns="http://www.w3.org/2000/svg">
<path d="M19 0.8V2.4C19 2.61217 18.9166 2.81566 18.7681 2.96569C18.6197 3.11571 18.4183 3.2 18.2083 3.2H6.33333C6.12337 3.2 5.92201 3.11571 5.77354 2.96569C5.62507 2.81566 5.54167 2.61217 5.54167 2.4V0.8C5.54167 0.587827 5.62507 0.384344 5.77354 0.234315C5.92201 0.0842856 6.12337 0 6.33333 0H18.2083C18.4183 0 18.6197 0.0842856 18.7681 0.234315C18.9166 0.384344 19 0.587827 19 0.8ZM2.375 0H0.791667C0.581704 0 0.38034 0.0842856 0.231874 0.234315C0.0834077 0.384344 0 0.587827 0 0.8V2.4C0 2.61217 0.0834077 2.81566 0.231874 2.96569C0.38034 3.11571 0.581704 3.2 0.791667 3.2H2.375C2.58496 3.2 2.78633 3.11571 2.93479 2.96569C3.08326 2.81566 3.16667 2.61217 3.16667 2.4V0.8C3.16667 0.587827 3.08326 0.384344 2.93479 0.234315C2.78633 0.0842856 2.58496 0 2.375 0ZM18.2083 6.4H6.33333C6.12337 6.4 5.92201 6.48429 5.77354 6.63432C5.62507 6.78434 5.54167 6.98783 5.54167 7.2V8.8C5.54167 9.01217 5.62507 9.21566 5.77354 9.36569C5.92201 9.51572 6.12337 9.6 6.33333 9.6H18.2083C18.4183 9.6 18.6197 9.51572 18.7681 9.36569C18.9166 9.21566 19 9.01217 19 8.8V7.2C19 6.98783 18.9166 6.78434 18.7681 6.63432C18.6197 6.48429 18.4183 6.4 18.2083 6.4ZM2.375 6.4H0.791667C0.581704 6.4 0.38034 6.48429 0.231874 6.63432C0.0834077 6.78434 0 6.98783 0 7.2V8.8C0 9.01217 0.0834077 9.21566 0.231874 9.36569C0.38034 9.51572 0.581704 9.6 0.791667 9.6H2.375C2.58496 9.6 2.78633 9.51572 2.93479 9.36569C3.08326 9.21566 3.16667 9.01217 3.16667 8.8V7.2C3.16667 6.98783 3.08326 6.78434 2.93479 6.63432C2.78633 6.48429 2.58496 6.4 2.375 6.4ZM18.2083 12.8H6.33333C6.12337 12.8 5.92201 12.8843 5.77354 13.0343C5.62507 13.1843 5.54167 13.3878 5.54167 13.6V15.2C5.54167 15.4122 5.62507 15.6157 5.77354 15.7657C5.92201 15.9157 6.12337 16 6.33333 16H18.2083C18.4183 16 18.6197 15.9157 18.7681 15.7657C18.9166 15.6157 19 15.4122 19 15.2V13.6C19 13.3878 18.9166 13.1843 18.7681 13.0343C18.6197 12.8843 18.4183 12.8 18.2083 12.8ZM2.375 12.8H0.791667C0.581704 12.8 0.38034 12.8843 0.231874 13.0343C0.0834077 13.1843 0 13.3878 0 13.6V15.2C0 15.4122 0.0834077 15.6157 0.231874 15.7657C0.38034 15.9157 0.581704 16 0.791667 16H2.375C2.58496 16 2.78633 15.9157 2.93479 15.7657C3.08326 15.6157 3.16667 15.4122 3.16667 15.2V13.6C3.16667 13.3878 3.08326 13.1843 2.93479 13.0343C2.78633 12.8843 2.58496 12.8 2.375 12.8Z" fill="#FCFCFC" fill-opacity="0.08" />
</svg>
