<svg width="17" height="16" viewBox="0 0 17 16" fill="none" xmlns="http://www.w3.org/2000/svg">
<path d="M9.15915 8.44905L7.96096 9.648L6.85229 8.53933L8.05048 7.34088C8.29925 7.09249 8.29925 6.6902 8.05048 6.44216C7.80246 6.19376 7.40018 6.19376 7.15201 6.44216L5.95343 7.64061L5.12801 6.81493C5.11077 6.8318 3.5584 8.38406 3.54091 8.40165C2.36862 9.57441 2.28963 11.4242 3.30144 12.6891L0.604913 15.3852C0.465029 15.5257 0.465029 15.7539 0.604913 15.8948C0.745667 16.0354 0.97448 16.0354 1.11509 15.8948L3.81098 13.1987C5.07639 14.2099 6.92591 14.1306 8.09842 12.9588C8.11578 12.9412 9.66704 11.3883 9.68368 11.3708L8.85898 10.5466L10.0579 9.34769C10.3057 9.10003 10.3057 8.69773 10.0579 8.44886C9.8093 8.20084 9.40742 8.2009 9.15915 8.44905Z" fill="#8F8F8F"/>
<path d="M16.3945 0.10538C16.254 -0.0351265 16.0262 -0.0351265 15.8858 0.10538L13.1892 2.80191C11.9246 1.7901 10.0744 1.86921 8.90239 3.0415C8.88503 3.05886 7.33339 4.61174 7.31641 4.62923L8.14097 5.45367L9.15935 4.43516C9.4075 4.18739 9.80966 4.18739 10.0586 4.43516C10.3063 4.68331 10.3063 5.08623 10.0586 5.33389L9.03967 6.35265L10.1481 7.46082L11.1668 6.44231C11.415 6.19453 11.8164 6.19453 12.0653 6.44231C12.3135 6.69083 12.3135 7.09312 12.0653 7.34177L11.0468 8.36028L11.8726 9.18557C11.89 9.16871 13.4416 7.61644 13.459 7.59885C14.632 6.42669 14.7109 4.57631 13.6986 3.31141L16.3945 0.615139C16.5353 0.474385 16.5353 0.246079 16.3945 0.10544L16.3945 0.10538Z" fill="#8F8F8F"/>
</svg>
