<svg width="31" height="30" viewBox="0 0 31 30" fill="none" xmlns="http://www.w3.org/2000/svg">
<path fill-rule="evenodd" clip-rule="evenodd" d="M25.7855 21.8798C27.1458 19.8439 27.8719 17.4504 27.8719 15.0019C27.8757 13.3751 27.558 11.7636 26.9372 10.2599C26.3165 8.75616 25.4047 7.38991 24.2544 6.23958C23.1041 5.08925 21.7378 4.17751 20.2341 3.55671C18.7304 2.93592 17.1189 2.6183 15.4921 2.6221C13.0436 2.6221 10.6501 3.34817 8.61425 4.70848C6.57841 6.06879 4.99166 8.00225 4.05466 10.2644C3.11767 12.5265 2.87251 15.0156 3.35018 17.4171C3.82786 19.8185 5.00692 22.0244 6.73826 23.7558C8.4696 25.4871 10.6755 26.6662 13.0769 27.1438C15.4783 27.6215 17.9675 27.3764 20.2296 26.4394C22.4917 25.5024 24.4252 23.9156 25.7855 21.8798ZM10.3395 20.5483C11.3539 19.9038 12.5284 19.5685 13.7241 19.5821H17.3426C18.5122 19.5685 19.662 19.8886 20.6619 20.5062C21.6618 21.1238 22.4718 22.0142 23 23.0764C21.0106 25.0844 18.3299 26.2229 15.5284 26.2495C12.7269 26.2761 10.0258 25.1887 7.99998 23.2187C8.51329 22.1194 9.32515 21.1927 10.3395 20.5483ZM11.5684 13.8235C11.5684 11.7206 13.3401 9.99998 15.5334 9.99998C17.7245 9.99998 19.4983 11.7206 19.4983 13.8235C19.4983 15.9264 17.7245 17.647 15.5334 17.647C13.3422 17.647 11.5684 15.9264 11.5684 13.8235Z" fill="url(#paint0_linear_3221_8272)"/>
<defs>
<linearGradient id="paint0_linear_3221_8272" x1="15.4891" y1="27.3868" x2="15.4891" y2="2.62459" gradientUnits="userSpaceOnUse">
<stop stop-color="#FFBF00"/>
<stop offset="1" stop-color="#E843C4"/>
</linearGradient>
</defs>
</svg>
