<svg width="30" height="30" viewBox="0 0 30 30" fill="none" xmlns="http://www.w3.org/2000/svg">
<path fill-rule="evenodd" clip-rule="evenodd" d="M15.5448 2.5C16.9723 2.5 18.3857 2.78115 19.7045 3.32741C21.0233 3.87367 22.2216 4.67433 23.2309 5.68368L15.5448 13.3698L15.5448 2.5ZM24.3155 8.94506C25.3248 9.95441 26.1255 11.1527 26.6718 12.4715C27.218 13.7902 27.4992 15.2037 27.4992 16.6311C27.4992 18.0586 27.218 19.472 26.6718 20.7908C26.1255 22.1096 25.3248 23.3079 24.3155 24.3172L16.6294 16.6311L24.3155 8.94506ZM16.5256 27.0329C18.2362 26.514 19.7924 25.5812 21.0564 24.3172L13.3703 16.6312L13.3703 5.76138C11.5827 5.76138 9.82276 6.20222 8.24629 7.04487C6.66981 7.88751 5.32548 9.10594 4.33238 10.5922C3.33927 12.0785 2.72804 13.7868 2.55283 15.5657C2.37762 17.3447 2.64384 19.1394 3.3279 20.7908C4.01197 22.4423 5.09276 23.8996 6.47455 25.0336C7.85635 26.1676 9.49648 26.9433 11.2497 27.2921C13.0029 27.6408 14.815 27.5518 16.5256 27.0329Z" fill="url(#paint0_linear_3221_8260)"/>
<defs>
<linearGradient id="paint0_linear_3221_8260" x1="14.9968" y1="27.506" x2="14.9968" y2="2.50254" gradientUnits="userSpaceOnUse">
<stop stop-color="#FFBF00"/>
<stop offset="1" stop-color="#E843C4"/>
</linearGradient>
</defs>
</svg>
