<svg width="20" height="16" viewBox="0 0 20 16" fill="none" xmlns="http://www.w3.org/2000/svg">
<path d="M5.6508 2.96018C5.41889 3.10076 5.34486 3.40265 5.48544 3.63447C5.62601 3.86629 5.92797 3.94026 6.15988 3.79969L5.6508 2.96018ZM15.7539 9.6268C15.9708 9.78952 16.2786 9.74563 16.4414 9.52878L19.0943 5.99493C19.2571 5.77808 19.2132 5.47037 18.9963 5.30765C18.7795 5.14493 18.4717 5.18882 18.3089 5.40567L15.9507 8.54687L12.8091 6.18983C12.5922 6.02711 12.2844 6.07099 12.1216 6.28785C11.9588 6.5047 12.0026 6.81241 12.2195 6.97513L15.7539 9.6268ZM5.90534 3.37993C6.15988 3.79969 6.1597 3.79979 6.15955 3.79988C6.15955 3.79988 6.15943 3.79995 6.15942 3.79996C6.1594 3.79997 6.15951 3.79991 6.15974 3.79977C6.1602 3.79949 6.16118 3.7989 6.16266 3.79803C6.16561 3.79627 6.17057 3.79333 6.17748 3.7893C6.1913 3.78123 6.2129 3.76879 6.2418 3.75261C6.29962 3.72025 6.38654 3.67301 6.49879 3.61605C6.72359 3.50199 7.04833 3.34975 7.44309 3.19988C8.23822 2.89799 9.28972 2.61637 10.3692 2.65444C11.4366 2.69209 12.5252 3.04056 13.4454 3.9984C14.3748 4.96588 15.1776 6.60232 15.5626 9.30346L16.5348 9.16484C16.1325 6.34173 15.2738 4.48427 14.1537 3.31828C13.0244 2.14266 11.6756 1.71811 10.404 1.67326C9.14441 1.62884 7.95528 1.95526 7.09456 2.28204C6.66138 2.4465 6.30438 2.61375 6.05442 2.74059C5.92929 2.80408 5.83058 2.85765 5.76211 2.89598C5.72787 2.91515 5.70115 2.93052 5.68245 2.94144C5.6731 2.9469 5.66574 2.95124 5.66045 2.95439C5.6578 2.95597 5.65567 2.95725 5.65406 2.95821C5.65325 2.9587 5.65258 2.9591 5.65203 2.95943C5.65176 2.9596 5.65145 2.95978 5.65132 2.95987C5.65104 2.96003 5.6508 2.96018 5.90534 3.37993Z" fill="#FCFCFC"/>
<path d="M14.3492 13.0398C14.5811 12.8992 14.6551 12.5974 14.5146 12.3655C14.374 12.1337 14.072 12.0597 13.8401 12.2003L14.3492 13.0398ZM4.2461 6.3732C4.02921 6.21048 3.72142 6.25436 3.55862 6.47122L0.905722 10.0051C0.742926 10.2219 0.786776 10.5296 1.00366 10.6923C1.22055 10.8551 1.52834 10.8112 1.69114 10.5943L4.04927 7.45313L7.19093 9.81017C7.40782 9.97289 7.71561 9.92901 7.87841 9.71215C8.0412 9.4953 7.99735 9.18759 7.78047 9.02487L4.2461 6.3732ZM14.0947 12.6201C13.8401 12.2003 13.8403 12.2002 13.8404 12.2001C13.8405 12.2001 13.8406 12.2 13.8406 12.2C13.8406 12.2 13.8405 12.2001 13.8403 12.2002C13.8398 12.2005 13.8388 12.2011 13.8373 12.202C13.8344 12.2037 13.8294 12.2067 13.8225 12.2107C13.8087 12.2188 13.7871 12.2312 13.7582 12.2474C13.7004 12.2798 13.6135 12.327 13.5012 12.3839C13.2764 12.498 12.9517 12.6503 12.5569 12.8001C11.7618 13.102 10.7103 13.3836 9.63081 13.3456C8.56344 13.3079 7.47477 12.9594 6.55463 12.0016C5.62524 11.0341 4.82237 9.39768 4.43745 6.69654L3.46521 6.83516C3.86752 9.65827 4.72619 11.5157 5.84628 12.6817C6.97562 13.8573 8.32438 14.2819 9.59604 14.3267C10.8556 14.3712 12.0447 14.0447 12.9054 13.718C13.3386 13.5535 13.6956 13.3863 13.9456 13.2594C14.0707 13.1959 14.1694 13.1423 14.2379 13.104C14.2721 13.0849 14.2988 13.0695 14.3176 13.0586C14.3269 13.0531 14.3343 13.0488 14.3396 13.0456C14.3422 13.044 14.3443 13.0428 14.3459 13.0418C14.3467 13.0413 14.3474 13.0409 14.348 13.0406C14.3482 13.0404 14.3485 13.0402 14.3487 13.0401C14.349 13.04 14.3492 13.0398 14.0947 12.6201Z" fill="#FCFCFC"/>
</svg>
