<svg width="20" height="20" viewBox="0 0 20 20" fill="none" xmlns="http://www.w3.org/2000/svg">
<circle cx="10" cy="10" r="9.5" stroke="#FCFCFC"/>
<path d="M9.66543 10.6755H9.34944H9.23792H5.42751C5.30359 10.6755 5.19827 10.6381 5.11152 10.5632C5.03717 10.4758 5 10.3696 5 10.2448V9.64556C5 9.52071 5.03717 9.42084 5.11152 9.34593C5.19827 9.25854 5.30359 9.21484 5.42751 9.21484H9.23792H9.34944H9.64355H10.316H10.6134H10.7435H14.5725C14.6964 9.21484 14.7955 9.25854 14.8699 9.34593C14.9566 9.42084 15 9.52071 15 9.64556V10.2448C15 10.3696 14.9566 10.4758 14.8699 10.5632C14.7955 10.6381 14.6964 10.6755 14.5725 10.6755H10.7435H10.6134H10.316H9.66543Z" fill="#FCFCFC"/>
</svg>
