<svg width="33" height="32" viewBox="0 0 33 32" fill="none" xmlns="http://www.w3.org/2000/svg">
<path opacity="0.1" fill-rule="evenodd" clip-rule="evenodd" d="M0.777344 16C0.777344 7.16344 7.94079 0 16.7773 0C25.6139 0 32.7773 7.16344 32.7773 16C32.7773 24.8366 25.6139 32 16.7773 32C7.94079 32 0.777344 24.8366 0.777344 16Z" fill="white"/>
<g clip-path="url(#clip0_8848_106970)">
<path d="M19.1772 11.5979C19.1771 11.1287 19.3421 10.6743 19.6431 10.3144C19.9442 9.95447 20.3623 9.71188 20.8242 9.62906C21.2861 9.54624 21.7624 9.62846 22.1698 9.86135C22.5771 10.0942 22.8897 10.463 23.0527 10.903C23.2156 11.343 23.2187 11.8264 23.0613 12.2684C22.9039 12.7105 22.5961 13.0832 22.1917 13.3212C21.7873 13.5593 21.3121 13.6475 20.8492 13.5706C20.3863 13.4936 19.9652 13.2564 19.6596 12.9003L14.2852 15.3963C14.4087 15.7879 14.4087 16.208 14.2852 16.5995L19.6596 19.0955C19.9826 18.7198 20.4337 18.4774 20.9253 18.4152C21.4169 18.3531 21.9141 18.4757 22.3205 18.7593C22.7269 19.0428 23.0135 19.4671 23.1249 19.95C23.2363 20.4329 23.1644 20.9399 22.9232 21.3728C22.6821 21.8057 22.2888 22.1336 21.8196 22.2931C21.3505 22.4525 20.8388 22.4321 20.3838 22.2358C19.9288 22.0395 19.5629 21.6813 19.3569 21.2306C19.151 20.7799 19.1197 20.2688 19.2692 19.7963L13.8948 17.3003C13.6287 17.6104 13.2741 17.8315 12.8786 17.934C12.4831 18.0364 12.0657 18.0153 11.6826 17.8735C11.2994 17.7316 10.9689 17.4759 10.7355 17.1405C10.5021 16.8052 10.377 16.4065 10.377 15.9979C10.377 15.5893 10.5021 15.1906 10.7355 14.8553C10.9689 14.52 11.2994 14.2642 11.6826 14.1223C12.0657 13.9805 12.4831 13.9594 12.8786 14.0618C13.2741 14.1643 13.6287 14.3855 13.8948 14.6955L19.2692 12.1995C19.208 12.0048 19.177 11.802 19.1772 11.5979Z" fill="#FCFCFC"/>
</g>
<defs>
<clipPath id="clip0_8848_106970">
<rect width="12.8" height="12.8" fill="white" transform="translate(10.377 9.59766)"/>
</clipPath>
</defs>
</svg>
