<svg width="31" height="30" viewBox="0 0 31 30" fill="none" xmlns="http://www.w3.org/2000/svg">
<path d="M22.9 5C27.2111 5 28 7.24232 28 11.0091H22.7111V11.0475C20.2565 11.0475 18.2667 12.7684 18.2667 14.8912C18.2667 17.014 20.2565 18.7348 22.7111 18.7348H28V19.0808C28 22.7995 27.2111 25 22.9 25H7.96667C3.65556 25 3 22.7995 3 19.0808V10.1731C3 6.45437 3.65556 5.04182 7.96667 5.04182L22.9 5ZM27.0667 12.6619C27.5821 12.6619 28 13.0233 28 13.469V16.2749C27.994 16.7185 27.5796 17.0769 27.0667 17.0821H22.8111C21.5685 17.0965 20.4819 16.3607 20.2 15.314C20.0589 14.6642 20.257 13.9937 20.7413 13.4822C21.2257 12.9706 21.9467 12.6704 22.7111 12.6619H27.0667ZM23.3111 13.9591H22.9C22.6476 13.9565 22.4045 14.0415 22.225 14.1949C22.0455 14.3484 21.9444 14.5576 21.9444 14.7759C21.9444 15.2339 22.3705 15.6066 22.9 15.6119H23.3111C23.8389 15.6119 24.2667 15.2419 24.2667 14.7855C24.2667 14.3291 23.8389 13.9591 23.3111 13.9591ZM15.9778 9.35633H8.92222C8.39879 9.3563 7.97275 9.72046 7.96667 10.1731C7.96667 10.6311 8.39269 11.0038 8.92222 11.0091H15.9778C16.5055 11.0091 16.9333 10.6391 16.9333 10.1827C16.9333 9.72631 16.5055 9.35633 15.9778 9.35633Z" fill="url(#paint0_linear_3221_8278)"/>
<defs>
<linearGradient id="paint0_linear_3221_8278" x1="15.497" y1="25.0041" x2="15.497" y2="5.00203" gradientUnits="userSpaceOnUse">
<stop stop-color="#FFBF00"/>
<stop offset="1" stop-color="#E843C4"/>
</linearGradient>
</defs>
</svg>
