<svg width="33" height="32" viewBox="0 0 33 32" fill="none" xmlns="http://www.w3.org/2000/svg">
<path opacity="0.1" fill-rule="evenodd" clip-rule="evenodd" d="M0.777344 16C0.777344 7.16344 7.94079 0 16.7773 0C25.6139 0 32.7773 7.16344 32.7773 16C32.7773 24.8366 25.6139 32 16.7773 32C7.94079 32 0.777344 24.8366 0.777344 16Z" fill="white"/>
<path fill-rule="evenodd" clip-rule="evenodd" d="M15.5982 21.474C15.9785 21.5555 16.3731 21.5984 16.7777 21.5984C17.1833 21.5984 17.5789 21.5553 17.96 21.4734C19.6068 21.1195 20.9847 20.0414 21.7439 18.5888H21.8192V18.4393C22.177 17.7016 22.3777 16.8735 22.3777 15.9984C22.3777 15.1234 22.177 14.2953 21.8192 13.5575V13.4081H21.7439C20.9871 11.9602 19.6157 10.8843 17.9759 10.5269C17.5899 10.4428 17.189 10.3984 16.7777 10.3984C16.3712 10.3984 15.9748 10.4418 15.5929 10.524C13.9472 10.8785 12.5704 11.9562 11.8116 13.4081H11.7392V13.5515C11.3795 14.2908 11.1777 15.121 11.1777 15.9984C11.1777 16.8758 11.3795 17.7061 11.7392 18.4453V18.5888H11.8116C12.5712 20.0422 13.9502 21.1207 15.5982 21.474ZM12.5829 14.1081C12.3226 14.6847 12.1777 15.3247 12.1777 15.9984C12.1777 16.6722 12.3226 17.3121 12.5829 17.8888H13.8572C13.7479 17.25 13.6988 16.585 13.7063 15.9263C13.7133 15.3141 13.7692 14.6993 13.8746 14.1081H12.5829ZM15.0622 13.4081C15.1421 13.1331 15.235 12.8713 15.3404 12.6268C15.5484 12.1444 15.7956 11.7499 16.0727 11.4521C16.3025 11.4168 16.538 11.3984 16.7777 11.3984C17.0243 11.3984 17.2663 11.4178 17.5023 11.4552C17.792 11.7557 18.0497 12.1515 18.2667 12.632C18.3764 12.875 18.4733 13.135 18.557 13.4081H15.0622ZM14.8922 14.1081H18.7367C18.8568 14.6791 18.9243 15.2871 18.935 15.9018C18.9467 16.581 18.8887 17.257 18.7614 17.8888H14.8734C14.7547 17.2686 14.6986 16.6052 14.7062 15.9377C14.7134 15.3109 14.7766 14.6902 14.8922 14.1081ZM19.7563 14.1081C19.8649 14.6858 19.9245 15.2859 19.9348 15.8845C19.9464 16.5565 19.8961 17.236 19.7793 17.8888H20.9726C21.2329 17.3121 21.3777 16.6722 21.3777 15.9984C21.3777 15.3247 21.2329 14.6847 20.9726 14.1081H19.7563ZM20.5796 13.4081C20.1914 12.8395 19.679 12.3624 19.0815 12.016C19.1148 12.0834 19.147 12.1516 19.1781 12.2205C19.3455 12.5913 19.4852 12.9906 19.5973 13.4081H20.5796ZM14.0258 13.4081H12.9759C13.3775 12.8198 13.9121 12.3295 14.5364 11.9805C14.4966 12.0628 14.4586 12.1464 14.4221 12.2309C14.2636 12.5986 14.1315 12.9943 14.0258 13.4081ZM20.5796 18.5888H19.6251C19.5317 18.9431 19.4165 19.2851 19.2789 19.6085C19.228 19.7279 19.1738 19.8454 19.1163 19.9605C19.6989 19.6159 20.199 19.1463 20.5796 18.5888ZM18.3587 19.2169C18.4438 19.0169 18.5195 18.8069 18.5859 18.5888H15.0398C15.1089 18.8289 15.1886 19.0592 15.2788 19.2767C15.4937 19.7945 15.7596 20.2218 16.0702 20.5444C16.3009 20.58 16.5371 20.5984 16.7777 20.5984C17.0227 20.5984 17.2631 20.5793 17.4977 20.5424C17.8419 20.2017 18.1304 19.7533 18.3587 19.2169ZM14.5082 20.0005C13.896 19.6526 13.3714 19.1682 12.9759 18.5888H14.0043C14.0983 18.9625 14.2149 19.3219 14.3552 19.6599C14.4031 19.7754 14.4541 19.8891 14.5082 20.0005Z" fill="#FCFCFC"/>
</svg>
