<svg width="22" height="21" viewBox="0 0 22 21" fill="none" xmlns="http://www.w3.org/2000/svg">
<path d="M16 8H19C20.1046 8 21 8.89543 21 10V18C21 19.1046 20.1046 20 19 20H3C1.89543 20 1 19.1046 1 18V10C1 8.89543 1.89543 8 3 8H6" stroke="#FCFCFC" stroke-linecap="round"/>
<path d="M10.4 15C10.4 15.3314 10.6686 15.6 11 15.6C11.3314 15.6 11.6 15.3314 11.6 15L10.4 15ZM11.4243 0.575735C11.19 0.34142 10.8101 0.34142 10.5757 0.575735L6.75736 4.39411C6.52305 4.62843 6.52305 5.00833 6.75736 5.24264C6.99167 5.47695 7.37157 5.47695 7.60589 5.24264L11 1.84853L14.3941 5.24264C14.6284 5.47695 15.0083 5.47695 15.2426 5.24264C15.477 5.00833 15.477 4.62843 15.2426 4.39411L11.4243 0.575735ZM11.6 15L11.6 0.999999L10.4 0.999999L10.4 15L11.6 15Z" fill="#FCFCFC"/>
</svg>
