<svg width="22" height="24" viewBox="0 0 22 24" fill="none" xmlns="http://www.w3.org/2000/svg">
<path d="M13.4224 10.9962L15.1893 8.00571L19.9515 15.4049L19.9537 16.8244L19.9381 7.05324C19.9326 6.93538 19.8987 6.82058 19.8393 6.71854C19.7799 6.61649 19.6968 6.5302 19.5969 6.46694L11.0232 1.54757C10.9207 1.49902 10.8087 1.47408 10.6952 1.47462C10.5818 1.47515 10.47 1.50114 10.368 1.55065C10.3416 1.56388 10.3159 1.57867 10.2912 1.59495L10.2614 1.61376L1.93897 6.42453L1.90656 6.43906C1.86343 6.45899 1.82227 6.48293 1.78363 6.51056C1.62755 6.62174 1.52118 6.78935 1.48719 6.97764C1.48199 7.00621 1.47844 7.03504 1.47656 7.06401L1.48959 15.0265L5.92539 8.16819C6.48381 7.25882 7.70059 6.96584 8.83012 6.98175L10.1558 7.01595L2.34445 19.5122L3.26532 20.041L11.1703 7.02844L14.6643 7.01578L6.77973 20.3562L10.0658 22.2427L10.4584 22.4679C10.6278 22.5351 10.8158 22.5388 10.9877 22.4784L19.682 17.4523L18.0189 18.4131L13.4224 10.9962ZM14.0966 20.6812L10.778 15.4854L12.8037 12.0564L17.162 18.909L14.0966 20.6812Z" fill="#2D374B"/>
<path d="M10.7812 15.4856L14.0999 20.6812L17.1654 18.909L12.8073 12.0566L10.7812 15.4856Z" fill="#28A0F0"/>
<path d="M19.962 16.8246L19.9598 15.405L15.1975 8.00586L13.4297 10.996L18.027 18.4129L19.6901 17.4521C19.7706 17.387 19.8364 17.3057 19.8833 17.2134C19.9302 17.1212 19.9571 17.0202 19.9622 16.9169L19.962 16.8246Z" fill="#28A0F0"/>
<path d="M0 18.1642L2.34734 19.5135L10.1587 7.01724L8.83301 6.98303C7.70349 6.96713 6.4867 7.25993 5.92828 8.16947L1.49249 15.0278L0.000858095 17.315V18.1649L0 18.1642Z" fill="white"/>
<path d="M14.6644 7.0166L11.1706 7.02926L3.26562 20.0418L6.02856 21.6288L6.77987 20.3576L14.6644 7.0166Z" fill="white"/>
<path d="M21.4292 6.99858C21.4132 6.6389 21.3098 6.28849 21.1278 5.97757C20.9458 5.66665 20.6907 5.40455 20.3846 5.21387L11.6985 0.231045C11.3884 0.0790407 11.0475 0 10.702 0C10.3565 0 10.0156 0.0790407 9.70553 0.231045C9.633 0.267475 1.25845 5.11262 1.25845 5.11262C1.1421 5.16835 1.03081 5.23404 0.925837 5.30896C0.653911 5.50186 0.429338 5.75372 0.268984 6.04562C0.10863 6.33752 0.0166664 6.66187 0 6.99431V17.314L1.49163 15.0268L1.48014 7.0646C1.48712 6.95544 1.51828 6.84918 1.57138 6.75348C1.62448 6.65777 1.69819 6.57501 1.78721 6.51114C1.82664 6.48292 10.3442 1.56475 10.3713 1.55124C10.4732 1.50172 10.5851 1.47574 10.6985 1.47521C10.8119 1.47467 10.924 1.49961 11.0264 1.54816L19.6002 6.46787C19.7 6.53113 19.7831 6.61742 19.8425 6.71946C19.9019 6.82151 19.9358 6.93631 19.9414 7.05417V16.9179C19.9393 17.0201 19.9154 17.1208 19.8711 17.2131C19.8269 17.3054 19.7635 17.3872 19.685 17.453L18.022 18.4139L17.1647 18.9099L14.0991 20.6821L10.9902 22.4795C10.8183 22.54 10.6303 22.5363 10.4609 22.469L6.78279 20.3587L6.03149 21.6298L9.33708 23.5282C9.44646 23.5902 9.54385 23.6452 9.62374 23.69C9.74753 23.7584 9.83189 23.8055 9.86155 23.8199C10.1381 23.9407 10.4371 24.0021 10.739 23.9999C11.0159 24.0003 11.2905 23.9488 11.5483 23.8481L20.5781 18.6316C20.8329 18.4339 21.0411 18.1829 21.1881 17.8963C21.3351 17.6097 21.4173 17.2944 21.4289 16.9726L21.4292 6.99858Z" fill="#96BEDC"/>
</svg>
