<svg width="14" height="8" viewBox="0 0 14 8" fill="none" xmlns="http://www.w3.org/2000/svg">
<path d="M10.6863 0C10.6413 0.190259 10.5897 0.378898 10.5315 0.565578C11.4109 0.931473 12.1516 1.498 12.6662 2.19829C11.943 1.84173 11.1209 1.5659 10.2435 1.38545C10.1516 1.60432 10.0504 1.81922 9.9403 2.02957C10.7287 2.43484 11.3809 3.00576 11.8293 3.68313C11.1415 3.30142 10.3556 2.99191 9.51147 2.77024C9.39168 2.95018 9.26496 3.12544 9.13167 3.29567C9.76896 3.69544 10.2946 4.20884 10.6681 4.7964C10.0551 4.43978 9.36033 4.14007 8.61263 3.90967C8.50375 4.02202 8.39175 4.13133 8.27678 4.23749C8.73672 4.68578 9.0963 5.20002 9.33474 5.75056C8.86279 5.37004 8.32505 5.02138 7.73791 4.7152C7.60462 4.81947 7.46825 4.91971 7.32892 5.0158C7.61781 5.48233 7.82154 5.9792 7.93136 6.48487C7.60564 6.09458 7.22955 5.71718 6.81128 5.36073C6.68924 5.43173 6.56542 5.49967 6.43995 5.56447C6.63955 5.97542 6.77667 6.40193 6.84712 6.83096C6.58498 6.48369 6.28545 6.14391 5.95317 5.81698C5.76197 5.9036 5.56764 5.98309 5.37049 6.05527C5.4924 6.40531 5.57123 6.76116 5.60533 7.11551C5.40437 6.80902 5.17659 6.50602 4.92453 6.20989C4.75825 6.25991 4.59047 6.3048 4.42141 6.34449C4.46255 6.63656 4.47549 6.92716 4.46005 7.21242C4.34098 6.95376 4.20544 6.69467 4.05434 6.437C3.9074 6.46422 3.75977 6.48756 3.61159 6.50696C3.63214 6.73682 3.63521 6.965 3.62076 7.18958C3.52748 6.97816 3.42334 6.76622 3.30876 6.55482C3.07508 6.58151 2.84035 6.59844 2.60522 6.6056C2.59576 6.75344 2.57901 6.89956 2.55511 7.0434C2.50588 6.9006 2.45208 6.7572 2.39384 6.61351C1.66927 6.60613 0.94866 6.50584 0.249756 6.31504C0.581403 6.69813 0.947542 7.05131 1.34373 7.37031C2.44044 7.7828 3.60965 7.9964 4.79012 8C6.96526 7.99809 9.07229 7.28362 10.7519 5.97844C12.4314 4.67329 13.5794 2.85831 14 0.843091C12.9817 0.384856 11.8536 0.0978282 10.6863 0Z" fill="#FCFCFC"/>
</svg>
