<svg width="910" height="910" viewBox="0 0 910 910" fill="none" xmlns="http://www.w3.org/2000/svg">
<circle cx="454.801" cy="455.372" r="454.602" fill="#1B161E"/>
<path d="M760.692 463.187C760.692 547.876 727.071 624.854 672.135 680.149C667.418 684.899 661.249 687.241 655.104 687.241C648.265 687.241 641.451 684.344 636.678 678.632L499.1 550.055C496.072 545.73 499.165 539.781 504.445 539.781H608.997C630.345 539.781 647.645 522.472 647.645 501.125C647.645 479.777 630.345 462.477 608.997 462.477H300.457C279.11 462.477 261.801 479.785 261.801 501.125C261.801 522.464 279.11 539.781 300.457 539.781H414.215C419.494 539.781 422.587 545.73 419.56 550.055L272.769 678.632C267.995 684.344 261.181 687.241 254.342 687.241C248.198 687.241 242.028 684.899 237.312 680.149C182.383 624.846 148.754 547.876 148.754 463.187C148.754 293.677 286.715 158.947 454.731 158.947C622.748 158.947 760.701 293.677 760.692 463.187Z" fill="url(#paint0_linear_339_162)"/>
<defs>
<linearGradient id="paint0_linear_339_162" x1="454.723" y1="148.51" x2="454.723" y2="772.298" gradientUnits="userSpaceOnUse">
<stop offset="0.01" stop-color="#FFBF00"/>
<stop offset="1" stop-color="#E843C4"/>
</linearGradient>
</defs>
</svg>
