<svg width="137" height="58" viewBox="0 0 137 58" fill="none" xmlns="http://www.w3.org/2000/svg">
<g clip-path="url(#clip0_395_227)">
<path fill-rule="evenodd" clip-rule="evenodd" d="M108 0C124.014 0 137 12.9862 137 29C137 45.0138 124.014 58 108 58C91.9862 58 79 45.0138 79 29C79 12.9862 91.9862 0 108 0Z" fill="white"/>
<path d="M108.436 41.1243C99.1613 41.1243 91.6445 38.4447 91.6445 34.8545C91.6445 32.9811 93.6919 31.2933 96.9689 30.1043C99.5267 31.7457 103.819 32.5867 108.685 32.5867C113.435 32.5867 117.634 31.5601 120.215 29.9883C123.307 31.1657 125.227 32.8071 125.227 34.6167C125.227 38.2127 117.71 41.1243 108.436 41.1243Z" fill="#1E1E1E"/>
<path d="M108.535 31.7763C101.505 31.7763 95.8037 29.5723 95.8037 26.8521C95.8037 25.3441 97.5611 23.9926 100.316 23.0938C102.282 24.1202 105.229 24.7757 108.535 24.7757C111.841 24.7757 114.787 24.1202 116.753 23.0938C119.514 23.9984 121.266 25.3441 121.266 26.8521C121.272 29.5723 115.57 31.7763 108.535 31.7763Z" fill="#1E1E1E"/>
<path d="M108.486 23.9598C103.052 23.9598 98.6436 22.1386 98.6436 19.8998C98.6436 17.661 103.052 15.8398 108.486 15.8398C113.921 15.8398 118.329 17.661 118.329 19.8998C118.329 22.1386 113.921 23.9598 108.486 23.9598Z" fill="#1E1E1E"/>
<path d="M68 58C84.0163 58 97 45.0163 97 29C97 12.9837 84.0163 0 68 0C51.9837 0 39 12.9837 39 29C39 45.0163 51.9837 58 68 58Z" fill="white"/>
<path d="M68 57.5C83.7401 57.5 96.5 44.7401 96.5 29C96.5 13.2599 83.7401 0.5 68 0.5C52.2599 0.5 39.5 13.2599 39.5 29C39.5 44.7401 52.2599 57.5 68 57.5Z" stroke="white" stroke-opacity="0.05"/>
<path d="M60.8451 45.3219C69.1397 45.3219 69.1397 45.1984 70.5461 44.7809C72.3841 44.2353 65.3568 39.3711 60.8451 39.3711C56.3333 39.3711 52.6758 40.7032 52.6758 42.3465C52.6758 43.9898 56.3335 45.3219 60.8451 45.3219Z" fill="black"/>
<path d="M79.6801 20.0216L80.0616 20.4327L79.7281 20.8837C68.9104 35.5101 62.6787 42.1325 60.0347 41.2443C58.4242 40.7033 56.8091 39.0762 55.1939 36.7136C54.6262 35.8832 54.0931 35.0087 53.6083 34.1385C53.2854 33.559 53.0121 33.0305 52.8702 32.7328C52.6892 32.3531 52.6128 32.1191 52.5522 31.8119C52.5485 31.7931 52.5485 31.7931 52.545 31.775C52.5197 31.6446 52.5109 31.6034 52.492 31.5321C52.1665 30.3053 52 29.0342 52 27.7418C52 19.6001 58.6001 13 66.7418 13C69.2925 13 71.7505 13.6492 73.9289 14.8677L73.9851 14.9029C75.7686 16.1446 77.6657 17.8508 79.6801 20.0216ZM73.2397 16.032C71.269 14.9359 69.0485 14.3525 66.7418 14.3525C59.3471 14.3525 53.3525 20.3471 53.3525 27.7418C53.3525 28.9169 53.5037 30.0713 53.7992 31.1852C53.8285 31.2954 53.8417 31.3576 53.8727 31.5174C53.8759 31.5342 53.8759 31.5342 53.8791 31.5501C53.9182 31.7484 53.9595 31.8747 54.0911 32.1509C54.2205 32.4224 54.4807 32.9255 54.7897 33.4802C55.2557 34.3166 55.7678 35.1566 56.3104 35.9504C57.7697 38.0849 59.2169 39.5428 60.4653 39.9622C62.1304 40.5216 68.3989 33.886 78.3052 20.5325C76.5067 18.6341 74.8172 17.1339 73.2397 16.032Z" fill="black"/>
<path d="M73.2398 16.0311C71.2691 14.935 69.0486 14.3516 66.7419 14.3516C59.3472 14.3516 53.3525 20.3462 53.3525 27.7409C53.3525 28.916 53.5038 30.0704 53.7993 31.1843C53.8285 31.2945 53.8417 31.3567 53.8728 31.5165C53.876 31.5333 53.876 31.5333 53.8791 31.5492C53.9183 31.7475 53.9595 31.8738 54.0912 32.15C54.2206 32.4215 54.4807 32.9246 54.7898 33.4793C55.2558 34.3157 55.7679 35.1557 56.3105 35.9495C57.7698 38.084 59.217 39.5419 60.4654 39.9613C62.1305 40.5207 68.3989 33.8851 78.3053 20.5316C76.5068 18.6332 74.8173 17.133 73.2398 16.0311Z" fill="#EC1C79"/>
<path d="M69.4469 45.1867C61.3052 45.1867 54.7051 38.5866 54.7051 30.4449C54.7051 22.3033 61.3052 15.7031 69.4469 15.7031C77.5886 15.7031 84.1887 22.3033 84.1887 30.4449C84.1887 38.5866 77.5886 45.1867 69.4469 45.1867ZM69.4469 43.8343C76.8416 43.8343 82.8362 37.8397 82.8362 30.4449C82.8362 23.0502 76.8416 17.0556 69.4469 17.0556C62.0522 17.0556 56.0575 23.0502 56.0575 30.4449C56.0575 37.8397 62.0522 43.8343 69.4469 43.8343Z" fill="black"/>
<path d="M69.447 43.8373C76.8417 43.8373 82.8363 37.8427 82.8363 30.4479C82.8363 23.0532 76.8417 17.0586 69.447 17.0586C62.0522 17.0586 56.0576 23.0532 56.0576 30.4479C56.0576 37.8427 62.0522 43.8373 69.447 43.8373Z" fill="white"/>
<path fill-rule="evenodd" clip-rule="evenodd" d="M59.4305 33.1906L57.6582 27.8511H59.2108L60.1348 30.9185L61.1573 27.8359H62.4221L63.4446 30.9185L64.3686 27.8511H65.8909L64.1186 33.1906H62.8387L61.7708 30.1384L60.7104 33.1906H59.4305ZM66.4741 33.1527V27.8511H70.7381V29.1008H67.9282V29.9036H70.473V31.0624H67.9282V31.9031H70.776V33.1527H66.4741ZM72.8209 33.1527V29.1386H71.2304V27.8511H75.8807V29.1386H74.2902V33.1527H72.8209ZM76.5245 33.1527V27.8511H77.9938V29.8354H79.8796V27.8511H81.349V33.1527H79.8796V31.1381H77.9938V33.1527H76.5245Z" fill="black"/>
<path d="M52.8788 26.2553C52.5047 26.0682 52.353 25.6133 52.5401 25.2391C52.7271 24.865 53.1821 24.7134 53.5562 24.9004L55.7201 25.9824C56.0943 26.1695 56.2459 26.6244 56.0589 26.9985C55.8718 27.3727 55.4169 27.5243 55.0427 27.3372L52.8788 26.2553Z" fill="black"/>
<path d="M52.6296 29.8437C52.2499 29.6684 52.0841 29.2184 52.2593 28.8386C52.4346 28.4588 52.8846 28.293 53.2644 28.4683L55.4283 29.467C55.8081 29.6423 55.9739 30.0923 55.7986 30.472C55.6233 30.8518 55.1734 31.0176 54.7936 30.8424L52.6296 29.8437Z" fill="black"/>
<path d="M29 58C45.0163 58 58 45.0163 58 29C58 12.9837 45.0163 0 29 0C12.9837 0 0 12.9837 0 29C0 45.0163 12.9837 58 29 58Z" fill="url(#paint0_linear_395_227)"/>
<path d="M29 57.5C44.7401 57.5 57.5 44.7401 57.5 29C57.5 13.2599 44.7401 0.5 29 0.5C13.2599 0.5 0.5 13.2599 0.5 29C0.5 44.7401 13.2599 57.5 29 57.5Z" stroke="white" stroke-opacity="0.05"/>
<path d="M45.9448 29.2433C45.9448 33.9818 44.0636 38.2888 40.9899 41.3826C40.726 41.6484 40.3808 41.7794 40.037 41.7794C39.6544 41.7794 39.2731 41.6173 39.006 41.2977L31.3084 34.1037C31.139 33.8617 31.312 33.5288 31.6074 33.5288H37.4572C38.6517 33.5288 39.6197 32.5604 39.6197 31.366C39.6197 30.1715 38.6517 29.2036 37.4572 29.2036H20.1941C18.9996 29.2036 18.0312 30.172 18.0312 31.366C18.0312 32.5599 18.9996 33.5288 20.1941 33.5288H26.5589C26.8543 33.5288 27.0274 33.8617 26.858 34.1037L18.6448 41.2977C18.3777 41.6173 17.9965 41.7794 17.6139 41.7794C17.2701 41.7794 16.9249 41.6484 16.661 41.3826C13.5877 38.2883 11.7061 33.9818 11.7061 29.2433C11.7061 19.759 19.4252 12.2207 28.8259 12.2207C38.2266 12.2207 45.9452 19.759 45.9448 29.2433Z" fill="url(#paint1_linear_395_227)"/>
</g>
<defs>
<linearGradient id="paint0_linear_395_227" x1="29" y1="0" x2="29" y2="58" gradientUnits="userSpaceOnUse">
<stop stop-color="#211426"/>
<stop offset="1" stop-color="#190E1D"/>
</linearGradient>
<linearGradient id="paint1_linear_395_227" x1="28.8254" y1="11.6367" x2="28.8254" y2="46.5384" gradientUnits="userSpaceOnUse">
<stop offset="0.01" stop-color="#FFBF00"/>
<stop offset="1" stop-color="#E843C4"/>
</linearGradient>
<clipPath id="clip0_395_227">
<rect width="137" height="58" fill="white"/>
</clipPath>
</defs>
</svg>
