<svg width="122" height="53" viewBox="0 0 122 53" fill="none" xmlns="http://www.w3.org/2000/svg">
<g clip-path="url(#clip0_395_153)">
<path d="M96 52C110.359 52 122 40.3594 122 26C122 11.6406 110.359 0 96 0C81.6406 0 70 11.6406 70 26C70 40.3594 81.6406 52 96 52Z" fill="white"/>
<path d="M95.9999 51.5516C110.112 51.5516 121.552 40.1118 121.552 25.9999C121.552 11.8881 110.112 0.448242 95.9999 0.448242C81.8881 0.448242 70.4482 11.8881 70.4482 25.9999C70.4482 40.1118 81.8881 51.5516 95.9999 51.5516Z" stroke="white" stroke-opacity="0.05" stroke-width="0.896552"/>
<path d="M96 43C105.389 43 113 35.3888 113 26C113 16.6112 105.389 9 96 9C86.6112 9 79 16.6112 79 26C79 35.3888 86.6112 43 96 43Z" fill="#FFC800"/>
<path d="M96.0004 41.7857C104.719 41.7857 111.786 34.7183 111.786 26.0001C111.786 17.2819 104.719 10.2144 96.0004 10.2144C87.2822 10.2144 80.2148 17.2819 80.2148 26.0001C80.2148 34.7183 87.2822 41.7857 96.0004 41.7857Z" fill="black"/>
<path d="M103.557 17.5657H101.037L101.596 19.2888L101.784 19.8692L101.29 20.2274L97.04 23.3117L100.797 26.0463L105.258 22.8102L103.557 17.5657Z" fill="#FFC800"/>
<path d="M90.528 20.2177L90.035 19.8534L90.2244 19.2729L90.783 17.5571H88.2718L86.5645 22.7968L91.021 26.0401L94.7853 23.3104L90.528 20.2177Z" fill="#E1AA00"/>
<path d="M95.4788 20.3382L91.666 17.5635L91.0225 19.5392L95.4788 22.7825V20.3394V20.3382Z" fill="#E1AA00"/>
<path d="M100.155 17.5667L96.3369 20.3365V22.7796L100.796 19.5447L100.155 17.5667Z" fill="#FFC800"/>
<path d="M91.5141 26.7252L91.0284 27.0761L91.0186 27.104L95.4751 30.3474V23.8474L91.5141 26.7252Z" fill="#E1AA00"/>
<path d="M100.785 27.0759L100.3 26.7226L96.3408 23.8423V30.3399L100.794 27.1087L100.785 27.0759Z" fill="#FFC800"/>
<path d="M95.4776 31.3842L94.9846 31.0199L91.8506 28.7395L91.0225 31.2822L95.4788 34.5256V31.3781L95.4776 31.3842Z" fill="#E1AA00"/>
<path d="M99.97 28.7468L96.8274 31.026L96.3418 31.3817V34.5291L100.801 31.2955L99.97 28.7468Z" fill="#FFC800"/>
<path d="M61.4449 52.1096C75.7076 52.1096 87.2697 40.5474 87.2697 26.2848C87.2697 12.0221 75.7076 0.459961 61.4449 0.459961C47.1823 0.459961 35.6201 12.0221 35.6201 26.2848C35.6201 40.5474 47.1823 52.1096 61.4449 52.1096Z" fill="white"/>
<path d="M61.445 51.6642C75.4618 51.6642 86.8246 40.3014 86.8246 26.2846C86.8246 12.2679 75.4618 0.905029 61.445 0.905029C47.4283 0.905029 36.0654 12.2679 36.0654 26.2846C36.0654 40.3014 47.4283 51.6642 61.445 51.6642Z" stroke="white" stroke-opacity="0.05" stroke-width="0.890511"/>
<mask id="mask0_395_153" style="mask-type:luminance" maskUnits="userSpaceOnUse" x="46" y="10" width="31" height="32">
<path d="M76.6905 10.9231H46.4131V41.2005H76.6905V10.9231Z" fill="white"/>
</mask>
<g mask="url(#mask0_395_153)">
<path d="M70.8885 16.1162H52.1943V33.1069H70.8885V16.1162Z" fill="white"/>
<path fill-rule="evenodd" clip-rule="evenodd" d="M76.7002 26.0813C76.7002 34.4422 69.9225 41.22 61.5615 41.22C53.2007 41.22 46.4229 34.4422 46.4229 26.0813C46.4229 17.7204 53.2007 10.9426 61.5615 10.9426C69.9225 10.9426 76.7002 17.7204 76.7002 26.0813ZM57.2717 32.1057H54.3336C53.7162 32.1057 53.4113 32.1057 53.2253 31.9868C53.0245 31.8565 52.9019 31.6409 52.887 31.4028C52.8758 31.1835 53.0283 30.9156 53.3333 30.3801L60.5875 17.5934C60.8962 17.0504 61.0524 16.779 61.2495 16.6785C61.4615 16.5707 61.7143 16.5707 61.9263 16.6785C62.1234 16.779 62.2796 17.0504 62.5882 17.5934L64.0796 20.1967L64.0873 20.21C64.4207 20.7925 64.5896 21.0879 64.6635 21.3979C64.7453 21.7364 64.7453 22.0934 64.6635 22.4318C64.5891 22.7442 64.4217 23.0417 64.0833 23.6331L60.2729 30.3689L60.263 30.3862C59.9274 30.9735 59.7574 31.2712 59.5217 31.4957C59.2651 31.7412 58.9564 31.9196 58.6179 32.0202C58.3093 32.1057 57.9634 32.1057 57.2717 32.1057ZM64.6911 32.1057H68.9009C69.5219 32.1057 69.8344 32.1057 70.0205 31.9831C70.2212 31.8529 70.3476 31.6334 70.3589 31.3955C70.3696 31.1833 70.2204 30.9258 69.9281 30.4214C69.9181 30.4043 69.9079 30.3868 69.8976 30.369L67.789 26.7616L67.7649 26.721C67.4685 26.2199 67.319 25.9668 67.1269 25.869C66.915 25.7612 66.6658 25.7612 66.4539 25.869C66.2605 25.9694 66.1043 26.2335 65.7956 26.7653L63.6944 30.3727L63.6871 30.3851C63.3795 30.9161 63.2258 31.1815 63.2369 31.3992C63.2517 31.6372 63.3746 31.8565 63.5754 31.9868C63.7576 32.1057 64.07 32.1057 64.6911 32.1057Z" fill="#E84142"/>
</g>
<path d="M25.8249 51.6645C39.8417 51.6645 51.2045 40.3016 51.2045 26.2849C51.2045 12.2681 39.8417 0.905273 25.8249 0.905273C11.8081 0.905273 0.445312 12.2681 0.445312 26.2849C0.445312 40.3016 11.8081 51.6645 25.8249 51.6645Z" stroke="white" stroke-opacity="0.05" stroke-width="0.890511"/>
<path d="M25.8248 52.1096C40.0874 52.1096 51.6496 40.5474 51.6496 26.2848C51.6496 12.0221 40.0874 0.459961 25.8248 0.459961C11.5622 0.459961 0 12.0221 0 26.2848C0 40.5474 11.5622 52.1096 25.8248 52.1096Z" fill="url(#paint0_linear_395_153)"/>
<path d="M41.6929 27.0792C41.6929 31.4713 39.9493 35.4635 37.1002 38.3312C36.8556 38.5775 36.5356 38.699 36.217 38.699C35.8623 38.699 35.5089 38.5487 35.2613 38.2525L28.1264 31.5843C27.9694 31.36 28.1298 31.0515 28.4036 31.0515H33.8258C34.9329 31.0515 35.8301 30.1539 35.8301 29.0468C35.8301 27.9396 34.9329 27.0424 33.8258 27.0424H17.8246C16.7174 27.0424 15.8198 27.9401 15.8198 29.0468C15.8198 30.1535 16.7174 31.0515 17.8246 31.0515H23.7241C23.998 31.0515 24.1584 31.36 24.0013 31.5843L16.3886 38.2525C16.141 38.5487 15.7876 38.699 15.433 38.699C15.1143 38.699 14.7944 38.5775 14.5497 38.3312C11.7011 35.4631 9.95703 31.4713 9.95703 27.0792C9.95703 18.2883 17.1119 11.301 25.8254 11.301C34.5389 11.301 41.6933 18.2883 41.6929 27.0792Z" fill="url(#paint1_linear_395_153)"/>
</g>
<defs>
<linearGradient id="paint0_linear_395_153" x1="25.8248" y1="0.459922" x2="25.8248" y2="52.1096" gradientUnits="userSpaceOnUse">
<stop stop-color="#211426"/>
<stop offset="1" stop-color="#190E1D"/>
</linearGradient>
<linearGradient id="paint1_linear_395_153" x1="25.825" y1="10.7597" x2="25.825" y2="43.1101" gradientUnits="userSpaceOnUse">
<stop offset="0.01" stop-color="#FFBF00"/>
<stop offset="1" stop-color="#E843C4"/>
</linearGradient>
<clipPath id="clip0_395_153">
<rect width="122" height="53" fill="white"/>
</clipPath>
</defs>
</svg>
