<svg width="122" height="53" viewBox="0 0 122 53" fill="none" xmlns="http://www.w3.org/2000/svg">
<circle cx="96" cy="26" r="26" fill="white"/>
<circle cx="96" cy="26" r="25.5517" stroke="white" stroke-opacity="0.05" stroke-width="0.896552"/>
<path d="M96 43C105.389 43 113 35.3888 113 26C113 16.6112 105.389 9 96 9C86.6112 9 79 16.6112 79 26C79 35.3888 86.6112 43 96 43Z" fill="#FFC800"/>
<path d="M96.0004 41.7857C104.719 41.7857 111.786 34.7183 111.786 26.0001C111.786 17.2819 104.719 10.2144 96.0004 10.2144C87.2822 10.2144 80.2148 17.2819 80.2148 26.0001C80.2148 34.7183 87.2822 41.7857 96.0004 41.7857Z" fill="black"/>
<path d="M103.557 17.5656H101.037L101.596 19.2887L101.784 19.8691L101.29 20.2273L97.04 23.3116L100.797 26.0462L105.258 22.8101L103.557 17.5656Z" fill="#FFC800"/>
<path d="M90.528 20.2177L90.035 19.8534L90.2244 19.2729L90.783 17.5571H88.2718L86.5645 22.7968L91.021 26.0401L94.7853 23.3104L90.528 20.2177Z" fill="#E1AA00"/>
<path d="M95.4788 20.3381L91.666 17.5634L91.0225 19.5391L95.4788 22.7824V20.3393V20.3381Z" fill="#E1AA00"/>
<path d="M100.155 17.5667L96.3369 20.3365V22.7796L100.796 19.5447L100.155 17.5667Z" fill="#FFC800"/>
<path d="M91.5141 26.7251L91.0284 27.076L91.0186 27.1039L95.4751 30.3473V23.8473L91.5141 26.7251Z" fill="#E1AA00"/>
<path d="M100.785 27.0759L100.3 26.7226L96.3408 23.8423V30.3399L100.794 27.1087L100.785 27.0759Z" fill="#FFC800"/>
<path d="M95.4776 31.3842L94.9846 31.0199L91.8506 28.7395L91.0225 31.2822L95.4788 34.5256V31.3781L95.4776 31.3842Z" fill="#E1AA00"/>
<path d="M99.97 28.7468L96.8274 31.026L96.3418 31.3817V34.5291L100.801 31.2955L99.97 28.7468Z" fill="#FFC800"/>
<circle cx="61.4449" cy="26.2847" r="25.8248" fill="white"/>
<circle cx="61.4449" cy="26.2847" r="25.3796" stroke="white" stroke-opacity="0.05" stroke-width="0.890511"/>
<g clip-path="url(#clip0_6745_73756)">
<path d="M70.8885 16.1163H52.1943V33.107H70.8885V16.1163Z" fill="white"/>
<path fill-rule="evenodd" clip-rule="evenodd" d="M76.7002 26.0815C76.7002 34.4424 69.9225 41.2202 61.5615 41.2202C53.2007 41.2202 46.4229 34.4424 46.4229 26.0815C46.4229 17.7206 53.2007 10.9428 61.5615 10.9428C69.9225 10.9428 76.7002 17.7206 76.7002 26.0815ZM57.2717 32.1059H54.3337C53.7163 32.1059 53.4114 32.1059 53.2254 31.987C53.0246 31.8567 52.9019 31.6411 52.887 31.403C52.8758 31.1837 53.0283 30.9158 53.3333 30.3803L60.5875 17.5936C60.8962 17.0506 61.0524 16.7792 61.2495 16.6787C61.4615 16.5709 61.7144 16.5709 61.9264 16.6787C62.1235 16.7792 62.2797 17.0506 62.5883 17.5936L64.0797 20.1969L64.0873 20.2102C64.4207 20.7927 64.5897 21.0881 64.6636 21.3981C64.7454 21.7366 64.7454 22.0936 64.6636 22.432C64.5892 22.7444 64.4218 23.0419 64.0834 23.6333L60.2729 30.3691L60.263 30.3864C59.9274 30.9737 59.7574 31.2714 59.5217 31.4959C59.2651 31.7414 58.9564 31.9198 58.6179 32.0204C58.3093 32.1059 57.9634 32.1059 57.2717 32.1059ZM64.6911 32.1059H68.9009C69.5219 32.1059 69.8344 32.1059 70.0205 31.9833C70.2212 31.8531 70.3476 31.6336 70.3589 31.3957C70.3696 31.1835 70.2204 30.926 69.9281 30.4216C69.9181 30.4045 69.908 30.387 69.8977 30.3692L67.789 26.7618L67.765 26.7212C67.4686 26.2201 67.3191 25.967 67.127 25.8692C66.9151 25.7614 66.6658 25.7614 66.4539 25.8692C66.2605 25.9696 66.1043 26.2337 65.7956 26.7655L63.6944 30.3729L63.6872 30.3853C63.3796 30.9163 63.2259 31.1817 63.237 31.3994C63.2518 31.6374 63.3746 31.8567 63.5754 31.987C63.7576 32.1059 64.07 32.1059 64.6911 32.1059Z" fill="#E84142"/>
</g>
<circle cx="25.8248" cy="26.2848" r="25.8248" fill="url(#paint0_linear_6745_73756)"/>
<circle cx="25.8248" cy="26.2848" r="25.3796" stroke="white" stroke-opacity="0.05" stroke-width="0.890511"/>
<path d="M42 26.0082C42 30.7762 39.9132 35.0559 36.6108 37.9856L28.9339 31.2549H36.3907C36.9937 31.2549 37.4915 30.7666 37.4915 30.1539C37.4915 29.5507 37.0033 29.0528 36.3907 29.0528H15.6093C15.0063 29.0528 14.5085 29.5411 14.5085 30.1539C14.5085 30.757 14.9967 31.2549 15.6093 31.2549H23.985L15.6955 38.2441C12.2112 35.3048 10 30.9102 10 25.9986C10 17.1616 17.16 10 25.9952 10C34.8304 10.0096 42 17.1711 42 26.0082Z" stroke="url(#paint1_linear_6745_73756)" stroke-width="1.07586" stroke-miterlimit="10"/>
<defs>
<linearGradient id="paint0_linear_6745_73756" x1="25.8248" y1="0.459961" x2="25.8248" y2="52.1096" gradientUnits="userSpaceOnUse">
<stop stop-color="#211426"/>
<stop offset="1" stop-color="#190E1D"/>
</linearGradient>
<linearGradient id="paint1_linear_6745_73756" x1="26" y1="10" x2="26" y2="38.2441" gradientUnits="userSpaceOnUse">
<stop stop-color="#FFBF00"/>
<stop offset="1" stop-color="#E843C4"/>
</linearGradient>
<clipPath id="clip0_6745_73756">
<rect width="30.2774" height="30.2774" fill="white" transform="translate(46.4131 10.9232)"/>
</clipPath>
</defs>
</svg>
