<svg width="137" height="58" viewBox="0 0 137 58" fill="none" xmlns="http://www.w3.org/2000/svg">
<g clip-path="url(#clip0_408_151)">
<path fill-rule="evenodd" clip-rule="evenodd" d="M108 0C124.014 0 137 12.9862 137 29C137 45.0138 124.014 58 108 58C91.9862 58 79 45.0138 79 29C79 12.9862 91.9862 0 108 0Z" fill="white"/>
<path d="M106.799 0.262768C120.865 -0.550315 133.419 9.01154 136.371 22.7852C137.176 26.566 137.208 30.4769 136.468 34.274C134.623 43.6407 128.232 51.4626 119.426 55.1459C113.426 57.6664 106.563 58.016 100.327 56.1622C91.7814 53.6173 84.9027 47.2346 81.7317 38.9005C79.4551 32.9243 79.2762 26.1838 81.2276 20.0939C84.8214 8.82453 94.9931 0.937627 106.799 0.262768Z" fill="white"/>
<path d="M87.2951 25.0618C87.6528 24.9317 87.8886 24.6228 88.1732 24.387C89.092 23.6308 89.9945 22.8584 90.897 22.0941C91.3768 21.6875 91.8402 21.281 92.3118 20.8663C92.4419 20.7525 92.5557 20.6305 92.7427 20.6143C92.2549 21.2241 91.7914 21.8501 91.4418 22.5575C90.5068 23.3462 89.5717 24.143 88.6448 24.9399C88.2139 25.3057 87.7748 25.6635 87.352 26.0457C87.287 26.1026 87.2138 26.1757 87.1162 26.0944C87.1325 25.7529 87.1894 25.4033 87.2951 25.0618Z" fill="#6497D0"/>
<path d="M90.8701 26.7047C90.5855 26.729 90.4554 26.9811 90.2603 27.1356C89.4554 27.7861 88.6829 28.4528 87.9024 29.1276C87.6422 29.3553 87.3901 29.583 87.1137 29.7944C86.9348 29.9326 86.8616 29.8757 86.8697 29.6643C86.8697 29.4122 86.8697 29.1602 86.8697 28.9C87.1543 28.591 87.4877 28.3552 87.8048 28.0869C88.7154 27.3145 89.6098 26.5339 90.5368 25.7777C90.6181 25.7127 90.6831 25.5907 90.8213 25.672L90.8701 26.7047Z" fill="#468CCA"/>
<path d="M87.1066 26.1026C87.3668 26.0213 87.5213 25.7936 87.7245 25.631C88.7978 24.7447 89.8467 23.8422 90.9118 22.9397C91.0826 22.8015 91.1964 22.5901 91.4485 22.5657C91.2533 23.0454 91.0907 23.5332 90.9606 24.0292C90.7736 24.013 90.676 24.1593 90.5541 24.265C89.4483 25.2163 88.3344 26.1514 87.2286 27.0945C87.1635 27.1515 87.0985 27.2328 86.9928 27.2002C86.9765 26.8262 87.0172 26.4603 87.1066 26.1026Z" fill="#5C94CE"/>
<path d="M90.8064 25.6798C90.4649 25.8749 90.1884 26.1595 89.8876 26.4116C89.0908 27.062 88.3102 27.7287 87.5378 28.4036C87.3264 28.5906 87.1313 28.7939 86.8629 28.9158C86.8955 28.5906 86.7979 28.2573 86.9199 27.9401C88.1232 26.9157 89.3266 25.8912 90.5381 24.8667C90.6194 24.7935 90.7088 24.7122 90.8308 24.7691L90.8064 25.6798Z" fill="#4E8FCC"/>
<path d="M90.8404 24.7609C90.4501 24.9642 90.1574 25.2894 89.824 25.5659C89.0353 26.2164 88.271 26.8831 87.4904 27.5336C87.3197 27.6799 87.1977 27.9076 86.9376 27.932C86.9701 27.688 86.8725 27.436 87.0026 27.2002C87.7588 26.5497 88.5231 25.8993 89.2874 25.2569C89.7996 24.8179 90.32 24.3869 90.8404 23.9479C91.003 23.8096 90.9623 23.9641 90.9704 24.0373C90.9135 24.2731 90.881 24.517 90.8404 24.7609Z" fill="#5591CD"/>
<path d="M129.794 23.3628C129.859 23.3222 129.794 23.2734 129.802 23.2246L130.152 23.4197L130.339 23.6637C130.111 23.5986 129.957 23.4685 129.794 23.3628Z" fill="#263154"/>
<path d="M92.416 46.7708C92.603 46.8033 92.6925 46.9903 92.8469 47.0716L92.8388 47.1448C92.6681 47.0635 92.5217 46.9334 92.416 46.7708Z" fill="#424A7F"/>
<path d="M131.142 35.1199L131.247 35.1849C131.264 35.3069 131.207 35.4126 131.142 35.5589V35.1199Z" fill="#8CB7DE"/>
<path d="M92.9517 23.7771L93.0249 23.8503C93.0086 23.9072 92.9842 23.9722 92.968 24.0292L92.8379 24.1999C92.8704 23.9966 92.8785 23.8747 92.9517 23.7771Z" fill="#4F668A"/>
<path d="M90.8709 26.7045C90.9847 27.2249 91.0497 27.7534 91.1636 28.2819C91.2367 28.599 91.3343 28.5259 91.4969 28.3876C91.814 28.1274 92.1149 27.8429 92.4645 27.6315C92.5621 27.6477 92.619 27.729 92.6678 27.8022C93.5947 29.0137 94.8224 29.7536 96.2779 30.152C96.9446 30.339 97.6357 30.461 98.3268 30.5342C98.1073 30.2902 97.9284 30.0219 97.7902 29.7211C97.5544 29.2007 97.6357 28.7373 98.0341 28.3226C98.5138 27.8185 99.1399 27.6071 99.7822 27.4445C101.124 27.0948 102.49 27.0623 103.864 27.1599C104.97 27.2331 106.059 27.4201 107.133 27.7209C108.027 27.973 108.897 28.2657 109.686 28.7698C109.799 28.8592 109.873 28.9812 109.978 29.0706C110.995 30.1601 111.588 31.4448 111.629 32.9328C111.653 33.9572 111.369 34.9411 110.856 35.8436C109.93 37.4698 108.572 38.6569 106.954 39.5594C105.311 40.4782 103.498 41.0473 101.62 41.2425C98.2699 41.6084 95.1558 40.8766 92.3019 39.0959C89.9277 37.6161 88.0982 35.5915 86.6103 33.2499C85.9192 32.1359 85.3094 30.9732 84.7809 29.7699C84.7158 29.6235 84.6996 29.4609 84.6345 29.3389C84.6752 29.4853 84.7565 29.6398 84.602 29.7943C84.5532 29.1844 84.6101 28.5828 84.6426 27.9811C84.7239 26.3143 84.9841 24.6637 85.4151 23.0619C87.3746 15.8174 92.6271 9.92252 99.6034 7.14178C101.701 6.3043 103.905 5.78393 106.149 5.58066C109.694 5.25542 113.125 5.71888 116.475 6.90598C115.963 7.87355 113.06 10.4592 110.8 11.9634C110.734 11.3129 110.588 10.6706 110.36 10.0526C110.352 9.89 110.499 9.84121 110.588 9.7599C111.06 9.35336 111.531 8.95495 112.003 8.55654C112.052 8.51589 112.1 8.47523 112.141 8.43458C112.198 8.37766 112.287 8.32888 112.263 8.23944C112.247 8.15 112.141 8.15 112.06 8.13374C111.84 8.08495 111.621 8.06056 111.393 8.05243C111.084 8.01991 110.775 7.94673 110.466 7.9386C110.222 7.92234 109.986 7.86542 109.751 7.88168C109.629 7.88168 109.507 7.87355 109.385 7.85729C109.181 7.79224 108.97 7.82477 108.767 7.82477C108.645 7.82477 108.523 7.81663 108.393 7.82477C108.035 7.84103 107.685 7.78411 107.328 7.84916C107.238 7.86542 107.157 7.87355 107.067 7.87355C106.962 7.87355 106.864 7.88168 106.758 7.87355C106.628 7.85729 106.49 7.87355 106.36 7.9142C105.986 7.94673 105.612 7.97925 105.246 8.0443C104.799 8.14187 104.344 8.15813 103.905 8.27196C103.498 8.37766 103.083 8.43458 102.685 8.5728C102.156 8.71916 101.628 8.88177 101.108 9.06065C100.351 9.36149 99.579 9.63794 98.8553 10.0282C97.221 10.825 95.6924 11.8333 94.3265 13.0285C93.058 14.1262 91.9197 15.362 90.9359 16.7199C90.448 17.4029 89.9927 18.1103 89.5943 18.8502C89.3341 19.3299 89.0902 19.8177 88.8625 20.3137C88.6999 20.6959 88.5048 21.0699 88.3747 21.4683C88.2121 21.8667 88.082 22.2732 87.9519 22.6879C87.7974 23.1026 87.708 23.5335 87.5941 23.9482C87.5453 24.1108 87.5128 24.2816 87.4722 24.4523C87.4234 24.6556 87.3909 24.8589 87.3502 25.0621C87.2852 25.4036 87.2282 25.7532 87.1795 26.1029C87.1144 26.4606 87.0738 26.8184 87.0494 27.1843C86.9924 27.4201 87.0331 27.6721 86.9924 27.916C86.9274 28.2169 86.9681 28.5259 86.9518 28.8267C86.9437 29.0381 86.9355 29.2495 86.9437 29.4609C86.9437 29.5503 86.903 29.6723 86.9924 29.713C87.0981 29.7617 87.1713 29.6479 87.2526 29.591C87.5128 29.3796 87.7649 29.1601 88.0169 28.9405C88.8707 28.2088 89.7325 27.4851 90.5863 26.7533C90.6595 26.7045 90.7408 26.5419 90.8709 26.7045Z" fill="#4189C9"/>
<path d="M109.677 28.8347C108.669 28.233 107.572 27.8915 106.441 27.6232C104.962 27.2736 103.433 27.1272 101.913 27.2085C100.839 27.2654 99.7741 27.4118 98.7822 27.8834C98.6602 27.9403 98.5464 28.0053 98.4407 28.0785C97.6357 28.6151 97.5138 29.3307 98.0992 30.1031C98.2212 30.2657 98.3512 30.412 98.5139 30.6072C97.9935 30.6072 97.53 30.5096 97.0747 30.4202C95.847 30.1763 94.6924 29.7535 93.7004 28.9566C93.2207 28.5745 92.7898 28.1517 92.4727 27.615C92.6027 27.4036 92.8223 27.3061 93.0256 27.1841C93.4158 27.0215 93.7736 26.7857 94.1639 26.6068C95.8957 25.81 97.7496 25.3222 99.644 25.1433C100.4 25.0701 101.156 24.9969 101.921 25.0294C104.165 25.1189 106.393 25.5092 108.531 26.184C109.084 26.3548 109.629 26.5499 110.206 26.7369C110.206 26.5743 110.117 26.4767 110.052 26.371C109.824 25.9807 109.556 25.6067 109.263 25.2571C109.157 25.127 109.003 25.0213 109.011 24.8262C109.312 24.8993 109.621 24.9644 109.921 25.0376C110.003 25.0538 110.1 25.1026 110.149 25.0376C110.222 24.9481 110.117 24.875 110.068 24.8099C109.621 24.1432 109.068 23.574 108.466 23.0455C108.783 22.8585 109.108 23.013 109.417 23.0536C112.58 23.4602 115.459 24.5822 117.971 26.5499C121.296 29.1599 123.443 32.5261 124.354 36.6728C124.646 38.055 124.736 39.4779 124.63 40.8846C124.451 43.3319 123.679 45.5923 122.231 47.6006C122.134 47.7307 122.004 47.8364 121.939 47.9909C121.614 48.4787 121.126 48.8121 120.687 49.1699C118.288 51.1213 115.483 52.1376 112.466 52.6092C110.117 52.9832 107.726 53.0239 105.368 52.7312C101.652 52.2758 98.0992 50.9343 95.0095 48.8202C94.2533 48.308 93.5134 47.7795 92.8548 47.1453C92.8304 47.129 92.8304 47.0965 92.8467 47.0721L92.8548 47.064C92.993 47.0071 93.0825 47.1128 93.18 47.1778C94.7574 48.3649 96.5543 49.2349 98.4651 49.7472C99.1074 49.9098 99.7497 50.0399 100.408 50.1374C100.555 50.1944 100.717 50.1618 100.864 50.1944C100.896 50.1944 100.929 50.2025 100.953 50.2106C102.433 50.3895 103.913 50.2838 105.376 50.0236C108.588 49.4544 111.45 48.1129 113.889 45.9419C115.556 44.4703 116.873 42.7303 117.573 40.5837C118.272 38.4372 118.174 36.3476 117.19 34.2823C116.987 35.2092 116.507 35.9735 115.898 36.6728C115.288 37.3558 114.572 37.9412 113.775 38.3965C113.686 38.4534 113.58 38.551 113.475 38.4697C113.385 38.3965 113.434 38.2746 113.466 38.1851C113.662 37.5428 113.792 36.8842 113.865 36.2175C114.149 33.4123 113.068 31.2251 110.832 29.5746C110.458 29.2981 110.076 29.0542 109.677 28.8347Z" fill="#262F71"/>
<path d="M100.408 50.1944C99.5867 50.1131 98.7736 49.9424 97.9768 49.6984C96.4807 49.2431 95.0659 48.5845 93.7569 47.7227C93.4479 47.5194 93.1796 47.2429 92.8462 47.0803C92.6511 47.0559 92.5698 46.8608 92.4153 46.7795C89.1304 43.8605 86.8863 40.2748 85.6017 36.0874C84.9756 34.0547 84.6341 31.9407 84.6016 29.8104C84.6097 29.6478 84.6178 29.4933 84.6341 29.2413C84.7967 29.599 84.9187 29.8755 85.0488 30.1601C86.2277 32.7538 87.7401 35.1117 89.8216 37.0794C92.0331 39.169 94.6106 40.5675 97.6434 41.0554C101.197 41.6327 104.522 41.0147 107.579 39.0959C109.108 38.1364 110.352 36.9087 111.076 35.2256C111.946 33.1847 111.62 31.2903 110.287 29.5421C110.173 29.3876 110.043 29.2413 109.929 29.0949C110.084 28.9567 110.173 29.1193 110.262 29.1925C111.051 29.8511 111.677 30.6804 112.1 31.6236C112.507 32.5261 112.726 33.4937 112.734 34.4857C112.75 35.4939 112.523 36.494 112.084 37.4046C112.181 37.4046 112.271 37.3721 112.344 37.3071C112.767 37.0631 113.165 36.7786 113.539 36.4615C113.653 36.3639 113.759 36.2094 113.946 36.2338C113.848 36.9981 113.677 37.7543 113.45 38.4942C113.938 38.2177 114.409 37.9088 114.856 37.5591C115.206 37.2827 115.491 36.9412 115.84 36.6566C115.987 36.7217 115.987 36.868 116.019 36.99C116.58 39.0227 116.174 40.9172 115.173 42.7059C113.954 44.8769 112.165 46.4949 110.084 47.804C108.4 48.861 106.555 49.6171 104.612 50.0399C103.392 50.3164 102.14 50.3896 100.896 50.2595C100.733 50.17 100.562 50.2676 100.408 50.1944Z" fill="#161F42"/>
<path d="M131.141 35.1197C131.036 32.7943 130.458 30.5176 129.45 28.4199C128.792 27.0539 127.962 25.7774 126.978 24.6228C126.092 23.5739 125.076 22.6795 124.003 21.8258C124.1 21.7282 124.23 21.7445 124.344 21.7607C125.84 21.9315 127.304 22.2811 128.718 22.8015C129.068 22.9316 129.41 23.0861 129.735 23.2731C129.849 23.33 129.962 23.395 130.076 23.4682C130.101 23.4845 130.117 23.5251 130.158 23.517C130.133 23.4845 130.125 23.4438 130.141 23.4032C129.182 22.151 128.011 21.1021 126.791 20.1102C125.336 18.9312 123.751 17.923 122.059 17.1099C119.718 15.9553 117.205 15.1992 114.611 14.8821C114.384 14.8495 114.14 14.8821 113.92 14.8008C113.904 14.6463 114.034 14.5975 114.124 14.5243C115.644 13.2559 116.864 11.7598 117.726 9.97918C117.986 9.44254 118.205 8.88151 118.384 8.31236C118.433 8.14974 118.465 7.97086 118.628 7.87329C121.352 9.18235 123.791 11.0037 125.824 13.2396C131.223 19.1751 133.255 27.4279 131.239 35.1929C131.182 35.2173 131.174 35.1603 131.141 35.1197Z" fill="#4189C9"/>
<path d="M121.931 47.9907C121.931 47.7549 122.118 47.6166 122.24 47.4459C123.354 45.8604 124.029 44.1041 124.379 42.2015C124.598 41.0225 124.615 39.8354 124.541 38.6565C124.419 36.8433 123.956 35.0952 123.224 33.4202C122.687 32.1925 122.013 31.0297 121.216 29.9565C120.362 28.8263 119.37 27.7937 118.272 26.8993C116.581 25.5008 114.63 24.4519 112.532 23.8014C111.418 23.4437 110.264 23.2079 109.101 23.0941C108.889 23.0778 108.686 23.0209 108.467 23.0371C107.727 22.4924 106.971 21.9639 106.125 21.5817L106.133 21.5004C106.434 21.5004 106.743 21.5085 107.044 21.5004C111.304 21.4272 115.24 22.468 118.671 25.0617C122.224 27.753 124.452 31.3062 125.281 35.6968C125.989 39.437 125.444 42.9739 123.362 46.2181C122.956 46.8767 122.509 47.4865 121.931 47.9907Z" fill="#161F42"/>
<path d="M118.646 7.8734C118.223 9.18246 117.687 10.4346 116.914 11.5811C116.142 12.7356 115.199 13.7682 114.117 14.6464C114.052 14.6952 113.995 14.7521 113.938 14.809C113.564 14.996 113.255 15.2887 112.914 15.5164C111.654 16.3457 110.304 17.045 108.897 17.5897C108.865 17.5979 108.824 17.606 108.792 17.6141C108.726 17.5247 108.8 17.4922 108.84 17.4515C109.637 16.6872 110.133 15.7522 110.466 14.7114C110.499 14.5732 110.597 14.4594 110.727 14.4187C113.207 13.4349 115.19 11.8087 116.809 9.71097C116.955 9.52396 117.101 9.32882 117.28 9.08489C116.776 9.07676 116.394 9.32882 115.971 9.39386C115.89 9.40199 115.784 9.46704 115.768 9.31255C117.304 7.51564 118.467 5.41789 119.166 3.16565C119.207 3.01929 119.166 2.82415 119.37 2.75098C119.386 2.75911 119.394 2.77537 119.386 2.79163C119.386 2.80789 119.378 2.81602 119.378 2.81602C119.353 4.42593 119.126 6.0277 118.703 7.58069C118.679 7.67013 118.662 7.7677 118.646 7.8734Z" fill="#161F42"/>
<path d="M109.004 24.8344C109.508 25.3873 109.947 26.0053 110.313 26.6638C110.346 26.7289 110.435 26.8021 110.354 26.8752C110.289 26.9322 110.224 26.859 110.159 26.8346C108.508 26.2167 106.809 25.7532 105.069 25.4524C104.191 25.2979 103.304 25.2328 102.418 25.1678C101.621 25.119 100.816 25.1271 100.02 25.2003C98.1982 25.3467 96.4257 25.7369 94.7345 26.4687C94.2141 26.6964 93.6856 26.8996 93.1978 27.2005C93.1408 27.233 93.0758 27.2899 93.0107 27.2086C94.4743 26.176 96.1005 25.3954 97.8242 24.8995C100.198 24.1921 102.613 24.0213 105.077 24.2083C106.329 24.3059 107.573 24.501 108.793 24.7775C108.874 24.7856 108.939 24.81 109.004 24.8344Z" fill="#161F42"/>
<path d="M108.392 7.74316H108.758C108.953 7.82447 109.173 7.71877 109.368 7.80008H109.734C109.766 7.97896 109.62 8.05214 109.522 8.13344C107.831 9.56447 106.156 11.0036 104.465 12.4265C103.904 12.8981 103.351 13.3697 102.798 13.8413C102.709 13.8982 102.644 13.9795 102.603 14.0689C101.871 14.3454 101.188 14.6869 100.652 15.2804C100.4 15.565 100.229 15.8903 100.05 16.2155C99.5458 16.5407 99.123 16.9717 98.6677 17.3538C97.4643 18.362 96.2772 19.3946 95.0739 20.3947C94.9763 20.476 94.9031 20.598 94.7893 20.663C94.586 20.3541 94.6267 20.0126 94.6754 19.6792C94.8299 19.4272 95.0657 19.2727 95.2771 19.0857C96.448 18.0937 97.6107 17.1017 98.7734 16.1098C99.9117 15.1422 101.042 14.1746 102.18 13.2152C103.489 12.1094 104.79 10.9955 106.099 9.88157C106.823 9.26363 107.547 8.63756 108.286 8.03587C108.4 7.9627 108.473 7.88952 108.392 7.74316Z" fill="#5C94CE"/>
<path d="M129.792 23.3623C128.361 22.6711 126.84 22.2402 125.279 21.9881C124.856 21.9231 124.442 21.8337 124.019 21.8337C123.474 21.4922 122.938 21.1263 122.377 20.8011C120.563 19.7522 118.579 19.0367 116.506 18.7033C116.457 18.687 116.417 18.6708 116.376 18.6545C116.994 18.5407 119.116 18.8578 120.58 19.2643C121.946 19.6383 123.263 20.1506 124.523 20.8092C124.393 20.4108 124.149 20.1506 124.003 19.8335C123.986 19.7522 123.873 19.679 123.946 19.5896C124.019 19.5001 124.117 19.5977 124.19 19.6302C124.401 19.7278 124.604 19.8416 124.816 19.9392C126.588 20.858 128.263 21.9638 129.808 23.2322C129.889 23.3379 129.889 23.3379 129.792 23.3623Z" fill="#161F42"/>
<path d="M108.394 7.74322C108.435 7.83266 108.549 7.76761 108.606 7.86518C108.264 8.15789 107.923 8.45873 107.581 8.75144C106.955 9.27994 106.329 9.80845 105.703 10.337C104.817 11.085 103.931 11.8412 103.036 12.5892C102.418 13.1096 101.817 13.6462 101.199 14.1747C100.451 14.8089 99.6945 15.435 98.9546 16.0692C98.361 16.5733 97.7756 17.0855 97.182 17.5896C96.556 18.1182 95.9299 18.6467 95.3038 19.1752L94.6777 19.7037L94.8566 18.9068C94.759 18.6467 94.9704 18.5328 95.1087 18.4109C95.6778 17.9393 96.2389 17.4514 96.7999 16.9717C98.1171 15.8578 99.4261 14.7357 100.743 13.6218C101.874 12.6624 103.004 11.7029 104.134 10.7435C105.183 9.8491 106.24 8.96284 107.281 8.05219C107.362 7.97901 107.516 7.8977 107.289 7.80826C107.655 7.67817 108.029 7.77574 108.394 7.74322Z" fill="#6497D0"/>
<path d="M107.293 7.80825C107.374 7.82451 107.472 7.77572 107.561 7.8489C107.35 8.166 107.033 8.36927 106.748 8.6132C105.951 9.31245 105.138 9.99544 104.333 10.6784C103.593 11.3045 102.845 11.9224 102.105 12.5485C101.366 13.1746 100.626 13.8251 99.8776 14.4593C99.1295 15.0935 98.3896 15.7033 97.6497 16.3294C96.9098 16.9554 96.1699 17.5978 95.4219 18.2401C95.2024 18.4352 94.9015 18.5653 94.8446 18.8987C94.4543 18.9475 94.2429 19.2727 93.9583 19.4841C93.503 19.8093 93.1534 20.2565 92.7387 20.6224C92.3159 20.9233 91.9419 21.281 91.5516 21.6144C90.3808 22.6064 89.2181 23.6064 88.0472 24.5903C87.8846 24.7285 87.7383 24.8911 87.5594 25.0049C87.4781 25.0537 87.4049 25.1513 87.2911 25.07C87.2829 24.8586 87.3236 24.6472 87.413 24.4602C87.9984 24.0862 88.4863 23.5902 89.0148 23.1511C90.4702 21.9315 91.9094 20.6956 93.3567 19.4679C94.8039 18.2401 96.2268 17.0205 97.666 15.8009C99.0726 14.6056 100.479 13.4104 101.886 12.2152C103.325 10.9955 104.764 9.77591 106.195 8.54815C106.48 8.30423 106.781 8.07656 107.049 7.81638L107.293 7.80825Z" fill="#689AD1"/>
<path d="M110.467 7.86527C110.8 7.85713 111.117 7.94657 111.443 7.98723C111.532 8.18237 111.361 8.25555 111.264 8.34498C110.857 8.70274 110.434 9.0361 110.036 9.40199C109.995 9.34508 109.946 9.28816 109.906 9.23124C109.816 9.10115 109.751 9.13367 109.694 9.25564C109.215 10.2883 108.393 11.0038 107.491 11.638C106.483 12.3454 105.393 12.9389 104.247 13.4105C104.182 13.2967 104.182 13.2885 104.287 13.1828C104.507 12.9552 104.759 12.7682 104.995 12.5649C106.727 11.0932 108.459 9.62966 110.182 8.14171C110.28 8.06041 110.369 7.96284 110.467 7.86527Z" fill="#4E8FCC"/>
<path d="M110.466 7.86512C110.458 7.96269 110.401 8.06026 110.32 8.11717C109.206 9.06035 108.092 10.0117 106.978 10.9548C106.124 11.6785 105.279 12.4103 104.425 13.142C104.352 13.2071 104.206 13.2559 104.246 13.4103C103.71 13.6624 103.157 13.8901 102.596 14.0771C102.409 14.0283 102.563 13.9551 102.596 13.9226C102.929 13.6299 103.262 13.3372 103.604 13.0526C104.222 12.5241 104.848 11.9956 105.474 11.4671C106.092 10.9467 106.71 10.4263 107.32 9.90595C107.93 9.38558 108.547 8.85708 109.157 8.32857C109.352 8.15783 109.596 8.02773 109.726 7.79194C109.979 7.77568 110.222 7.85699 110.466 7.86512Z" fill="#5591CD"/>
<path d="M106.139 15.1994C106.781 14.8823 107.456 14.614 108.017 14.1505C108.131 14.1424 108.123 14.2156 108.09 14.2887C107.57 16.4353 105.944 17.85 103.74 18.0533C103.318 18.094 102.895 18.1428 102.464 18.1021C102.521 17.9476 102.667 17.9558 102.789 17.9232C103.269 17.7931 103.74 17.6549 104.188 17.4272C105.017 16.9963 105.627 16.3621 105.976 15.4921C106.001 15.3783 106.058 15.2726 106.139 15.1994Z" fill="#161F42"/>
<path d="M106.14 15.199C105.872 16.2235 105.221 16.9308 104.319 17.4431C103.741 17.7683 103.099 17.9228 102.465 18.1017C102.31 17.6464 102.481 17.2642 102.749 16.9146C103.066 16.508 103.506 16.256 103.969 16.0446C104.676 15.7193 105.4 15.4429 106.14 15.199Z" fill="#418AC9"/>
<path d="M94.79 20.6793C94.7982 20.5736 94.8551 20.4841 94.9445 20.4272C95.6763 19.8093 96.4081 19.1913 97.1399 18.5734C97.7415 18.0693 98.3351 17.5489 98.9368 17.0366C99.2539 16.7683 99.5628 16.4919 99.8718 16.2236C99.9287 16.1748 99.9856 16.1341 100.043 16.2236C99.9775 16.5 99.8962 16.7765 99.9043 17.0692C99.5791 17.4269 99.1807 17.7115 98.8148 18.0286C97.6765 19.0043 96.5382 19.9719 95.3999 20.9394C95.3511 20.9801 95.3185 21.0289 95.2779 21.0777C95.0584 21.037 94.8713 20.8907 94.79 20.6793Z" fill="#5591CD"/>
<path d="M95.2765 21.0778C95.2033 20.9395 95.3253 20.8989 95.3984 20.842C96.3335 20.0451 97.2685 19.2483 98.2036 18.4596C98.7321 18.0124 99.2606 17.5652 99.7972 17.118C99.8297 17.1018 99.8704 17.0855 99.911 17.0774C99.911 17.3294 99.9517 17.5734 100.025 17.8092C99.7078 18.1832 99.3012 18.4596 98.9353 18.7767C98.1141 19.4841 97.2929 20.1834 96.4554 20.8826C96.3985 20.9233 96.3497 20.9802 96.3335 21.0452C95.9839 21.1753 95.6342 21.2241 95.2765 21.0778Z" fill="#4E8FCC"/>
<path d="M96.3347 21.0538C96.2208 20.9725 96.3022 20.9155 96.3591 20.8586C97.0746 20.2569 97.7982 19.6553 98.5137 19.0536C98.9609 18.6796 99.4 18.2974 99.8472 17.9153C99.896 17.8584 99.9529 17.8258 100.026 17.8096L100.205 18.1755C100.067 18.395 99.8391 18.5251 99.6764 18.7284C98.7983 19.7041 97.8064 20.5253 96.5623 20.9969C96.4892 21.0212 96.416 21.0375 96.3347 21.0538Z" fill="#488DCA"/>
<path d="M110.035 9.41044C110.149 9.06895 110.507 8.96325 110.718 8.71932C110.946 8.45914 111.312 8.34531 111.45 7.98755C111.718 7.98755 111.97 8.06073 112.222 8.10138C112.442 8.14203 112.458 8.2396 112.304 8.37783C111.97 8.67054 111.637 8.97138 111.304 9.25596C110.986 9.52427 110.669 9.79259 110.352 10.0609C110.238 9.84138 110.133 9.62185 110.035 9.41044Z" fill="#468CCA"/>
<path d="M94.9771 23.3141C95.0341 23.4523 94.8714 23.5174 94.8877 23.6393C94.8064 23.2653 94.6031 23.1271 94.2291 23.2003C93.8307 23.2897 93.4729 23.493 93.2046 23.8019C93.1314 23.8832 93.042 23.9564 92.9607 24.0296C92.8957 23.9483 92.9607 23.8751 92.9851 23.8019C93.1477 23.2734 93.5055 22.8994 93.9527 22.5986C94.0502 22.5254 94.1641 22.4766 94.286 22.4441C94.8064 22.3221 95.091 22.5742 95.0178 23.1027C95.0259 23.1759 95.0097 23.249 94.9771 23.3141Z" fill="#428AC9"/>
<path d="M94.9763 23.3137C94.9763 23.2324 94.9845 23.1511 94.9845 23.0698C94.9926 22.5413 94.6918 22.338 94.1958 22.5657C93.6266 22.8259 93.2689 23.2893 93.0168 23.8503C92.9599 23.8585 92.9274 23.8422 92.9436 23.7772C93.1225 23.1104 93.4721 22.5657 94.0494 22.1754C94.1958 22.0778 94.3584 22.0209 94.521 21.9884C94.7893 21.9315 95.0577 22.0941 95.1227 22.3624C95.2121 22.6795 95.1634 23.0291 94.9763 23.3137Z" fill="#182144"/>
<path d="M99.6762 18.7279C99.5705 18.6466 99.6681 18.6141 99.7169 18.5735C99.8876 18.4515 99.9852 18.2401 100.197 18.175C100.473 18.6141 100.912 18.8093 101.376 18.9719C101.465 19.0044 101.563 19.0288 101.717 19.0694C101.01 19.2564 100.4 19.1833 99.8388 18.8011C99.7982 18.7523 99.7413 18.7279 99.6762 18.7279Z" fill="#458CCA"/>
<path d="M124.811 19.9313C124.583 19.9069 124.42 19.7524 124.217 19.6792C124.136 19.6467 124.063 19.5491 123.981 19.6142C123.916 19.6711 124.022 19.7524 123.998 19.8337C123.876 19.728 123.827 19.5654 123.762 19.4109C124.128 19.5572 124.485 19.7036 124.811 19.9313Z" fill="#63657D"/>
<path d="M115.783 18.5488C115.946 18.5244 116.117 18.5407 116.271 18.5813C116.076 18.6952 115.946 18.6789 115.783 18.5488Z" fill="#A09AA9"/>
<path d="M115.769 9.32861C115.81 9.41805 115.907 9.38553 115.972 9.40992L115.647 9.54001C115.623 9.40179 115.704 9.36927 115.769 9.32861Z" fill="#5A5D76"/>
<path d="M108.093 14.2803C108.076 14.2315 108.085 14.1665 108.02 14.1421C108.036 14.0933 108.093 14.0283 108.117 14.0527C108.19 14.1258 108.158 14.2071 108.093 14.2803Z" fill="#555A73"/>
<path d="M87.5371 23.9641C87.6184 23.5251 87.7079 23.086 87.903 22.6794C88.6185 22.1753 89.2527 21.5737 89.9194 21.0126C91.074 20.0369 92.2286 19.0612 93.375 18.0774C94.4239 17.183 95.4728 16.2886 96.5298 15.3942C97.6681 14.4267 98.8064 13.4591 99.9448 12.4915C100.977 11.6134 102.018 10.7353 103.051 9.849C103.774 9.23106 104.514 8.62124 105.222 7.98704C105.604 7.8976 105.986 7.84882 106.376 7.86508C106.409 7.83255 106.458 7.83255 106.498 7.84882C106.588 7.99517 106.474 8.07648 106.384 8.15779C105.401 8.98713 104.425 9.82461 103.441 10.6621C102.392 11.5483 101.351 12.4346 100.303 13.329C99.3349 14.1502 98.3755 14.9714 97.4079 15.7926C96.2371 16.7927 95.0581 17.7847 93.8792 18.7848C92.4156 20.0207 90.9602 21.2728 89.4966 22.5087C88.9275 22.9884 88.3746 23.4763 87.7973 23.9397C87.7485 23.9966 87.6509 24.1837 87.5371 23.9641Z" fill="#6D9CD2"/>
<path d="M105.221 7.98755C105.116 8.32904 104.79 8.45914 104.555 8.67054C103.782 9.35353 102.985 10.0121 102.205 10.6789C101.327 11.4188 100.44 12.1587 99.5623 12.9067C98.798 13.5572 98.0499 14.2158 97.2856 14.8662C96.5457 15.4923 95.7977 16.1102 95.0578 16.7445C94.3179 17.3787 93.5861 18.0129 92.8462 18.6389C92.1063 19.265 91.3664 19.8911 90.6184 20.5172C90.0085 21.0375 89.4069 21.5579 88.7971 22.0783C88.5531 22.2897 88.3011 22.4929 88.049 22.6962C87.9921 22.7369 87.9433 22.7613 87.8945 22.6962C87.984 22.2734 88.1222 21.8587 88.3173 21.4766C88.8784 21.1188 89.3499 20.6554 89.8541 20.2326C91.0086 19.2569 92.1632 18.2812 93.3097 17.2973C94.4968 16.281 95.692 15.2646 96.8791 14.2564C97.8629 13.4189 98.8468 12.5896 99.8225 11.7521C101.099 10.6707 102.367 9.57306 103.652 8.49979C103.75 8.43474 103.823 8.34531 103.863 8.24774C104.311 8.06886 104.774 8.07699 105.221 7.98755Z" fill="#729FD4"/>
<path d="M103.879 8.23071C104.066 8.2795 103.912 8.35268 103.879 8.3852C103.538 8.69417 103.188 9.00314 102.831 9.30398C102.213 9.82436 101.595 10.3447 100.977 10.8651C100.074 11.6213 99.1717 12.3856 98.2692 13.1499C97.5293 13.7759 96.7975 14.4183 96.0576 15.0443C95.2933 15.6948 94.529 16.3371 93.7647 16.9795C93.0248 17.6056 92.293 18.2398 91.5531 18.874C90.8132 19.5 90.0733 20.1261 89.3334 20.7522C89.0651 20.9799 88.7968 21.2075 88.5203 21.4352C88.4634 21.4758 88.4065 21.5815 88.3252 21.4677C88.4065 21.053 88.626 20.6871 88.813 20.3131C89.8131 19.4594 90.8214 18.6057 91.8296 17.7438C92.8622 16.8575 93.9029 15.9794 94.9356 15.1013C95.9275 14.2557 96.9114 13.4182 97.9033 12.5807C98.9441 11.6944 99.9929 10.8001 101.034 9.91379C101.57 9.45847 102.099 8.97875 102.66 8.53155C103.042 8.35268 103.465 8.30389 103.879 8.23071Z" fill="#78A2D5"/>
<path d="M102.66 8.53198C102.27 9.03609 101.75 9.38572 101.278 9.80039C100.66 10.337 100.034 10.8655 99.4079 11.394C98.7981 11.9063 98.1883 12.4185 97.5785 12.9389C96.9687 13.4593 96.367 13.9796 95.7572 14.4919C95.1474 15.0123 94.5213 15.5326 93.9034 16.053C93.3017 16.5652 92.7081 17.0775 92.1065 17.5897C91.3422 18.2402 90.5779 18.8825 89.8136 19.5249C89.5453 19.7525 89.2688 19.9802 89.0005 20.2079C88.9517 20.2566 88.8867 20.2892 88.8135 20.2973C89.0086 19.785 89.2525 19.2972 89.5452 18.8337C90.9356 17.7036 92.2935 16.5246 93.6594 15.3619C95.245 14.0122 96.8305 12.6787 98.4079 11.3209C99.2941 10.5566 100.221 9.82478 101.083 9.01983C101.587 8.81656 102.116 8.65394 102.66 8.53198Z" fill="#7DA5D6"/>
<path d="M101.075 9.02808C101.14 9.13378 101.027 9.1663 100.978 9.21508C100.303 9.80864 99.62 10.3941 98.937 10.9795C98.3353 11.4917 97.7336 11.9958 97.132 12.5081C96.3839 13.1423 95.6359 13.7765 94.8879 14.4026C94.278 14.9229 93.6764 15.4433 93.0665 15.9555C92.3023 16.606 91.538 17.2483 90.7818 17.8907C90.4647 18.159 90.1476 18.4354 89.8386 18.7038C89.7573 18.7851 89.6516 18.8339 89.5459 18.8501C89.9199 18.0939 90.3752 17.3784 90.8875 16.7198C91.3591 16.3702 91.79 15.9718 92.2372 15.5978C93.3999 14.614 94.5545 13.6301 95.7091 12.6463C96.6035 11.882 97.4979 11.1177 98.3922 10.3615C98.5305 10.2477 98.7012 10.1664 98.8069 10.0119C99.5224 9.56471 100.303 9.30452 101.075 9.02808Z" fill="#81A7D8"/>
<path d="M113.938 36.225C113.328 36.7291 112.718 37.2414 111.905 37.591C112.141 37.1194 112.32 36.6234 112.442 36.1112C112.921 33.9972 112.474 32.0702 111.23 30.3221C110.921 29.8911 110.506 29.5578 110.141 29.1756C110.084 29.1106 110.019 29.0374 109.913 29.0862C109.799 29.0293 109.75 28.9236 109.669 28.8422C109.718 28.7772 109.775 28.8097 109.832 28.8422C111.303 29.6797 112.531 30.7611 113.287 32.3141C113.653 33.0784 113.881 33.9077 113.954 34.7534C114.003 35.2412 113.995 35.7372 113.938 36.225Z" fill="#0E1F66"/>
<path d="M87.538 23.9643C87.7819 24.0537 87.8632 23.8098 87.9852 23.7123C89.2211 22.6878 90.4407 21.647 91.6603 20.5981C92.8149 19.6143 93.9532 18.6224 95.1078 17.6385C96.3925 16.549 97.6853 15.4676 98.9781 14.3781C100.133 13.3942 101.279 12.4023 102.434 11.4184C103.678 10.3614 104.922 9.29629 106.174 8.23115C106.304 8.12545 106.483 8.06854 106.507 7.86527C106.58 7.80022 106.678 7.8734 106.751 7.80835H107.06C106.971 8.13358 106.654 8.24741 106.434 8.44255C105.8 9.01171 105.141 9.54835 104.499 10.0931C103.759 10.7192 103.011 11.3453 102.271 11.9713C101.669 12.4836 101.076 12.9958 100.474 13.5081C99.5879 14.2561 98.6935 15.0041 97.8153 15.7603C97.2137 16.2725 96.6201 16.7848 96.0184 17.297C95.2541 17.9475 94.4898 18.5898 93.7255 19.2322C93.1239 19.7444 92.5303 20.2566 91.9286 20.7689C91.3107 21.2893 90.6927 21.8096 90.0748 22.33C89.4569 22.8504 88.847 23.387 88.2291 23.9074C88.0177 24.0863 87.79 24.2651 87.5705 24.444C87.5217 24.4847 87.4729 24.5172 87.416 24.444C87.416 24.2895 87.4567 24.1188 87.538 23.9643Z" fill="#699AD1"/>
<path d="M98.8143 9.99561C98.7655 10.2883 98.4809 10.3615 98.302 10.5241C97.676 11.0851 97.0336 11.6136 96.3913 12.1584C95.6433 12.7926 94.8952 13.4187 94.1472 14.0529C93.5455 14.5651 92.9519 15.0774 92.3503 15.5896C91.9112 15.9636 91.4803 16.3377 91.0412 16.7117C90.9924 16.7523 90.9436 16.7848 90.8867 16.7117C91.2038 16.2238 91.5616 15.7604 91.9519 15.3213C93.3829 13.6545 95.0172 12.2072 96.8873 11.0445C97.5133 10.6623 98.1313 10.2639 98.8143 9.99561Z" fill="#88ABD9"/>
<path d="M109.369 7.80836C109.165 7.78397 108.954 7.8734 108.759 7.75144C108.962 7.77583 109.173 7.6864 109.369 7.80836Z" fill="#5591CD"/>
<path d="M106.741 7.80862C106.676 7.89805 106.578 7.8574 106.497 7.86553H106.375C106.489 7.75983 106.619 7.82488 106.741 7.80862Z" fill="#689AD1"/>
<path d="M100.887 50.2514C102.879 50.3409 104.863 50.0238 106.725 49.3326C108.538 48.674 110.229 47.7227 111.733 46.5112C113.205 45.316 114.473 43.95 115.319 42.2344C115.774 41.3156 116.059 40.3237 116.148 39.3073C116.23 38.3885 116.075 37.5185 115.823 36.6567C115.847 36.4453 116.043 36.3477 116.156 36.2014C116.595 35.6241 116.913 35.0061 117.051 34.2906C117.075 34.193 117.108 34.1036 117.148 34.0142C117.425 34.5671 117.644 35.1443 117.799 35.7379C118.01 36.5754 118.132 37.4291 118.067 38.291C117.953 39.787 117.506 41.2425 116.758 42.5434C116.01 43.8606 115.051 44.9826 113.945 45.9909C112.969 46.8609 111.896 47.617 110.741 48.2268C109.351 48.983 107.871 49.544 106.326 49.9099C105.367 50.1376 104.383 50.2758 103.399 50.3327C102.919 50.3571 102.448 50.3978 101.976 50.3734C101.627 50.3409 101.253 50.3653 100.887 50.2514Z" fill="#0E1F66"/>
<path d="M68 58C84.0163 58 97 45.0163 97 29C97 12.9837 84.0163 0 68 0C51.9837 0 39 12.9837 39 29C39 45.0163 51.9837 58 68 58Z" fill="white"/>
<path d="M68 57.5C83.7401 57.5 96.5 44.7401 96.5 29C96.5 13.2599 83.7401 0.5 68 0.5C52.2599 0.5 39.5 13.2599 39.5 29C39.5 44.7401 52.2599 57.5 68 57.5Z" stroke="white" stroke-opacity="0.05"/>
<path d="M60.8451 45.3219C69.1397 45.3219 69.1397 45.1984 70.5461 44.7809C72.3841 44.2353 65.3568 39.3711 60.8451 39.3711C56.3333 39.3711 52.6758 40.7032 52.6758 42.3465C52.6758 43.9898 56.3335 45.3219 60.8451 45.3219Z" fill="black"/>
<path d="M79.6801 20.0216L80.0616 20.4327L79.7281 20.8837C68.9104 35.5101 62.6787 42.1325 60.0347 41.2443C58.4242 40.7033 56.8091 39.0762 55.1939 36.7136C54.6262 35.8832 54.0931 35.0087 53.6083 34.1385C53.2854 33.559 53.0121 33.0305 52.8702 32.7328C52.6892 32.3531 52.6128 32.1191 52.5522 31.8119C52.5485 31.7931 52.5485 31.7931 52.545 31.775C52.5197 31.6446 52.5109 31.6034 52.492 31.5321C52.1665 30.3053 52 29.0342 52 27.7418C52 19.6001 58.6001 13 66.7418 13C69.2925 13 71.7505 13.6492 73.9289 14.8677L73.9851 14.9029C75.7686 16.1446 77.6657 17.8508 79.6801 20.0216ZM73.2397 16.032C71.269 14.9359 69.0485 14.3525 66.7418 14.3525C59.3471 14.3525 53.3525 20.3471 53.3525 27.7418C53.3525 28.9169 53.5037 30.0713 53.7992 31.1852C53.8285 31.2954 53.8417 31.3576 53.8727 31.5174C53.8759 31.5342 53.8759 31.5342 53.8791 31.5501C53.9182 31.7484 53.9595 31.8747 54.0911 32.1509C54.2205 32.4224 54.4807 32.9255 54.7897 33.4802C55.2557 34.3166 55.7678 35.1566 56.3104 35.9504C57.7697 38.0849 59.2169 39.5428 60.4653 39.9622C62.1304 40.5216 68.3989 33.886 78.3052 20.5325C76.5067 18.6341 74.8172 17.1339 73.2397 16.032Z" fill="black"/>
<path d="M73.2398 16.0311C71.2691 14.935 69.0486 14.3516 66.7419 14.3516C59.3472 14.3516 53.3525 20.3462 53.3525 27.7409C53.3525 28.916 53.5038 30.0704 53.7993 31.1843C53.8285 31.2945 53.8417 31.3567 53.8728 31.5165C53.876 31.5333 53.876 31.5333 53.8791 31.5492C53.9183 31.7475 53.9595 31.8738 54.0912 32.15C54.2206 32.4215 54.4807 32.9246 54.7898 33.4793C55.2558 34.3157 55.7679 35.1557 56.3105 35.9495C57.7698 38.084 59.217 39.5419 60.4654 39.9613C62.1305 40.5207 68.3989 33.8851 78.3053 20.5316C76.5068 18.6332 74.8173 17.133 73.2398 16.0311Z" fill="#EC1C79"/>
<path d="M69.4469 45.1867C61.3052 45.1867 54.7051 38.5866 54.7051 30.4449C54.7051 22.3033 61.3052 15.7031 69.4469 15.7031C77.5886 15.7031 84.1887 22.3033 84.1887 30.4449C84.1887 38.5866 77.5886 45.1867 69.4469 45.1867ZM69.4469 43.8343C76.8416 43.8343 82.8362 37.8397 82.8362 30.4449C82.8362 23.0502 76.8416 17.0556 69.4469 17.0556C62.0522 17.0556 56.0575 23.0502 56.0575 30.4449C56.0575 37.8397 62.0522 43.8343 69.4469 43.8343Z" fill="black"/>
<path d="M69.447 43.8373C76.8417 43.8373 82.8363 37.8427 82.8363 30.4479C82.8363 23.0532 76.8417 17.0586 69.447 17.0586C62.0522 17.0586 56.0576 23.0532 56.0576 30.4479C56.0576 37.8427 62.0522 43.8373 69.447 43.8373Z" fill="white"/>
<path fill-rule="evenodd" clip-rule="evenodd" d="M59.4305 33.1906L57.6582 27.8511H59.2108L60.1348 30.9185L61.1573 27.8359H62.4221L63.4446 30.9185L64.3686 27.8511H65.8909L64.1186 33.1906H62.8387L61.7708 30.1384L60.7104 33.1906H59.4305ZM66.4741 33.1527V27.8511H70.7381V29.1008H67.9282V29.9036H70.473V31.0624H67.9282V31.9031H70.776V33.1527H66.4741ZM72.8209 33.1527V29.1386H71.2304V27.8511H75.8807V29.1386H74.2902V33.1527H72.8209ZM76.5245 33.1527V27.8511H77.9938V29.8354H79.8796V27.8511H81.349V33.1527H79.8796V31.1381H77.9938V33.1527H76.5245Z" fill="black"/>
<path d="M52.8788 26.2553C52.5047 26.0682 52.353 25.6133 52.5401 25.2391C52.7271 24.865 53.1821 24.7134 53.5562 24.9004L55.7201 25.9824C56.0943 26.1695 56.2459 26.6244 56.0589 26.9985C55.8718 27.3727 55.4169 27.5243 55.0427 27.3372L52.8788 26.2553Z" fill="black"/>
<path d="M52.6296 29.8437C52.2499 29.6684 52.0841 29.2184 52.2593 28.8386C52.4346 28.4588 52.8846 28.293 53.2644 28.4683L55.4283 29.467C55.8081 29.6423 55.9739 30.0923 55.7986 30.472C55.6233 30.8518 55.1734 31.0176 54.7936 30.8424L52.6296 29.8437Z" fill="black"/>
<path d="M29 58C45.0163 58 58 45.0163 58 29C58 12.9837 45.0163 0 29 0C12.9837 0 0 12.9837 0 29C0 45.0163 12.9837 58 29 58Z" fill="url(#paint0_linear_408_151)"/>
<path d="M29 57.5C44.7401 57.5 57.5 44.7401 57.5 29C57.5 13.2599 44.7401 0.5 29 0.5C13.2599 0.5 0.5 13.2599 0.5 29C0.5 44.7401 13.2599 57.5 29 57.5Z" stroke="white" stroke-opacity="0.05"/>
<path d="M45.9448 29.2433C45.9448 33.9818 44.0636 38.2888 40.9899 41.3826C40.726 41.6484 40.3808 41.7794 40.037 41.7794C39.6544 41.7794 39.2731 41.6173 39.006 41.2977L31.3084 34.1037C31.139 33.8617 31.312 33.5288 31.6074 33.5288H37.4572C38.6517 33.5288 39.6197 32.5604 39.6197 31.366C39.6197 30.1715 38.6517 29.2036 37.4572 29.2036H20.1941C18.9996 29.2036 18.0312 30.172 18.0312 31.366C18.0312 32.5599 18.9996 33.5288 20.1941 33.5288H26.5589C26.8543 33.5288 27.0274 33.8617 26.858 34.1037L18.6448 41.2977C18.3777 41.6173 17.9965 41.7794 17.6139 41.7794C17.2701 41.7794 16.9249 41.6484 16.661 41.3826C13.5877 38.2883 11.7061 33.9818 11.7061 29.2433C11.7061 19.759 19.4252 12.2207 28.8259 12.2207C38.2266 12.2207 45.9452 19.759 45.9448 29.2433Z" fill="url(#paint1_linear_408_151)"/>
</g>
<defs>
<linearGradient id="paint0_linear_408_151" x1="29" y1="0" x2="29" y2="58" gradientUnits="userSpaceOnUse">
<stop stop-color="#211426"/>
<stop offset="1" stop-color="#190E1D"/>
</linearGradient>
<linearGradient id="paint1_linear_408_151" x1="28.8254" y1="11.6367" x2="28.8254" y2="46.5384" gradientUnits="userSpaceOnUse">
<stop offset="0.01" stop-color="#FFBF00"/>
<stop offset="1" stop-color="#E843C4"/>
</linearGradient>
<clipPath id="clip0_408_151">
<rect width="137" height="58" fill="white"/>
</clipPath>
</defs>
</svg>
