<svg width="58" height="58" viewBox="0 0 58 58" fill="none" xmlns="http://www.w3.org/2000/svg">
<rect width="58" height="58" rx="29" fill="#211426"/>
<path fill-rule="evenodd" clip-rule="evenodd" d="M11.6348 42.016H15.8184C16.1701 42.016 16.5203 42.0175 16.8694 42.019C17.9123 42.0235 18.9452 42.0279 19.9782 41.9922C22.0462 41.9685 23.6625 41.0652 24.6846 39.2825C27.0379 35.2653 29.3673 31.2719 31.6493 27.2072C32.1841 26.2564 32.7308 25.3175 33.2775 24.3786C33.8242 23.4397 34.371 22.5008 34.9058 21.5499C35.9754 19.6721 35.9754 17.7467 34.9296 15.8451C34.5492 15.1677 34.163 14.4962 33.7767 13.8247C33.3904 13.1532 33.0042 12.4817 32.6239 11.8042C32.5541 11.6802 32.4837 11.5562 32.4133 11.432C32.0513 10.7943 31.6862 10.1512 31.3878 9.47473C31.1263 8.85671 30.8173 8.26245 30.3895 7.73951C29.5575 6.7174 28.4165 6.69363 27.5846 7.71574C27.442 7.9059 27.2993 8.11983 27.1805 8.33377C25.4626 11.3163 23.7681 14.3083 22.0742 17.2992C19.9476 21.054 17.8219 24.8072 15.652 28.5384C14.0928 31.2113 12.577 33.8988 11.0595 36.5894C10.6337 37.3443 10.2078 38.0995 9.78077 38.8546C9.59061 39.1636 9.44799 39.4726 9.35291 39.8054C9.09144 40.78 9.54307 41.5882 10.5176 41.8972C10.8742 42.016 11.2545 42.016 11.6348 42.016ZM34.6451 42.0147H40.4688C41.586 42.0147 42.7032 42.0147 43.8441 41.991C44.143 41.991 44.4418 41.9949 44.7407 41.9987C45.4877 42.0084 46.2347 42.0181 46.9818 41.9672C48.3842 41.8959 49.0498 40.8025 48.5506 39.4951C48.4555 39.2812 48.3605 39.0673 48.2416 38.8771L48.2401 38.8745C46.2915 35.4525 44.3428 32.0304 42.3704 28.6084C41.4671 27.0396 40.0885 26.8019 39.0188 28.133C38.9 28.2994 38.7811 28.4658 38.6623 28.6559C37.6758 30.3437 36.6952 32.0374 35.7146 33.7311C34.7342 35.4246 33.7537 37.1182 32.7673 38.8058C32.5771 39.1148 32.4345 39.4238 32.3394 39.7566C32.0779 40.7549 32.5296 41.5869 33.5279 41.8959C33.8845 42.0147 34.2648 42.0147 34.6451 42.0147Z" fill="#211426"/>
<rect x="11" y="11" width="36" height="36" rx="18" fill="url(#paint0_linear_15170_118897)"/>
<mask id="mask0_15170_118897" style="mask-type:luminance" maskUnits="userSpaceOnUse" x="17" y="17" width="24" height="24">
<path d="M40.994 17H17V41H40.994V17Z" fill="white"/>
</mask>
<g mask="url(#mask0_15170_118897)">
<path d="M34.9459 25.0253C34.7229 24.9006 34.4716 24.8351 34.2161 24.8351C33.9605 24.8351 33.7092 24.9006 33.4862 25.0253L30.137 26.9683L27.8614 28.2355L24.5124 30.1786C24.2893 30.3032 24.038 30.3686 23.7825 30.3686C23.527 30.3686 23.2757 30.3032 23.0526 30.1786L20.3904 28.6579C20.1738 28.5337 19.9929 28.3557 19.8652 28.1411C19.7374 27.9265 19.6671 27.6827 19.661 27.433V24.4339C19.658 24.1824 19.7246 23.9349 19.8533 23.7187C19.982 23.5026 20.1679 23.3262 20.3904 23.209L23.0096 21.7306C23.2327 21.606 23.484 21.5406 23.7395 21.5406C23.995 21.5406 24.2463 21.606 24.4694 21.7306L27.0886 23.209C27.3052 23.3332 27.4861 23.5112 27.6139 23.7258C27.7417 23.9404 27.812 24.1843 27.818 24.4339V26.377L30.0936 25.0675V23.1245C30.0966 22.8729 30.0301 22.6254 29.9014 22.4093C29.7727 22.1931 29.5868 22.0167 29.3642 21.8995L24.5124 19.1119C24.2893 18.9873 24.038 18.9219 23.7825 18.9219C23.527 18.9219 23.2757 18.9873 23.0526 19.1119L18.1143 21.8997C17.8917 22.0169 17.7059 22.1933 17.5772 22.4094C17.4484 22.6255 17.3819 22.873 17.3849 23.1245V28.7424C17.3819 28.994 17.4484 29.2415 17.5771 29.4576C17.7058 29.6738 17.8917 29.8502 18.1143 29.9674L23.052 32.7552C23.2751 32.8798 23.5264 32.9452 23.7819 32.9452C24.0375 32.9452 24.2887 32.8798 24.5118 32.7552L27.8608 30.8544L30.1364 29.545L33.4856 27.6442C33.7086 27.5195 33.9599 27.454 34.2155 27.454C34.471 27.454 34.7223 27.5195 34.9454 27.6442L37.5646 29.1226C37.7811 29.2468 37.962 29.4248 38.0898 29.6394C38.2176 29.854 38.2879 30.0979 38.294 30.3475V33.3466C38.297 33.5981 38.2304 33.8457 38.1017 34.0618C37.973 34.278 37.7871 34.4544 37.5646 34.5715L34.9454 36.0922C34.7223 36.2168 34.471 36.2822 34.2155 36.2822C33.96 36.2822 33.7087 36.2168 33.4856 36.0922L30.8664 34.6138C30.6498 34.4895 30.4689 34.3115 30.3411 34.0969C30.2134 33.8824 30.1431 33.6385 30.137 33.3888V31.4456L27.8614 32.755V34.6981C27.8584 34.9496 27.9249 35.1971 28.0536 35.4133C28.1823 35.6294 28.3682 35.8058 28.5908 35.923L33.5286 38.7109C33.7517 38.8355 34.003 38.9009 34.2585 38.9009C34.514 38.9009 34.7653 38.8355 34.9884 38.7109L39.9261 35.923C40.1427 35.7988 40.3236 35.6208 40.4514 35.4062C40.5792 35.1916 40.6495 34.9477 40.6556 34.6981V29.0803C40.6585 28.8288 40.592 28.5813 40.4633 28.3651C40.3346 28.149 40.1487 27.9726 39.9261 27.8554L34.9459 25.0253Z" fill="#211426"/>
</g>
<defs>
<linearGradient id="paint0_linear_15170_118897" x1="28.9956" y1="47.0073" x2="28.9956" y2="11.0037" gradientUnits="userSpaceOnUse">
<stop stop-color="#FFBF00"/>
<stop offset="1" stop-color="#E843C4"/>
</linearGradient>
</defs>
</svg>
