<svg width="56" height="56" viewBox="0 0 56 56" fill="none" xmlns="http://www.w3.org/2000/svg">
	<rect width="56" height="56" rx="28" fill="#211426" />
	<path fill-rule="evenodd" clip-rule="evenodd"
		d="M11.2328 40.568H15.2721C15.6117 40.568 15.9499 40.5694 16.2869 40.5708C17.2939 40.5751 18.2912 40.5794 19.2884 40.545C21.2851 40.5221 22.8458 39.6499 23.8326 37.9287C26.1047 34.05 28.3539 30.1944 30.5571 26.2698C31.0735 25.3518 31.6014 24.4453 32.1292 23.5387C32.6571 22.6322 33.1849 21.7256 33.7013 20.8076C34.7341 18.9945 34.7341 17.1355 33.7243 15.2995C33.3571 14.6454 32.9841 13.997 32.6112 13.3487C32.2382 12.7003 31.8653 12.052 31.4981 11.3979C31.4307 11.2782 31.3628 11.1585 31.2947 11.0386C30.9453 10.4229 30.5928 9.80191 30.3047 9.14879C30.0522 8.55208 29.7539 7.97832 29.3407 7.47341C28.5375 6.48654 27.4359 6.46359 26.6326 7.45046C26.4949 7.63406 26.3572 7.84061 26.2424 8.04717C24.5838 10.9269 22.9477 13.8157 21.3122 16.7034C19.2589 20.3288 17.2065 23.9526 15.1115 27.5551C13.606 30.1358 12.1426 32.7305 10.6774 35.3283C10.2663 36.0572 9.85505 36.7864 9.44269 37.5155C9.25909 37.8139 9.12139 38.1123 9.02958 38.4336C8.77713 39.3745 9.21319 40.1549 10.1542 40.4532C10.4984 40.568 10.8656 40.568 11.2328 40.568ZM33.4496 40.5665H39.0725C40.1512 40.5665 41.2298 40.5665 42.3315 40.5436C42.62 40.5436 42.9085 40.5473 43.197 40.5511C43.9183 40.5604 44.6396 40.5698 45.3609 40.5206C46.715 40.4518 47.3576 39.396 46.8756 38.1338C46.7838 37.9272 46.692 37.7207 46.5773 37.5371C44.6954 34.2322 42.8134 30.9273 40.9085 27.6225C40.0364 26.1077 38.7053 25.8782 37.6725 27.1634C37.5578 27.3241 37.443 27.4848 37.3283 27.6684C36.3758 29.2978 35.4292 30.933 34.4825 32.5682C33.5357 34.2034 32.589 35.8387 31.6365 37.4682C31.4529 37.7666 31.3152 38.0649 31.2234 38.3862C30.971 39.3501 31.407 40.1534 32.371 40.4518C32.7152 40.5665 33.0824 40.5665 33.4496 40.5665Z"
		fill="#211426" />
	<rect width="39.6667" height="39.6667" rx="19.8333" transform="matrix(-1 0 0 1 47.833 8.1665)"
		fill="url(#paint0_linear_15655_119717)" />
	<mask id="mask0_15655_119717" style="mask-type:luminance" maskUnits="userSpaceOnUse" x="13" y="13" width="31"
		height="30">
		<path d="M13.444 13.125H43.1865V42.875H13.444V13.125Z" fill="white" />
	</mask>
	<g mask="url(#mask0_15655_119717)">
		<path
			d="M20.9395 23.0725C21.216 22.918 21.5275 22.8368 21.8442 22.8368C22.161 22.8368 22.4725 22.918 22.749 23.0725L26.9006 25.4811L29.7214 27.0519L33.8727 29.4605C34.1492 29.6149 34.4607 29.696 34.7775 29.696C35.0942 29.696 35.4057 29.6149 35.6822 29.4605L38.9822 27.5755C39.2507 27.4215 39.475 27.2008 39.6334 26.9349C39.7917 26.6689 39.8789 26.3665 39.8864 26.0571V22.3395C39.8901 22.0277 39.8076 21.7208 39.6481 21.4529C39.4886 21.185 39.2581 20.9663 38.9822 20.8211L35.7355 18.9885C35.459 18.834 35.1475 18.7529 34.8308 18.7529C34.514 18.7529 34.2025 18.834 33.926 18.9885L30.6793 20.8211C30.4108 20.9751 30.1865 21.1957 30.0282 21.4617C29.8698 21.7277 29.7826 22.03 29.7751 22.3395V24.7481L26.9543 23.1249V20.7163C26.9506 20.4045 27.0331 20.0977 27.1926 19.8297C27.3522 19.5618 27.5826 19.3431 27.8585 19.1979L33.8727 15.7424C34.1492 15.5879 34.4607 15.5068 34.7775 15.5068C35.0942 15.5068 35.4057 15.5879 35.6822 15.7424L41.8037 19.1981C42.0796 19.3434 42.31 19.562 42.4695 19.8299C42.6291 20.0978 42.7116 20.4045 42.7079 20.7163V27.6802C42.7116 27.9921 42.6291 28.2989 42.4696 28.5668C42.31 28.8347 42.0796 29.0534 41.8037 29.1987L35.6829 32.6544C35.4064 32.8089 35.0949 32.89 34.7782 32.89C34.4614 32.89 34.15 32.8089 33.8734 32.6544L29.7221 30.2982L26.9013 28.6751L22.7497 26.3189C22.4732 26.1643 22.1617 26.0831 21.8449 26.0831C21.5282 26.0831 21.2167 26.1643 20.9402 26.3189L17.6935 28.1515C17.425 28.3055 17.2007 28.5261 17.0424 28.7921C16.884 29.0581 16.7968 29.3604 16.7893 29.6699V33.3875C16.7856 33.6993 16.8681 34.0061 17.0276 34.274C17.1871 34.542 17.4176 34.7606 17.6935 34.9059L20.9402 36.7909C21.2167 36.9453 21.5282 37.0264 21.8449 37.0264C22.1617 37.0264 22.4732 36.9453 22.7497 36.7909L25.9964 34.9583C26.2649 34.8042 26.4891 34.5836 26.6475 34.3176C26.8059 34.0516 26.893 33.7493 26.9006 33.4398V31.031L29.7214 32.6542V35.0627C29.7251 35.3746 29.6426 35.6814 29.4831 35.9493C29.3235 36.2173 29.0931 36.4359 28.8172 36.5812L22.6964 40.0369C22.4199 40.1914 22.1084 40.2725 21.7916 40.2725C21.4749 40.2725 21.1634 40.1914 20.8869 40.0369L14.7661 36.5812C14.4976 36.4272 14.2734 36.2065 14.115 35.9405C13.9566 35.6746 13.8695 35.3722 13.8619 35.0627V28.0991C13.8582 27.7873 13.9407 27.4804 14.1002 27.2125C14.2598 26.9446 14.4902 26.7259 14.7661 26.5807L20.9395 23.0725Z"
			fill="#211426" />
	</g>
	<rect width="56" height="56" rx="28" fill="#211426" />
	<path
		d="M39.0728 40.5665C37.1909 40.5665 35.3089 40.5665 33.45 40.5665C33.0828 40.5665 32.7155 40.5665 32.3713 40.4518C31.4074 40.1534 30.9713 39.3501 31.2238 38.3862C31.3156 38.0649 31.4533 37.7666 31.6369 37.4682C33.5418 34.2092 35.4237 30.9273 37.3286 27.6684C37.4433 27.4848 37.5581 27.3241 37.6728 27.1634C38.7056 25.8782 40.0367 26.1077 40.9089 27.6225C42.8137 30.9273 44.6957 34.2322 46.5776 37.5371C46.6924 37.7207 46.7842 37.9272 46.876 38.1338C47.3579 39.396 46.7153 40.4518 45.3612 40.5206C44.3514 40.5895 43.3416 40.5436 42.3318 40.5436C41.2302 40.5665 40.1515 40.5665 39.0728 40.5665Z"
		fill="#211426" />
	<rect width="32" height="32" rx="16" transform="matrix(-1 0 0 1 44 12)" fill="url(#paint1_linear_15655_119717)" />
	<mask id="mask1_15655_119717" style="mask-type:luminance" maskUnits="userSpaceOnUse" x="16" y="16" width="25"
		height="24">
		<path d="M16.258 16H40.252V40H16.258V16Z" fill="white" />
	</mask>
	<g mask="url(#mask1_15655_119717)">
		<path
			d="M22.306 24.0258C22.5291 23.9011 22.7804 23.8356 23.0359 23.8356C23.2914 23.8356 23.5427 23.9011 23.7658 24.0258L27.115 25.9688L29.3906 27.236L32.7395 29.1791C32.9626 29.3037 33.2139 29.3691 33.4694 29.3691C33.725 29.3691 33.9762 29.3037 34.1993 29.1791L36.8615 27.6584C37.0781 27.5342 37.259 27.3562 37.3868 27.1416C37.5146 26.927 37.5849 26.6831 37.5909 26.4335V23.4344C37.5939 23.1829 37.5274 22.9353 37.3987 22.7192C37.27 22.503 37.0841 22.3266 36.8615 22.2095L34.2423 20.7311C34.0192 20.6065 33.768 20.5411 33.5124 20.5411C33.2569 20.5411 33.0056 20.6065 32.7825 20.7311L30.1634 22.2095C29.9468 22.3337 29.7658 22.5117 29.6381 22.7263C29.5103 22.9408 29.44 23.1847 29.4339 23.4344V25.3775L27.1584 24.068V22.125C27.1554 21.8734 27.2219 21.6259 27.3506 21.4098C27.4793 21.1936 27.6652 21.0172 27.8878 20.9L32.7395 18.1124C32.9626 17.9878 33.2139 17.9224 33.4694 17.9224C33.725 17.9224 33.9762 17.9878 34.1993 18.1124L39.1377 20.9002C39.3602 21.0174 39.5461 21.1937 39.6748 21.4099C39.8035 21.626 39.8701 21.8734 39.8671 22.125V27.7429C39.8701 27.9945 39.8036 28.242 39.6749 28.4581C39.5461 28.6743 39.3602 28.8507 39.1377 28.9679L34.1999 31.7557C33.9768 31.8803 33.7255 31.9457 33.47 31.9457C33.2145 31.9457 32.9632 31.8803 32.7401 31.7557L29.3911 29.8549L27.1155 28.5455L23.7664 26.6447C23.5433 26.52 23.292 26.4545 23.0365 26.4545C22.7809 26.4545 22.5296 26.52 22.3066 26.6447L19.6874 28.1231C19.4708 28.2473 19.2899 28.4253 19.1621 28.6399C19.0344 28.8545 18.9641 29.0984 18.958 29.348V32.3471C18.955 32.5986 19.0215 32.8461 19.1502 33.0623C19.2789 33.2784 19.4648 33.4548 19.6874 33.572L22.3066 35.0927C22.5297 35.2173 22.781 35.2827 23.0365 35.2827C23.292 35.2827 23.5433 35.2173 23.7664 35.0927L26.3856 33.6143C26.6021 33.49 26.7831 33.312 26.9108 33.0974C27.0386 32.8829 27.1089 32.639 27.115 32.3893V30.4461L29.3906 31.7555V33.6986C29.3936 33.9501 29.327 34.1976 29.1983 34.4138C29.0696 34.6299 28.8837 34.8063 28.6611 34.9235L23.7234 37.7114C23.5003 37.836 23.249 37.9014 22.9935 37.9014C22.738 37.9014 22.4867 37.836 22.2636 37.7114L17.3258 34.9235C17.1092 34.7993 16.9283 34.6213 16.8006 34.4067C16.6728 34.1921 16.6025 33.9482 16.5964 33.6986V28.0808C16.5934 27.8293 16.6599 27.5817 16.7886 27.3656C16.9174 27.1494 17.1032 26.973 17.3258 26.8559L22.306 24.0258Z"
			fill="#211426" />
	</g>
	<defs>
		<linearGradient id="paint0_linear_15655_119717" x1="19.8285" y1="39.6747" x2="19.8285" y2="0.00403393"
			gradientUnits="userSpaceOnUse">
			<stop stop-color="#FFBF00" />
			<stop offset="1" stop-color="#E843C4" />
		</linearGradient>
		<linearGradient id="paint1_linear_15655_119717" x1="15.9961" y1="32.0065" x2="15.9961" y2="0.00325427"
			gradientUnits="userSpaceOnUse">
			<stop stop-color="#FFBF00" />
			<stop offset="1" stop-color="#E843C4" />
		</linearGradient>
	</defs>
</svg>