<svg width="14" height="12" viewBox="0 0 14 12" fill="none" xmlns="http://www.w3.org/2000/svg">
<g filter="url(#filter0_b_9999_9348)">
<path fill-rule="evenodd" clip-rule="evenodd" d="M2.71664 0.476531C2.71664 0.21335 2.50329 0 2.24011 0C1.97693 0 1.76358 0.21335 1.76358 0.476531V4.30742C1.76358 4.5706 1.97693 4.78395 2.24011 4.78395C2.50329 4.78395 2.71664 4.5706 2.71664 4.30742V0.476531ZM8.75121 4.50676C8.61162 4.68192 8.39985 4.78395 8.17587 4.78395H5.87793C5.62831 4.78395 5.39382 4.66427 5.24737 4.46212C5.15112 4.32925 5.09929 4.16938 5.09929 4.00531V3.5638C5.09929 3.39443 5.16128 3.23092 5.27355 3.10411C5.40517 2.95547 5.59418 2.87037 5.79272 2.87037H8.17587C8.39985 2.87037 8.61162 2.9724 8.75121 3.14756C8.85501 3.27783 8.91154 3.43947 8.91154 3.60604V4.04828C8.91154 4.21485 8.85501 4.37649 8.75121 4.50676ZM3.9859 7.37713C3.84631 7.55229 3.63454 7.65432 3.41056 7.65432H1.06965C0.845677 7.65432 0.633901 7.55229 0.494318 7.37713C0.390511 7.24686 0.333984 7.08522 0.333984 6.91865V6.47641C0.333984 6.30984 0.390511 6.1482 0.494318 6.01793C0.633901 5.84277 0.845676 5.74074 1.06965 5.74074H3.41056C3.63454 5.74074 3.84631 5.84277 3.9859 6.01793C4.0897 6.1482 4.14623 6.30984 4.14623 6.47641V6.91865C4.14623 7.08522 4.0897 7.24686 3.9859 7.37713ZM7.48195 0.476531C7.48195 0.21335 7.2686 0 7.00542 0C6.74224 0 6.52889 0.21335 6.52889 0.476531V1.43705C6.52889 1.70023 6.74224 1.91358 7.00542 1.91358C7.2686 1.91358 7.48195 1.70023 7.48195 1.43705V0.476531ZM6.52889 6.21727C6.52889 5.95409 6.74224 5.74074 7.00542 5.74074C7.2686 5.74074 7.48195 5.95409 7.48195 6.21727V11.0049C7.48195 11.2681 7.2686 11.4815 7.00542 11.4815C6.74224 11.4815 6.52889 11.2681 6.52889 11.0049V6.21727ZM2.71664 9.08764C2.71664 8.82446 2.50329 8.61111 2.24011 8.61111C1.97693 8.61111 1.76358 8.82446 1.76358 9.08764V11.0049C1.76358 11.2681 1.97693 11.4815 2.24011 11.4815C2.50329 11.4815 2.71664 11.2681 2.71664 11.0049V9.08764ZM10.0249 8.33392C10.1645 8.50908 10.3763 8.61111 10.6003 8.61111H12.9317C13.1556 8.61111 13.3674 8.50908 13.507 8.33392C13.6108 8.20365 13.6673 8.04201 13.6673 7.87544V7.48104C13.6673 7.31447 13.6108 7.15283 13.507 7.02256C13.3674 6.8474 13.1556 6.74537 12.9317 6.74537H10.6003C10.3763 6.74537 10.1645 6.8474 10.0249 7.02256C9.92113 7.15283 9.8646 7.31447 9.8646 7.48104V7.87544C9.8646 8.04201 9.92113 8.20365 10.0249 8.33392ZM12.2473 0.476531C12.2473 0.21335 12.0339 0 11.7707 0C11.5075 0 11.2942 0.21335 11.2942 0.476531V5.26421C11.2942 5.52739 11.5075 5.74074 11.7707 5.74074C12.0339 5.74074 12.2473 5.52739 12.2473 5.26421V0.476531ZM11.2942 10.0444C11.2942 9.78125 11.5075 9.5679 11.7707 9.5679C12.0339 9.5679 12.2473 9.78125 12.2473 10.0444V11.0049C12.2473 11.2681 12.0339 11.4815 11.7707 11.4815C11.5075 11.4815 11.2942 11.2681 11.2942 11.0049V10.0444Z" fill="#FCFCFC" fill-opacity="0.5"/>
</g>
<defs>
<filter id="filter0_b_9999_9348" x="-4.66602" y="-5" width="23.334" height="21.4805" filterUnits="userSpaceOnUse" color-interpolation-filters="sRGB">
<feFlood flood-opacity="0" result="BackgroundImageFix"/>
<feGaussianBlur in="BackgroundImageFix" stdDeviation="2.5"/>
<feComposite in2="SourceAlpha" operator="in" result="effect1_backgroundBlur_9999_9348"/>
<feBlend mode="normal" in="SourceGraphic" in2="effect1_backgroundBlur_9999_9348" result="shape"/>
</filter>
</defs>
</svg>
