<svg width="18" height="22" viewBox="0 0 18 22" fill="none" xmlns="http://www.w3.org/2000/svg">
<path fill-rule="evenodd" clip-rule="evenodd" d="M13.757 1.26756C13.8837 0.935842 13.7604 0.560753 13.4616 0.368906C13.1628 0.17706 12.7704 0.221035 12.5215 0.474265L0.96515 12.2311C0.753326 12.4466 0.691515 12.7681 0.808351 13.0468C0.925187 13.3255 1.19785 13.5068 1.50002 13.5068H6.8784L3.79973 20.7051C3.6598 21.0322 3.76902 21.4127 4.06118 21.6158C4.35334 21.8189 4.74801 21.7888 5.00595 21.5437L17.0167 10.13C17.2391 9.91865 17.3103 9.59313 17.1965 9.30818C17.0827 9.02324 16.8068 8.83634 16.5 8.83634H10.8669L13.757 1.26756Z" fill="white" fill-opacity="0.08"/>
</svg>
