<svg width="14" height="14" viewBox="0 0 14 14" fill="none" xmlns="http://www.w3.org/2000/svg">
<path fill-rule="evenodd" clip-rule="evenodd" d="M7.29097 0.332031C8.05227 0.332031 8.80612 0.481981 9.50947 0.773318C10.2128 1.06465 10.8519 1.49167 11.3902 2.03L7.29097 6.12924L7.29097 0.332031ZM11.9686 3.76926C12.5069 4.30758 12.9339 4.94666 13.2253 5.65001C13.5166 6.35337 13.6666 7.10721 13.6666 7.86851C13.6666 8.62981 13.5166 9.38366 13.2253 10.087C12.9339 10.7904 12.5069 11.4294 11.9686 11.9678L7.86934 7.86851L11.9686 3.76926ZM7.81404 13.4161C8.72635 13.1394 9.55632 12.6419 10.2304 11.9678L6.1312 7.86852L6.1312 2.0713C5.17784 2.0713 4.2392 2.30642 3.39841 2.75583C2.55762 3.20524 1.84065 3.85507 1.31099 4.64776C0.781335 5.44044 0.455346 6.35152 0.361901 7.30029C0.268456 8.24906 0.410439 9.20623 0.775273 10.087C1.14011 10.9678 1.71653 11.745 2.45349 12.3498C3.19044 12.9546 4.06518 13.3683 5.00022 13.5543C5.93526 13.7403 6.90174 13.6928 7.81404 13.4161Z" fill="#FCFCFC" fill-opacity="0.5"/>
</svg>
