<svg width="16" height="16" viewBox="0 0 16 16" fill="none" xmlns="http://www.w3.org/2000/svg">
<path fill-rule="evenodd" clip-rule="evenodd" d="M11.9993 1.33203C11.4471 1.33203 10.9993 1.77975 10.9993 2.33203V13.6654C10.9993 14.2177 11.4471 14.6654 11.9993 14.6654H13.3327C13.885 14.6654 14.3327 14.2177 14.3327 13.6654V2.33203C14.3327 1.77975 13.885 1.33203 13.3327 1.33203L11.9993 1.33203ZM6.33268 6.9987C6.33268 6.44641 6.7804 5.9987 7.33268 5.9987H8.66602C9.2183 5.9987 9.66602 6.44641 9.66602 6.9987V13.6654C9.66602 14.2176 9.2183 14.6654 8.66602 14.6654H7.33268C6.7804 14.6654 6.33268 14.2176 6.33268 13.6654V6.9987ZM1.66602 10.9987C1.66602 10.4464 2.11373 9.9987 2.66602 9.9987H3.99935C4.55163 9.9987 4.99935 10.4464 4.99935 10.9987V13.6654C4.99935 14.2177 4.55163 14.6654 3.99935 14.6654H2.66601C2.11373 14.6654 1.66602 14.2177 1.66602 13.6654V10.9987Z" fill="#FCFCFC" fill-opacity="0.5"/>
</svg>
