<svg width="14" height="14" viewBox="0 0 14 14" fill="none" xmlns="http://www.w3.org/2000/svg">
<path fill-rule="evenodd" clip-rule="evenodd" d="M7.00065 0.332031C3.31875 0.332031 0.333984 3.3168 0.333984 6.9987C0.333984 10.6806 3.31875 13.6654 7.00065 13.6654C10.6826 13.6654 13.6673 10.6806 13.6673 6.9987C13.6673 3.3168 10.6826 0.332031 7.00065 0.332031ZM7.00186 3.64724C6.71864 3.64724 6.48904 3.87684 6.48904 4.16006C6.48904 4.44329 6.71864 4.67288 7.00186 4.67288H7.00801C7.29124 4.67288 7.52083 4.44329 7.52083 4.16006C7.52083 3.87684 7.29124 3.64724 7.00801 3.64724H7.00186ZM5.25586 6.38391C5.25586 6.10069 5.48546 5.87109 5.76868 5.87109H6.99945C7.28267 5.87109 7.51227 6.10069 7.51227 6.38391V8.94781H8.23022C8.51344 8.94781 8.74304 9.1774 8.74304 9.46063C8.74304 9.74385 8.51344 9.97345 8.23022 9.97345H7.01423C7.00932 9.97359 7.00439 9.97366 6.99945 9.97366C6.99451 9.97366 6.98958 9.97359 6.98467 9.97345H5.76868C5.48546 9.97345 5.25586 9.74385 5.25586 9.46063C5.25586 9.1774 5.48546 8.94781 5.76868 8.94781H6.48663V6.89673H5.76868C5.48546 6.89673 5.25586 6.66714 5.25586 6.38391Z" fill="#FCFCFC" fill-opacity="0.5"/>
</svg>
