<svg width="14" height="14" viewBox="0 0 14 14" fill="none" xmlns="http://www.w3.org/2000/svg">
<path d="M5.42954 5.14685C5.80287 4.69499 6.36806 4.40611 7.00065 4.40611C7.63324 4.40611 8.19843 4.69499 8.57176 5.14685C8.81756 5.44486 8.97355 5.80661 9.02154 6.18991C9.06953 6.57322 9.00754 6.96226 8.84281 7.31167C8.67807 7.66108 8.41738 7.95645 8.09114 8.16331C7.76491 8.37018 7.38658 8.48002 7.00028 8.48002C6.61399 8.48002 6.23565 8.37018 5.90942 8.16331C5.58318 7.95645 5.32249 7.66108 5.15776 7.31167C4.99302 6.96226 4.93103 6.57322 4.97902 6.18991C5.02702 5.80661 5.18301 5.44486 5.4288 5.14685H5.42954ZM9.77843 6.44314C9.77843 5.97499 9.66287 5.53351 9.45843 5.14685H12.5562C12.8509 5.14685 13.1335 5.26391 13.3419 5.47228C13.5503 5.68066 13.6673 5.96327 13.6673 6.25796V6.62833C13.6673 7.80388 12.774 9.00759 11.2118 9.43129C11.0512 9.14291 10.8165 8.90267 10.532 8.73544C10.2474 8.56822 9.92331 8.48009 9.59324 8.48018H8.88954C9.17031 8.2204 9.39423 7.90529 9.54721 7.55471C9.7002 7.20412 9.77892 6.82565 9.77843 6.44314ZM9.59324 9.22092C9.73927 9.22053 9.88393 9.249 10.0189 9.3047C10.1539 9.3604 10.2765 9.44223 10.3798 9.54549C10.483 9.64874 10.5649 9.77138 10.6206 9.90637C10.6763 10.0413 10.7047 10.186 10.7044 10.332V10.7024C10.7044 12.1624 9.32658 13.6654 7.00065 13.6654C4.67473 13.6654 3.29695 12.1624 3.29695 10.7024V10.332C3.29656 10.186 3.32503 10.0413 3.38073 9.90637C3.43643 9.77138 3.51826 9.64874 3.62151 9.54549C3.72477 9.44223 3.84741 9.3604 3.98239 9.3047C4.11738 9.249 4.26204 9.22053 4.40806 9.22092H9.59324ZM0.333984 6.62833C0.333984 7.80388 1.22732 9.00759 2.78954 9.43129C2.95008 9.14291 3.18478 8.90267 3.46935 8.73544C3.75391 8.56822 4.078 8.48009 4.40806 8.48018H5.11176C4.831 8.2204 4.60707 7.90529 4.45409 7.55471C4.3011 7.20412 4.22238 6.82565 4.22287 6.44314C4.22287 5.97499 4.33843 5.53351 4.54361 5.14685H1.4451C1.15041 5.14685 0.867795 5.26391 0.659421 5.47228C0.451048 5.68066 0.333984 5.96327 0.333984 6.25796V6.62833ZM6.07473 2.36907C6.07473 1.82881 5.86011 1.31068 5.47809 0.928666C5.09607 0.546647 4.57794 0.332031 4.03769 0.332031C3.49743 0.332031 2.9793 0.546647 2.59729 0.928666C2.21527 1.31068 2.00065 1.82881 2.00065 2.36907C2.00065 2.90932 2.21527 3.42745 2.59729 3.80947C2.9793 4.19149 3.49743 4.40611 4.03769 4.40611C4.57794 4.40611 5.09607 4.19149 5.47809 3.80947C5.86011 3.42745 6.07473 2.90932 6.07473 2.36907ZM12.0007 2.36907C12.0007 1.82881 11.786 1.31068 11.404 0.928666C11.022 0.546647 10.5039 0.332031 9.96361 0.332031C9.42336 0.332031 8.90523 0.546647 8.52321 0.928666C8.14119 1.31068 7.92658 1.82881 7.92658 2.36907C7.92658 2.90932 8.14119 3.42745 8.52321 3.80947C8.90523 4.19149 9.42336 4.40611 9.96361 4.40611C10.5039 4.40611 11.022 4.19149 11.404 3.80947C11.786 3.42745 12.0007 2.90932 12.0007 2.36907Z" fill="#FCFCFC" fill-opacity="0.5"/>
</svg>
