<svg width="14" height="14" viewBox="0 0 14 14" fill="none" xmlns="http://www.w3.org/2000/svg">
<path fill-rule="evenodd" clip-rule="evenodd" d="M13.6673 6.9987C13.6673 10.6807 10.6826 13.6654 7.00065 13.6654C3.31865 13.6654 0.333984 10.6807 0.333984 6.9987C0.333984 3.3167 3.31865 0.332031 7.00065 0.332031C10.6826 0.332031 13.6673 3.3167 13.6673 6.9987ZM6.65239 11.4988C6.69219 11.5462 6.74858 11.5699 6.82155 11.5699H7.19966C7.26599 11.5699 7.31906 11.5462 7.35886 11.4988C7.40529 11.4582 7.42851 11.404 7.42851 11.3363V10.6353C7.88622 10.5947 8.28092 10.4897 8.61259 10.3204C8.9509 10.1511 9.20961 9.92422 9.38871 9.63978C9.57445 9.35534 9.66732 9.0201 9.66732 8.63407C9.66732 8.24803 9.5844 7.93311 9.41856 7.6893C9.25936 7.43872 9.0106 7.23216 8.67229 7.06962C8.33398 6.90031 7.89949 6.74116 7.36881 6.59216C6.931 6.46349 6.57611 6.34158 6.30413 6.22645C6.03216 6.11132 5.83315 5.97925 5.70712 5.83026C5.58108 5.67449 5.51806 5.48147 5.51806 5.25121C5.51806 4.89227 5.65073 4.62814 5.91607 4.45883C6.18805 4.28952 6.53962 4.20486 6.9708 4.20486C7.39534 4.20486 7.74029 4.29968 8.00563 4.48931C8.27097 4.67894 8.42354 4.91259 8.46334 5.19026C8.48987 5.26475 8.52635 5.31555 8.57279 5.34264C8.62586 5.36973 8.67561 5.38327 8.72204 5.38327H9.24941C9.32237 5.38327 9.37544 5.36296 9.40861 5.32232C9.44178 5.27491 9.45836 5.22751 9.45836 5.1801C9.45173 4.93629 9.37213 4.68571 9.21955 4.42835C9.06698 4.171 8.84145 3.94412 8.54294 3.74772C8.24443 3.55132 7.87296 3.42602 7.42851 3.37185V2.66073C7.42851 2.59301 7.40529 2.53883 7.35886 2.49819C7.31906 2.45079 7.26599 2.42708 7.19966 2.42708H6.82155C6.74858 2.42708 6.69219 2.45079 6.65239 2.49819C6.61259 2.53883 6.59269 2.59301 6.59269 2.66073V3.36169C5.93597 3.42264 5.42851 3.63259 5.0703 3.99153C4.71209 4.3437 4.53299 4.76698 4.53299 5.26137C4.53299 5.6474 4.60927 5.96571 4.76184 6.21629C4.92105 6.46687 5.15985 6.67682 5.47826 6.84613C5.79667 7.01544 6.198 7.17121 6.68224 7.31343C7.14659 7.44888 7.5247 7.57417 7.81657 7.6893C8.10844 7.80444 8.32403 7.9365 8.46334 8.08549C8.60927 8.22772 8.68224 8.41735 8.68224 8.65438C8.68224 8.99978 8.54626 9.27745 8.27428 9.4874C8.00894 9.69057 7.59103 9.79216 7.02055 9.79216C6.64908 9.79216 6.34393 9.74137 6.10513 9.63978C5.87296 9.53142 5.69385 9.39936 5.56781 9.24359C5.44178 9.08105 5.35886 8.91851 5.31906 8.75597C5.30579 8.70179 5.27926 8.65438 5.23946 8.61375C5.19966 8.57311 5.13995 8.5528 5.06035 8.5528H4.55289C4.49319 8.5528 4.44012 8.5765 4.39369 8.62391C4.35388 8.66454 4.33398 8.71195 4.33398 8.76613C4.34725 9.06412 4.44012 9.34518 4.61259 9.6093C4.78506 9.87343 5.03714 10.1003 5.36881 10.2899C5.70048 10.4728 6.10845 10.5845 6.59269 10.6252V11.3363C6.59269 11.404 6.61259 11.4582 6.65239 11.4988Z" fill="#FCFCFC" fill-opacity="0.5"/>
</svg>
