<svg width="20" height="25" viewBox="0 0 20 25" fill="none" xmlns="http://www.w3.org/2000/svg">
<path fill-rule="evenodd" clip-rule="evenodd" d="M2.34615 15C2.34615 10.911 5.66097 7.59615 9.75 7.59615C13.839 7.59615 17.1538 10.911 17.1538 15C17.1538 19.089 13.839 22.4038 9.75 22.4038C5.66097 22.4038 2.34615 19.089 2.34615 15ZM9.75 6.25C4.91751 6.25 1 10.1675 1 15C1 19.8325 4.91751 23.75 9.75 23.75C14.5825 23.75 18.5 19.8325 18.5 15C18.5 10.1675 14.5825 6.25 9.75 6.25ZM9.20455 16.9361C9.26818 16.9841 9.34545 17.0081 9.43636 17.0081H10.0773C10.1682 17.0081 10.2409 16.9841 10.2955 16.9361C10.35 16.8801 10.3773 16.8121 10.3773 16.7321V10.8761C10.3773 10.7961 10.35 10.7321 10.2955 10.6841C10.2409 10.6281 10.1682 10.6001 10.0773 10.6001H9.43636C9.34545 10.6001 9.26818 10.6281 9.20455 10.6841C9.15 10.7321 9.12273 10.7961 9.12273 10.8761V16.7321C9.12273 16.8121 9.15 16.8801 9.20455 16.9361ZM9.08182 18.9281C9.14545 18.9761 9.22273 19.0001 9.31364 19.0001H10.1864C10.2773 19.0001 10.35 18.9761 10.4045 18.9281C10.4682 18.8721 10.5 18.8041 10.5 18.7241V17.9681C10.5 17.8801 10.4682 17.8121 10.4045 17.7641C10.35 17.7081 10.2773 17.6801 10.1864 17.6801H9.31364C9.22273 17.6801 9.14545 17.7081 9.08182 17.7641C9.02727 17.8121 9 17.8801 9 17.9681V18.7241C9 18.8041 9.02727 18.8721 9.08182 18.9281Z" fill="#FFBF00"/>
</svg>
